999
ANSI/AAMA
  0
SECTION
  2
BLOCKS
0
BLOCK
  8
1
  2
前片-M
 70
0
 10
0.0
 20
0.0
  0
POLYLINE
  8
1
  66
1
  70
1
  0
VERTEX
  8
1
  10
-259.063773
  20
-533.300447
  0
VERTEX
  8
1
  10
-263.637002
  20
-533.265417
  0
VERTEX
  8
1
  10
-278.563004
  20
-533.092852
  0
VERTEX
  8
1
  10
-293.700908
  20
-532.848057
  0
VERTEX
  8
1
  10
-308.891642
  20
-532.533607
  0
VERTEX
  8
1
  10
-324.052961
  20
-532.145288
  0
VERTEX
  8
1
  10
-339.904802
  20
-531.647862
  0
VERTEX
  8
1
  10
-355.856197
  20
-531.035474
  0
VERTEX
  8
1
  10
-371.938065
  20
-530.321574
  0
VERTEX
  8
1
  10
-388.018605
  20
-529.564700
  0
VERTEX
  8
1
  10
-404.099776
  20
-528.820158
  0
VERTEX
  8
1
  10
-419.763271
  20
-528.159012
  0
VERTEX
  8
1
  10
-435.357601
  20
-527.583912
  0
VERTEX
  8
1
  10
-451.528692
  20
-527.057179
  0
VERTEX
  8
1
  10
-468.664908
  20
-526.569795
  0
VERTEX
  8
1
  10
-468.926953
  20
-512.953749
  0
VERTEX
  8
1
  10
-468.956124
  20
-500.842117
  0
VERTEX
  8
1
  10
-468.729205
  20
-487.695780
  0
VERTEX
  8
1
  10
-468.212700
  20
-472.580157
  0
VERTEX
  8
1
  10
-467.520765
  20
-457.468344
  0
VERTEX
  8
1
  10
-466.743745
  20
-442.224642
  0
VERTEX
  8
1
  10
-465.932962
  20
-427.122461
  0
VERTEX
  8
1
  10
-465.078720
  20
-412.024658
  0
VERTEX
  8
1
  10
-464.177382
  20
-396.930760
  0
VERTEX
  8
1
  10
-463.213515
  20
-381.649302
  0
VERTEX
  8
1
  10
-462.225777
  20
-366.560322
  0
VERTEX
  8
1
  10
-461.582630
  20
-356.775229
  0
VERTEX
  8
1
  10
-461.237272
  20
-351.469370
  0
VERTEX
  8
1
  10
-460.288768
  20
-336.373080
  0
VERTEX
  8
1
  10
-459.532235
  20
-321.925382
  0
VERTEX
  8
1
  10
-459.143267
  20
-310.097706
  0
VERTEX
  8
1
  10
-459.048224
  20
-299.696683
  0
VERTEX
  8
1
  10
-459.218971
  20
-288.518580
  0
VERTEX
  8
1
  10
-459.650832
  20
-277.346238
  0
VERTEX
  8
1
  10
-460.392053
  20
-265.177181
  0
VERTEX
  8
1
  10
-461.464591
  20
-252.069648
  0
VERTEX
  8
1
  10
-462.107182
  20
-245.359713
  0
VERTEX
  8
1
  10
-462.980141
  20
-237.021614
  0
VERTEX
  8
1
  10
-464.725663
  20
-221.979104
  0
VERTEX
  8
1
  10
-466.644016
  20
-206.978564
  0
VERTEX
  8
1
  10
-468.684886
  20
-191.901006
  0
VERTEX
  8
1
  10
-470.524252
  20
-177.554030
  0
VERTEX
  8
1
  10
-471.821128
  20
-165.493939
  0
VERTEX
  8
1
  10
-473.024666
  20
-151.750891
  0
VERTEX
  8
1
  10
-474.109091
  20
-136.044740
  0
VERTEX
  8
1
  10
-471.075555
  20
-135.338230
  0
VERTEX
  8
1
  10
-466.780597
  20
-134.162103
  0
VERTEX
  8
1
  10
-462.709130
  20
-132.796217
  0
VERTEX
  8
1
  10
-459.327855
  20
-131.424901
  0
VERTEX
  8
1
  10
-456.034500
  20
-129.826935
  0
VERTEX
  8
1
  10
-452.738306
  20
-127.947297
  0
VERTEX
  8
1
  10
-449.572688
  20
-125.851118
  0
VERTEX
  8
1
  10
-446.612637
  20
-123.599466
  0
VERTEX
  8
1
  10
-443.740841
  20
-121.102086
  0
VERTEX
  8
1
  10
-441.050756
  20
-118.434183
  0
VERTEX
  8
1
  10
-438.451001
  20
-115.505947
  0
VERTEX
  8
1
  10
-435.957856
  20
-112.319188
  0
VERTEX
  8
1
  10
-433.618364
  20
-108.925694
  0
VERTEX
  8
1
  10
-431.413914
  20
-105.290843
  0
VERTEX
  8
1
  10
-429.379379
  20
-101.461891
  0
VERTEX
  8
1
  10
-427.494055
  20
-97.382138
  0
VERTEX
  8
1
  10
-425.787915
  20
-93.087938
  0
VERTEX
  8
1
  10
-424.288297
  20
-88.637029
  0
VERTEX
  8
1
  10
-422.982555
  20
-83.982732
  0
VERTEX
  8
1
  10
-422.374553
  20
-81.446739
  0
VERTEX
  8
1
  10
-421.872281
  20
-79.097462
  0
VERTEX
  8
1
  10
-420.975704
  20
-74.027304
  0
VERTEX
  8
1
  10
-420.295523
  20
-68.757346
  0
VERTEX
  8
1
  10
-419.833044
  20
-63.193607
  0
VERTEX
  8
1
  10
-419.609546
  20
-57.427169
  0
VERTEX
  8
1
  10
-419.632850
  20
-51.463680
  0
VERTEX
  8
1
  10
-419.910625
  20
-45.319746
  0
VERTEX
  8
1
  10
-420.448573
  20
-38.998687
  0
VERTEX
  8
1
  10
-421.251909
  20
-32.491820
  0
VERTEX
  8
1
  10
-422.356889
  20
-25.602234
  0
VERTEX
  8
1
  10
-423.796647
  20
-18.224223
  0
VERTEX
  8
1
  10
-425.597571
  20
-10.306266
  0
VERTEX
  8
1
  10
-427.724738
  20
-2.076761
  0
VERTEX
  8
1
  10
-430.370511
  20
7.102239
  0
VERTEX
  8
1
  10
-433.690251
  20
17.661991
  0
VERTEX
  8
1
  10
-437.538962
  20
29.010191
  0
VERTEX
  8
1
  10
-429.597758
  20
33.272608
  0
VERTEX
  8
1
  10
-421.969379
  20
37.124037
  0
VERTEX
  8
1
  10
-414.894090
  20
40.432774
  0
VERTEX
  8
1
  10
-407.046128
  20
43.806402
  0
VERTEX
  8
1
  10
-394.577630
  20
48.793240
  0
VERTEX
  8
1
  10
-380.720230
  20
54.306804
  0
VERTEX
  8
1
  10
-372.023752
  20
58.000277
  0
VERTEX
  8
1
  10
-360.228629
  20
63.364363
  0
VERTEX
  8
1
  10
-357.508945
  20
52.123201
  0
VERTEX
  8
1
  10
-354.892138
  20
42.249536
  0
VERTEX
  8
1
  10
-352.307533
  20
33.442468
  0
VERTEX
  8
1
  10
-349.469481
  20
24.639510
  0
VERTEX
  8
1
  10
-346.823064
  20
17.126614
  0
VERTEX
  8
1
  10
-344.388664
  20
10.890551
  0
VERTEX
  8
1
  10
-342.014571
  20
5.445145
  0
VERTEX
  8
1
  10
-339.644499
  20
0.599165
  0
VERTEX
  8
1
  10
-337.238717
  20
-3.779830
  0
VERTEX
  8
1
  10
-334.718326
  20
-7.861070
  0
VERTEX
  8
1
  10
-332.159638
  20
-11.547514
  0
VERTEX
  8
1
  10
-329.481122
  20
-14.983859
  0
VERTEX
  8
1
  10
-326.637366
  20
-18.228093
  0
VERTEX
  8
1
  10
-323.627221
  20
-21.289611
  0
VERTEX
  8
1
  10
-320.363479
  20
-24.256535
  0
VERTEX
  8
1
  10
-316.848265
  20
-27.110462
  0
VERTEX
  8
1
  10
-313.195357
  20
-29.756140
  0
VERTEX
  8
1
  10
-309.303661
  20
-32.263013
  0
VERTEX
  8
1
  10
-305.281362
  20
-34.554026
  0
VERTEX
  8
1
  10
-301.113819
  20
-36.636609
  0
VERTEX
  8
1
  10
-296.861499
  20
-38.479439
  0
VERTEX
  8
1
  10
-292.502630
  20
-40.095850
  0
VERTEX
  8
1
  10
-287.809422
  20
-41.567460
  0
VERTEX
  8
1
  10
-282.736840
  20
-42.891334
  0
VERTEX
  8
1
  10
-277.455220
  20
-44.022599
  0
VERTEX
  8
1
  10
-272.262500
  20
-44.891742
  0
VERTEX
  8
1
  10
-266.305500
  20
-45.607818
  0
VERTEX
  8
1
  10
-259.063773
  20
-46.185121
  0
VERTEX
  8
1
  10
-259.063773
  20
-46.185121
  0
VERTEX
  8
1
  10
-251.822046
  20
-45.607818
  0
VERTEX
  8
1
  10
-245.865046
  20
-44.891742
  0
VERTEX
  8
1
  10
-240.672325
  20
-44.022599
  0
VERTEX
  8
1
  10
-235.390706
  20
-42.891334
  0
VERTEX
  8
1
  10
-230.318123
  20
-41.567460
  0
VERTEX
  8
1
  10
-225.624915
  20
-40.095850
  0
VERTEX
  8
1
  10
-221.266047
  20
-38.479439
  0
VERTEX
  8
1
  10
-217.013726
  20
-36.636609
  0
VERTEX
  8
1
  10
-212.846184
  20
-34.554026
  0
VERTEX
  8
1
  10
-208.823884
  20
-32.263013
  0
VERTEX
  8
1
  10
-204.932188
  20
-29.756140
  0
VERTEX
  8
1
  10
-201.279281
  20
-27.110462
  0
VERTEX
  8
1
  10
-197.764067
  20
-24.256535
  0
VERTEX
  8
1
  10
-194.500325
  20
-21.289611
  0
VERTEX
  8
1
  10
-191.490180
  20
-18.228093
  0
VERTEX
  8
1
  10
-188.646423
  20
-14.983859
  0
VERTEX
  8
1
  10
-185.967908
  20
-11.547514
  0
VERTEX
  8
1
  10
-183.409220
  20
-7.861070
  0
VERTEX
  8
1
  10
-180.888829
  20
-3.779830
  0
VERTEX
  8
1
  10
-178.483046
  20
0.599165
  0
VERTEX
  8
1
  10
-176.112975
  20
5.445145
  0
VERTEX
  8
1
  10
-173.738882
  20
10.890551
  0
VERTEX
  8
1
  10
-171.304482
  20
17.126614
  0
VERTEX
  8
1
  10
-168.658065
  20
24.639510
  0
VERTEX
  8
1
  10
-165.820013
  20
33.442468
  0
VERTEX
  8
1
  10
-163.235408
  20
42.249536
  0
VERTEX
  8
1
  10
-160.618601
  20
52.123201
  0
VERTEX
  8
1
  10
-157.896933
  20
63.358565
  0
VERTEX
  8
1
  10
-146.103793
  20
58.000277
  0
VERTEX
  8
1
  10
-137.407315
  20
54.306804
  0
VERTEX
  8
1
  10
-123.549916
  20
48.793240
  0
VERTEX
  8
1
  10
-111.081418
  20
43.806402
  0
VERTEX
  8
1
  10
-103.233456
  20
40.432774
  0
VERTEX
  8
1
  10
-96.158167
  20
37.124037
  0
VERTEX
  8
1
  10
-88.529787
  20
33.272608
  0
VERTEX
  8
1
  10
-80.588584
  20
29.010191
  0
VERTEX
  8
1
  10
-84.437295
  20
17.661991
  0
VERTEX
  8
1
  10
-87.757034
  20
7.102239
  0
VERTEX
  8
1
  10
-90.402808
  20
-2.076761
  0
VERTEX
  8
1
  10
-92.529975
  20
-10.306266
  0
VERTEX
  8
1
  10
-94.330898
  20
-18.224223
  0
VERTEX
  8
1
  10
-95.770656
  20
-25.602234
  0
VERTEX
  8
1
  10
-96.875636
  20
-32.491820
  0
VERTEX
  8
1
  10
-97.678973
  20
-38.998687
  0
VERTEX
  8
1
  10
-98.216921
  20
-45.319746
  0
VERTEX
  8
1
  10
-98.494696
  20
-51.463680
  0
VERTEX
  8
1
  10
-98.517999
  20
-57.427169
  0
VERTEX
  8
1
  10
-98.294502
  20
-63.193607
  0
VERTEX
  8
1
  10
-97.832023
  20
-68.757346
  0
VERTEX
  8
1
  10
-97.151842
  20
-74.027304
  0
VERTEX
  8
1
  10
-96.255265
  20
-79.097462
  0
VERTEX
  8
1
  10
-95.752993
  20
-81.446739
  0
VERTEX
  8
1
  10
-95.144991
  20
-83.982732
  0
VERTEX
  8
1
  10
-93.839249
  20
-88.637029
  0
VERTEX
  8
1
  10
-92.339630
  20
-93.087938
  0
VERTEX
  8
1
  10
-90.633491
  20
-97.382138
  0
VERTEX
  8
1
  10
-88.748167
  20
-101.461891
  0
VERTEX
  8
1
  10
-86.713632
  20
-105.290843
  0
VERTEX
  8
1
  10
-84.509181
  20
-108.925694
  0
VERTEX
  8
1
  10
-82.169689
  20
-112.319188
  0
VERTEX
  8
1
  10
-79.676545
  20
-115.505947
  0
VERTEX
  8
1
  10
-77.076789
  20
-118.434183
  0
VERTEX
  8
1
  10
-74.386704
  20
-121.102086
  0
VERTEX
  8
1
  10
-71.514909
  20
-123.599466
  0
VERTEX
  8
1
  10
-68.554857
  20
-125.851118
  0
VERTEX
  8
1
  10
-65.389239
  20
-127.947297
  0
VERTEX
  8
1
  10
-62.093046
  20
-129.826935
  0
VERTEX
  8
1
  10
-58.799691
  20
-131.424901
  0
VERTEX
  8
1
  10
-55.418416
  20
-132.796217
  0
VERTEX
  8
1
  10
-51.346949
  20
-134.162103
  0
VERTEX
  8
1
  10
-47.051991
  20
-135.338230
  0
VERTEX
  8
1
  10
-44.017844
  20
-136.042299
  0
VERTEX
  8
1
  10
-45.102880
  20
-151.750891
  0
VERTEX
  8
1
  10
-46.306417
  20
-165.493939
  0
VERTEX
  8
1
  10
-47.603294
  20
-177.554030
  0
VERTEX
  8
1
  10
-49.442660
  20
-191.901006
  0
VERTEX
  8
1
  10
-51.483530
  20
-206.978564
  0
VERTEX
  8
1
  10
-53.401883
  20
-221.979104
  0
VERTEX
  8
1
  10
-55.147405
  20
-237.021614
  0
VERTEX
  8
1
  10
-56.020364
  20
-245.359713
  0
VERTEX
  8
1
  10
-56.662954
  20
-252.069648
  0
VERTEX
  8
1
  10
-57.735492
  20
-265.177181
  0
VERTEX
  8
1
  10
-58.476714
  20
-277.346238
  0
VERTEX
  8
1
  10
-58.908575
  20
-288.518580
  0
VERTEX
  8
1
  10
-59.079321
  20
-299.696683
  0
VERTEX
  8
1
  10
-58.984279
  20
-310.097706
  0
VERTEX
  8
1
  10
-58.595311
  20
-321.925382
  0
VERTEX
  8
1
  10
-57.838777
  20
-336.373080
  0
VERTEX
  8
1
  10
-56.890274
  20
-351.469370
  0
VERTEX
  8
1
  10
-56.544916
  20
-356.775229
  0
VERTEX
  8
1
  10
-55.901768
  20
-366.560322
  0
VERTEX
  8
1
  10
-54.914031
  20
-381.649302
  0
VERTEX
  8
1
  10
-53.950164
  20
-396.930760
  0
VERTEX
  8
1
  10
-53.048826
  20
-412.024658
  0
VERTEX
  8
1
  10
-52.194584
  20
-427.122461
  0
VERTEX
  8
1
  10
-51.383801
  20
-442.224642
  0
VERTEX
  8
1
  10
-50.606781
  20
-457.468344
  0
VERTEX
  8
1
  10
-49.914845
  20
-472.580157
  0
VERTEX
  8
1
  10
-49.398341
  20
-487.695780
  0
VERTEX
  8
1
  10
-49.171421
  20
-500.842117
  0
VERTEX
  8
1
  10
-49.200593
  20
-512.953749
  0
VERTEX
  8
1
  10
-49.462638
  20
-526.569795
  0
VERTEX
  8
1
  10
-66.598853
  20
-527.057179
  0
VERTEX
  8
1
  10
-82.769945
  20
-527.583912
  0
VERTEX
  8
1
  10
-98.364275
  20
-528.159012
  0
VERTEX
  8
1
  10
-114.027770
  20
-528.820158
  0
VERTEX
  8
1
  10
-130.108941
  20
-529.564700
  0
VERTEX
  8
1
  10
-146.189480
  20
-530.321574
  0
VERTEX
  8
1
  10
-162.271349
  20
-531.035474
  0
VERTEX
  8
1
  10
-178.222744
  20
-531.647862
  0
VERTEX
  8
1
  10
-194.074585
  20
-532.145288
  0
VERTEX
  8
1
  10
-209.235904
  20
-532.533607
  0
VERTEX
  8
1
  10
-224.426638
  20
-532.848057
  0
VERTEX
  8
1
  10
-239.564541
  20
-533.092852
  0
VERTEX
  8
1
  10
-254.490544
  20
-533.265417
  0
SEQEND
  8
1
  0
POINT
  8
2
 10
-259.063773
 20
-533.300447
  0
TEXT
  8
2
 10
-259.063773
 20
-533.300447
 40
0.000000
 50
0.000000
  1
# 1
  0
POINT
  8
2
 10
-468.664908
 20
-526.569795
  0
TEXT
  8
2
 10
-468.664908
 20
-526.569795
 40
0.000000
 50
0.000000
  1
# 2
  0
POINT
  8
2
 10
-474.109091
 20
-136.044740
  0
TEXT
  8
2
 10
-474.109091
 20
-136.044740
 40
0.000000
 50
0.000000
  1
# 3
  0
POINT
  8
2
 10
-437.538962
 20
29.010191
  0
TEXT
  8
2
 10
-437.538962
 20
29.010191
 40
0.000000
 50
0.000000
  1
# 4
  0
POINT
  8
2
 10
-360.228629
 20
63.364363
  0
TEXT
  8
2
 10
-360.228629
 20
63.364363
 40
0.000000
 50
0.000000
  1
# 5
  0
POINT
  8
2
 10
-259.063773
 20
-46.185121
  0
TEXT
  8
2
 10
-259.063773
 20
-46.185121
 40
0.000000
 50
0.000000
  1
# 6
  0
POINT
  8
2
 10
-157.896933
 20
63.358565
  0
TEXT
  8
2
 10
-157.896933
 20
63.358565
 40
0.000000
 50
0.000000
  1
# 7
  0
POINT
  8
2
 10
-80.588584
 20
29.010191
  0
TEXT
  8
2
 10
-80.588584
 20
29.010191
 40
0.000000
 50
0.000000
  1
# 8
  0
POINT
  8
2
 10
-44.017844
 20
-136.042299
  0
TEXT
  8
2
 10
-44.017844
 20
-136.042299
 40
0.000000
 50
0.000000
  1
# 9
  0
POINT
  8
2
 10
-49.462638
 20
-526.569795
  0
TEXT
  8
2
 10
-49.462638
 20
-526.569795
 40
0.000000
 50
0.000000
  1
# 10
  0
POINT
  8
3
 10
-263.637002
 20
-533.265417
  0
POINT
  8
3
 10
-278.563004
 20
-533.092852
  0
POINT
  8
3
 10
-293.700908
 20
-532.848057
  0
POINT
  8
3
 10
-308.891642
 20
-532.533607
  0
POINT
  8
3
 10
-324.052961
 20
-532.145288
  0
POINT
  8
3
 10
-339.904802
 20
-531.647862
  0
POINT
  8
3
 10
-355.856197
 20
-531.035474
  0
POINT
  8
3
 10
-371.938065
 20
-530.321574
  0
POINT
  8
3
 10
-388.018605
 20
-529.564700
  0
POINT
  8
3
 10
-404.099776
 20
-528.820158
  0
POINT
  8
3
 10
-419.763271
 20
-528.159012
  0
POINT
  8
3
 10
-435.357601
 20
-527.583912
  0
POINT
  8
3
 10
-451.528692
 20
-527.057179
  0
POINT
  8
3
 10
-468.926953
 20
-512.953749
  0
POINT
  8
3
 10
-468.956124
 20
-500.842117
  0
POINT
  8
3
 10
-468.729205
 20
-487.695780
  0
POINT
  8
3
 10
-468.212700
 20
-472.580157
  0
POINT
  8
3
 10
-467.520765
 20
-457.468344
  0
POINT
  8
3
 10
-466.743745
 20
-442.224642
  0
POINT
  8
3
 10
-465.932962
 20
-427.122461
  0
POINT
  8
3
 10
-465.078720
 20
-412.024658
  0
POINT
  8
3
 10
-464.177382
 20
-396.930760
  0
POINT
  8
3
 10
-463.213515
 20
-381.649302
  0
POINT
  8
3
 10
-462.225777
 20
-366.560322
  0
POINT
  8
3
 10
-461.582630
 20
-356.775229
  0
POINT
  8
3
 10
-461.237272
 20
-351.469370
  0
POINT
  8
3
 10
-460.288768
 20
-336.373080
  0
POINT
  8
3
 10
-459.532235
 20
-321.925382
  0
POINT
  8
3
 10
-459.143267
 20
-310.097706
  0
POINT
  8
3
 10
-459.048224
 20
-299.696683
  0
POINT
  8
3
 10
-459.218971
 20
-288.518580
  0
POINT
  8
3
 10
-459.650832
 20
-277.346238
  0
POINT
  8
3
 10
-460.392053
 20
-265.177181
  0
POINT
  8
3
 10
-461.464591
 20
-252.069648
  0
POINT
  8
3
 10
-462.107182
 20
-245.359713
  0
POINT
  8
3
 10
-462.980141
 20
-237.021614
  0
POINT
  8
3
 10
-464.725663
 20
-221.979104
  0
POINT
  8
3
 10
-466.644016
 20
-206.978564
  0
POINT
  8
3
 10
-468.684886
 20
-191.901006
  0
POINT
  8
3
 10
-470.524252
 20
-177.554030
  0
POINT
  8
3
 10
-471.821128
 20
-165.493939
  0
POINT
  8
3
 10
-473.024666
 20
-151.750891
  0
POINT
  8
3
 10
-471.075555
 20
-135.338230
  0
POINT
  8
3
 10
-466.780597
 20
-134.162103
  0
POINT
  8
3
 10
-462.709130
 20
-132.796217
  0
POINT
  8
3
 10
-459.327855
 20
-131.424901
  0
POINT
  8
3
 10
-456.034500
 20
-129.826935
  0
POINT
  8
3
 10
-452.738306
 20
-127.947297
  0
POINT
  8
3
 10
-449.572688
 20
-125.851118
  0
POINT
  8
3
 10
-446.612637
 20
-123.599466
  0
POINT
  8
3
 10
-443.740841
 20
-121.102086
  0
POINT
  8
3
 10
-441.050756
 20
-118.434183
  0
POINT
  8
3
 10
-438.451001
 20
-115.505947
  0
POINT
  8
3
 10
-435.957856
 20
-112.319188
  0
POINT
  8
3
 10
-433.618364
 20
-108.925694
  0
POINT
  8
3
 10
-431.413914
 20
-105.290843
  0
POINT
  8
3
 10
-429.379379
 20
-101.461891
  0
POINT
  8
3
 10
-427.494055
 20
-97.382138
  0
POINT
  8
3
 10
-425.787915
 20
-93.087938
  0
POINT
  8
3
 10
-424.288297
 20
-88.637029
  0
POINT
  8
3
 10
-422.982555
 20
-83.982732
  0
POINT
  8
3
 10
-422.374553
 20
-81.446739
  0
POINT
  8
3
 10
-421.872281
 20
-79.097462
  0
POINT
  8
3
 10
-420.975704
 20
-74.027304
  0
POINT
  8
3
 10
-420.295523
 20
-68.757346
  0
POINT
  8
3
 10
-419.833044
 20
-63.193607
  0
POINT
  8
3
 10
-419.609546
 20
-57.427169
  0
POINT
  8
3
 10
-419.632850
 20
-51.463680
  0
POINT
  8
3
 10
-419.910625
 20
-45.319746
  0
POINT
  8
3
 10
-420.448573
 20
-38.998687
  0
POINT
  8
3
 10
-421.251909
 20
-32.491820
  0
POINT
  8
3
 10
-422.356889
 20
-25.602234
  0
POINT
  8
3
 10
-423.796647
 20
-18.224223
  0
POINT
  8
3
 10
-425.597571
 20
-10.306266
  0
POINT
  8
3
 10
-427.724738
 20
-2.076761
  0
POINT
  8
3
 10
-430.370511
 20
7.102239
  0
POINT
  8
3
 10
-433.690251
 20
17.661991
  0
POINT
  8
3
 10
-429.597758
 20
33.272608
  0
POINT
  8
3
 10
-421.969379
 20
37.124037
  0
POINT
  8
3
 10
-414.894090
 20
40.432774
  0
POINT
  8
3
 10
-407.046128
 20
43.806402
  0
POINT
  8
3
 10
-394.577630
 20
48.793240
  0
POINT
  8
3
 10
-380.720230
 20
54.306804
  0
POINT
  8
3
 10
-372.023752
 20
58.000277
  0
POINT
  8
3
 10
-357.508945
 20
52.123201
  0
POINT
  8
3
 10
-354.892138
 20
42.249536
  0
POINT
  8
3
 10
-352.307533
 20
33.442468
  0
POINT
  8
3
 10
-349.469481
 20
24.639510
  0
POINT
  8
3
 10
-346.823064
 20
17.126614
  0
POINT
  8
3
 10
-344.388664
 20
10.890551
  0
POINT
  8
3
 10
-342.014571
 20
5.445145
  0
POINT
  8
3
 10
-339.644499
 20
0.599165
  0
POINT
  8
3
 10
-337.238717
 20
-3.779830
  0
POINT
  8
3
 10
-334.718326
 20
-7.861070
  0
POINT
  8
3
 10
-332.159638
 20
-11.547514
  0
POINT
  8
3
 10
-329.481122
 20
-14.983859
  0
POINT
  8
3
 10
-326.637366
 20
-18.228093
  0
POINT
  8
3
 10
-323.627221
 20
-21.289611
  0
POINT
  8
3
 10
-320.363479
 20
-24.256535
  0
POINT
  8
3
 10
-316.848265
 20
-27.110462
  0
POINT
  8
3
 10
-313.195357
 20
-29.756140
  0
POINT
  8
3
 10
-309.303661
 20
-32.263013
  0
POINT
  8
3
 10
-305.281362
 20
-34.554026
  0
POINT
  8
3
 10
-301.113819
 20
-36.636609
  0
POINT
  8
3
 10
-296.861499
 20
-38.479439
  0
POINT
  8
3
 10
-292.502630
 20
-40.095850
  0
POINT
  8
3
 10
-287.809422
 20
-41.567460
  0
POINT
  8
3
 10
-282.736840
 20
-42.891334
  0
POINT
  8
3
 10
-277.455220
 20
-44.022599
  0
POINT
  8
3
 10
-272.262500
 20
-44.891742
  0
POINT
  8
3
 10
-266.305500
 20
-45.607818
  0
POINT
  8
3
 10
-259.063773
 20
-46.185121
  0
POINT
  8
3
 10
-251.822046
 20
-45.607818
  0
POINT
  8
3
 10
-245.865046
 20
-44.891742
  0
POINT
  8
3
 10
-240.672325
 20
-44.022599
  0
POINT
  8
3
 10
-235.390706
 20
-42.891334
  0
POINT
  8
3
 10
-230.318123
 20
-41.567460
  0
POINT
  8
3
 10
-225.624915
 20
-40.095850
  0
POINT
  8
3
 10
-221.266047
 20
-38.479439
  0
POINT
  8
3
 10
-217.013726
 20
-36.636609
  0
POINT
  8
3
 10
-212.846184
 20
-34.554026
  0
POINT
  8
3
 10
-208.823884
 20
-32.263013
  0
POINT
  8
3
 10
-204.932188
 20
-29.756140
  0
POINT
  8
3
 10
-201.279281
 20
-27.110462
  0
POINT
  8
3
 10
-197.764067
 20
-24.256535
  0
POINT
  8
3
 10
-194.500325
 20
-21.289611
  0
POINT
  8
3
 10
-191.490180
 20
-18.228093
  0
POINT
  8
3
 10
-188.646423
 20
-14.983859
  0
POINT
  8
3
 10
-185.967908
 20
-11.547514
  0
POINT
  8
3
 10
-183.409220
 20
-7.861070
  0
POINT
  8
3
 10
-180.888829
 20
-3.779830
  0
POINT
  8
3
 10
-178.483046
 20
0.599165
  0
POINT
  8
3
 10
-176.112975
 20
5.445145
  0
POINT
  8
3
 10
-173.738882
 20
10.890551
  0
POINT
  8
3
 10
-171.304482
 20
17.126614
  0
POINT
  8
3
 10
-168.658065
 20
24.639510
  0
POINT
  8
3
 10
-165.820013
 20
33.442468
  0
POINT
  8
3
 10
-163.235408
 20
42.249536
  0
POINT
  8
3
 10
-160.618601
 20
52.123201
  0
POINT
  8
3
 10
-146.103793
 20
58.000277
  0
POINT
  8
3
 10
-137.407315
 20
54.306804
  0
POINT
  8
3
 10
-123.549916
 20
48.793240
  0
POINT
  8
3
 10
-111.081418
 20
43.806402
  0
POINT
  8
3
 10
-103.233456
 20
40.432774
  0
POINT
  8
3
 10
-96.158167
 20
37.124037
  0
POINT
  8
3
 10
-88.529787
 20
33.272608
  0
POINT
  8
3
 10
-84.437295
 20
17.661991
  0
POINT
  8
3
 10
-87.757034
 20
7.102239
  0
POINT
  8
3
 10
-90.402808
 20
-2.076761
  0
POINT
  8
3
 10
-92.529975
 20
-10.306266
  0
POINT
  8
3
 10
-94.330898
 20
-18.224223
  0
POINT
  8
3
 10
-95.770656
 20
-25.602234
  0
POINT
  8
3
 10
-96.875636
 20
-32.491820
  0
POINT
  8
3
 10
-97.678973
 20
-38.998687
  0
POINT
  8
3
 10
-98.216921
 20
-45.319746
  0
POINT
  8
3
 10
-98.494696
 20
-51.463680
  0
POINT
  8
3
 10
-98.517999
 20
-57.427169
  0
POINT
  8
3
 10
-98.294502
 20
-63.193607
  0
POINT
  8
3
 10
-97.832023
 20
-68.757346
  0
POINT
  8
3
 10
-97.151842
 20
-74.027304
  0
POINT
  8
3
 10
-96.255265
 20
-79.097462
  0
POINT
  8
3
 10
-95.752993
 20
-81.446739
  0
POINT
  8
3
 10
-95.144991
 20
-83.982732
  0
POINT
  8
3
 10
-93.839249
 20
-88.637029
  0
POINT
  8
3
 10
-92.339630
 20
-93.087938
  0
POINT
  8
3
 10
-90.633491
 20
-97.382138
  0
POINT
  8
3
 10
-88.748167
 20
-101.461891
  0
POINT
  8
3
 10
-86.713632
 20
-105.290843
  0
POINT
  8
3
 10
-84.509181
 20
-108.925694
  0
POINT
  8
3
 10
-82.169689
 20
-112.319188
  0
POINT
  8
3
 10
-79.676545
 20
-115.505947
  0
POINT
  8
3
 10
-77.076789
 20
-118.434183
  0
POINT
  8
3
 10
-74.386704
 20
-121.102086
  0
POINT
  8
3
 10
-71.514909
 20
-123.599466
  0
POINT
  8
3
 10
-68.554857
 20
-125.851118
  0
POINT
  8
3
 10
-65.389239
 20
-127.947297
  0
POINT
  8
3
 10
-62.093046
 20
-129.826935
  0
POINT
  8
3
 10
-58.799691
 20
-131.424901
  0
POINT
  8
3
 10
-55.418416
 20
-132.796217
  0
POINT
  8
3
 10
-51.346949
 20
-134.162103
  0
POINT
  8
3
 10
-47.051991
 20
-135.338230
  0
POINT
  8
3
 10
-45.102880
 20
-151.750891
  0
POINT
  8
3
 10
-46.306417
 20
-165.493939
  0
POINT
  8
3
 10
-47.603294
 20
-177.554030
  0
POINT
  8
3
 10
-49.442660
 20
-191.901006
  0
POINT
  8
3
 10
-51.483530
 20
-206.978564
  0
POINT
  8
3
 10
-53.401883
 20
-221.979104
  0
POINT
  8
3
 10
-55.147405
 20
-237.021614
  0
POINT
  8
3
 10
-56.020364
 20
-245.359713
  0
POINT
  8
3
 10
-56.662954
 20
-252.069648
  0
POINT
  8
3
 10
-57.735492
 20
-265.177181
  0
POINT
  8
3
 10
-58.476714
 20
-277.346238
  0
POINT
  8
3
 10
-58.908575
 20
-288.518580
  0
POINT
  8
3
 10
-59.079321
 20
-299.696683
  0
POINT
  8
3
 10
-58.984279
 20
-310.097706
  0
POINT
  8
3
 10
-58.595311
 20
-321.925382
  0
POINT
  8
3
 10
-57.838777
 20
-336.373080
  0
POINT
  8
3
 10
-56.890274
 20
-351.469370
  0
POINT
  8
3
 10
-56.544916
 20
-356.775229
  0
POINT
  8
3
 10
-55.901768
 20
-366.560322
  0
POINT
  8
3
 10
-54.914031
 20
-381.649302
  0
POINT
  8
3
 10
-53.950164
 20
-396.930760
  0
POINT
  8
3
 10
-53.048826
 20
-412.024658
  0
POINT
  8
3
 10
-52.194584
 20
-427.122461
  0
POINT
  8
3
 10
-51.383801
 20
-442.224642
  0
POINT
  8
3
 10
-50.606781
 20
-457.468344
  0
POINT
  8
3
 10
-49.914845
 20
-472.580157
  0
POINT
  8
3
 10
-49.398341
 20
-487.695780
  0
POINT
  8
3
 10
-49.171421
 20
-500.842117
  0
POINT
  8
3
 10
-49.200593
 20
-512.953749
  0
POINT
  8
3
 10
-66.598853
 20
-527.057179
  0
POINT
  8
3
 10
-82.769945
 20
-527.583912
  0
POINT
  8
3
 10
-98.364275
 20
-528.159012
  0
POINT
  8
3
 10
-114.027770
 20
-528.820158
  0
POINT
  8
3
 10
-130.108941
 20
-529.564700
  0
POINT
  8
3
 10
-146.189480
 20
-530.321574
  0
POINT
  8
3
 10
-162.271349
 20
-531.035474
  0
POINT
  8
3
 10
-178.222744
 20
-531.647862
  0
POINT
  8
3
 10
-194.074585
 20
-532.145288
  0
POINT
  8
3
 10
-209.235904
 20
-532.533607
  0
POINT
  8
3
 10
-224.426638
 20
-532.848057
  0
POINT
  8
3
 10
-239.564541
 20
-533.092852
  0
POINT
  8
3
 10
-254.490544
 20
-533.265417
  0
POINT
  8
4
 10
-461.582630
 20
-356.775229
  0
TEXT
  8
4
 10
-461.582630
 20
-356.775229
 40
0.000000
 50
0.000000
  1
# 11
  0
POINT
  8
4
 10
-462.107182
 20
-245.359713
  0
TEXT
  8
4
 10
-462.107182
 20
-245.359713
 40
0.000000
 50
0.000000
  1
# 12
  0
POINT
  8
4
 10
-422.374553
 20
-81.446739
  0
TEXT
  8
4
 10
-422.374553
 20
-81.446739
 40
0.000000
 50
0.000000
  1
# 13
  0
POINT
  8
4
 10
-259.063773
 20
-46.185121
  0
TEXT
  8
4
 10
-259.063773
 20
-46.185121
 40
0.000000
 50
0.000000
  1
# 14
  0
POINT
  8
4
 10
-95.752993
 20
-81.446739
  0
TEXT
  8
4
 10
-95.752993
 20
-81.446739
 40
0.000000
 50
0.000000
  1
# 15
  0
POINT
  8
4
 10
-56.020364
 20
-245.359713
  0
TEXT
  8
4
 10
-56.020364
 20
-245.359713
 40
0.000000
 50
0.000000
  1
# 16
  0
POINT
  8
4
 10
-56.544916
 20
-356.775229
  0
TEXT
  8
4
 10
-56.544916
 20
-356.775229
 40
0.000000
 50
0.000000
  1
# 17
 0
LINE
 8
7
 10
-196.883445
 20
-454.911775
 11
-196.883445
 21
-94.323015
  0
TEXT
  8
1
 10
-259.063773
 20
-240.013590
 40
10.000000
 50
0.000000
  1
Piece Name: 前片
  0
TEXT
  8
1
 10
-259.063773
 20
-225.013590
 40
10.000000
 50
0.000000
  1
Size: M
  0
TEXT
  8
1
 10
-259.063773
 20
-210.013590
 40
10.000000
 50
0.000000
  1
Annotation: 
  0
TEXT
  8
1
 10
-259.063773
 20
-195.013590
 40
10.000000
 50
0.000000
  1
Quantity: 1
  0
TEXT
  8
1
 10
-259.063773
 20
-180.013590
 40
10.000000
 50
0.000000
  1
Category: 0
0
ENDBLK
0
BLOCK
  8
1
  2
后片-M
 70
0
 10
0.0
 20
0.0
  0
POLYLINE
  8
1
  66
1
  70
1
  0
VERTEX
  8
1
  10
75.535836
  20
-514.996767
  0
VERTEX
  8
1
  10
76.026334
  20
-500.128852
  0
VERTEX
  8
1
  10
76.621388
  20
-485.110100
  0
VERTEX
  8
1
  10
77.377703
  20
-469.533851
  0
VERTEX
  8
1
  10
78.311490
  20
-454.029745
  0
VERTEX
  8
1
  10
79.447596
  20
-438.539298
  0
VERTEX
  8
1
  10
80.807526
  20
-423.067709
  0
VERTEX
  8
1
  10
82.410992
  20
-407.635960
  0
VERTEX
  8
1
  10
84.255585
  20
-392.214574
  0
VERTEX
  8
1
  10
86.252037
  20
-376.812208
  0
VERTEX
  8
1
  10
88.297147
  20
-361.419962
  0
VERTEX
  8
1
  10
90.248243
  20
-346.377944
  0
VERTEX
  8
1
  10
90.327554
  20
-345.752055
  0
VERTEX
  8
1
  10
92.154641
  20
-330.967279
  0
VERTEX
  8
1
  10
93.925436
  20
-315.692984
  0
VERTEX
  8
1
  10
94.919970
  20
-305.366807
  0
VERTEX
  8
1
  10
95.473042
  20
-297.245123
  0
VERTEX
  8
1
  10
95.733001
  20
-289.858581
  0
VERTEX
  8
1
  10
95.703943
  20
-282.471622
  0
VERTEX
  8
1
  10
95.443957
  20
-276.557921
  0
VERTEX
  8
1
  10
94.850092
  20
-269.183382
  0
VERTEX
  8
1
  10
93.910615
  20
-261.095363
  0
VERTEX
  8
1
  10
92.549114
  20
-251.856500
  0
VERTEX
  8
1
  10
90.942799
  20
-242.486763
  0
VERTEX
  8
1
  10
90.526745
  20
-240.198921
  0
VERTEX
  8
1
  10
87.516664
  20
-224.209958
  0
VERTEX
  8
1
  10
84.829199
  20
-209.617004
  0
VERTEX
  8
1
  10
82.079120
  20
-194.333525
  0
VERTEX
  8
1
  10
79.399601
  20
-179.556689
  0
VERTEX
  8
1
  10
76.621752
  20
-164.650099
  0
VERTEX
  8
1
  10
73.768212
  20
-149.681303
  0
VERTEX
  8
1
  10
70.786081
  20
-134.351320
  0
VERTEX
  8
1
  10
75.585290
  20
-132.650524
  0
VERTEX
  8
1
  10
80.086617
  20
-130.721385
  0
VERTEX
  8
1
  10
83.954476
  20
-128.757033
  0
VERTEX
  8
1
  10
87.493311
  20
-126.607746
  0
VERTEX
  8
1
  10
90.631150
  20
-124.330782
  0
VERTEX
  8
1
  10
93.588332
  20
-121.810102
  0
VERTEX
  8
1
  10
96.341642
  20
-119.067590
  0
VERTEX
  8
1
  10
98.815605
  20
-116.191012
  0
VERTEX
  8
1
  10
101.108686
  20
-113.074921
  0
VERTEX
  8
1
  10
103.179498
  20
-109.805709
  0
VERTEX
  8
1
  10
105.341577
  20
-105.831340
  0
VERTEX
  8
1
  10
107.260931
  20
-101.722032
  0
VERTEX
  8
1
  10
109.100216
  20
-97.173062
  0
VERTEX
  8
1
  10
111.014778
  20
-91.675193
  0
VERTEX
  8
1
  10
112.655233
  20
-86.100230
  0
VERTEX
  8
1
  10
114.037921
  20
-80.458028
  0
VERTEX
  8
1
  10
115.291799
  20
-74.122043
  0
VERTEX
  8
1
  10
116.270037
  20
-67.728737
  0
VERTEX
  8
1
  10
116.995052
  20
-61.291628
  0
VERTEX
  8
1
  10
117.526849
  20
-54.176355
  0
VERTEX
  8
1
  10
117.549156
  20
-53.773880
  0
VERTEX
  8
1
  10
117.823535
  20
-46.393597
  0
VERTEX
  8
1
  10
117.856725
  20
-38.188307
  0
VERTEX
  8
1
  10
117.615113
  20
-29.777886
  0
VERTEX
  8
1
  10
117.094115
  20
-21.395481
  0
VERTEX
  8
1
  10
116.364238
  20
-13.689506
  0
VERTEX
  8
1
  10
115.394446
  20
-6.020221
  0
VERTEX
  8
1
  10
114.183848
  20
1.606222
  0
VERTEX
  8
1
  10
112.731552
  20
9.183671
  0
VERTEX
  8
1
  10
110.966746
  20
17.013727
  0
VERTEX
  8
1
  10
108.775656
  20
25.530879
  0
VERTEX
  8
1
  10
106.158288
  20
34.657430
  0
VERTEX
  8
1
  10
103.160536
  20
44.182930
  0
VERTEX
  8
1
  10
100.044642
  20
53.298791
  0
VERTEX
  8
1
  10
98.155465
  20
58.451796
  0
VERTEX
  8
1
  10
113.440788
  20
63.036467
  0
VERTEX
  8
1
  10
127.925946
  20
67.577306
  0
VERTEX
  8
1
  10
142.606126
  20
72.432054
  0
VERTEX
  8
1
  10
157.131795
  20
77.417692
  0
VERTEX
  8
1
  10
171.478705
  20
82.422434
  0
VERTEX
  8
1
  10
182.873483
  20
86.430464
  0
VERTEX
  8
1
  10
187.600650
  20
80.260961
  0
VERTEX
  8
1
  10
191.249815
  20
75.881670
  0
VERTEX
  8
1
  10
194.291407
  20
72.589128
  0
VERTEX
  8
1
  10
197.313108
  20
69.679606
  0
VERTEX
  8
1
  10
200.337584
  20
67.111292
  0
VERTEX
  8
1
  10
203.447734
  20
64.795754
  0
VERTEX
  8
1
  10
206.632637
  20
62.740178
  0
VERTEX
  8
1
  10
209.777843
  20
61.003723
  0
VERTEX
  8
1
  10
213.137299
  20
59.439077
  0
VERTEX
  8
1
  10
216.692495
  20
58.061639
  0
VERTEX
  8
1
  10
220.629121
  20
56.813558
  0
VERTEX
  8
1
  10
224.893876
  20
55.731673
  0
VERTEX
  8
1
  10
229.650752
  20
54.789485
  0
VERTEX
  8
1
  10
234.816720
  20
54.023718
  0
VERTEX
  8
1
  10
240.665342
  20
53.415837
  0
VERTEX
  8
1
  10
247.629973
  20
52.961104
  0
VERTEX
  8
1
  10
256.295594
  20
52.675514
  0
VERTEX
  8
1
  10
271.322792
  20
52.510919
  0
VERTEX
  8
1
  10
285.786081
  20
52.486740
  0
VERTEX
  8
1
  10
285.748544
  20
52.486677
  0
VERTEX
  8
1
  10
300.249369
  20
52.510919
  0
VERTEX
  8
1
  10
315.276567
  20
52.675514
  0
VERTEX
  8
1
  10
323.942189
  20
52.961104
  0
VERTEX
  8
1
  10
330.906819
  20
53.415837
  0
VERTEX
  8
1
  10
336.755441
  20
54.023718
  0
VERTEX
  8
1
  10
341.921409
  20
54.789485
  0
VERTEX
  8
1
  10
346.678285
  20
55.731673
  0
VERTEX
  8
1
  10
350.943040
  20
56.813558
  0
VERTEX
  8
1
  10
354.879666
  20
58.061639
  0
VERTEX
  8
1
  10
358.434863
  20
59.439077
  0
VERTEX
  8
1
  10
361.794318
  20
61.003723
  0
VERTEX
  8
1
  10
364.939525
  20
62.740178
  0
VERTEX
  8
1
  10
368.124428
  20
64.795754
  0
VERTEX
  8
1
  10
371.234577
  20
67.111292
  0
VERTEX
  8
1
  10
374.259053
  20
69.679606
  0
VERTEX
  8
1
  10
377.280754
  20
72.589128
  0
VERTEX
  8
1
  10
380.322346
  20
75.881670
  0
VERTEX
  8
1
  10
383.971512
  20
80.260961
  0
VERTEX
  8
1
  10
388.694711
  20
86.431761
  0
VERTEX
  8
1
  10
400.093456
  20
82.422434
  0
VERTEX
  8
1
  10
414.440366
  20
77.417692
  0
VERTEX
  8
1
  10
428.966036
  20
72.432054
  0
VERTEX
  8
1
  10
443.646215
  20
67.577306
  0
VERTEX
  8
1
  10
458.131373
  20
63.036467
  0
VERTEX
  8
1
  10
473.416696
  20
58.451796
  0
VERTEX
  8
1
  10
471.527520
  20
53.298791
  0
VERTEX
  8
1
  10
468.411625
  20
44.182930
  0
VERTEX
  8
1
  10
465.413873
  20
34.657430
  0
VERTEX
  8
1
  10
462.796506
  20
25.530879
  0
VERTEX
  8
1
  10
460.605415
  20
17.013727
  0
VERTEX
  8
1
  10
458.840609
  20
9.183671
  0
VERTEX
  8
1
  10
457.388313
  20
1.606222
  0
VERTEX
  8
1
  10
456.177715
  20
-6.020221
  0
VERTEX
  8
1
  10
455.207924
  20
-13.689506
  0
VERTEX
  8
1
  10
454.478047
  20
-21.395481
  0
VERTEX
  8
1
  10
453.957049
  20
-29.777886
  0
VERTEX
  8
1
  10
453.715436
  20
-38.188307
  0
VERTEX
  8
1
  10
453.748626
  20
-46.393597
  0
VERTEX
  8
1
  10
454.023005
  20
-53.773880
  0
VERTEX
  8
1
  10
454.045312
  20
-54.176355
  0
VERTEX
  8
1
  10
454.577109
  20
-61.291628
  0
VERTEX
  8
1
  10
455.302124
  20
-67.728737
  0
VERTEX
  8
1
  10
456.280363
  20
-74.122043
  0
VERTEX
  8
1
  10
457.534240
  20
-80.458028
  0
VERTEX
  8
1
  10
458.916929
  20
-86.100230
  0
VERTEX
  8
1
  10
460.557383
  20
-91.675193
  0
VERTEX
  8
1
  10
462.471945
  20
-97.173062
  0
VERTEX
  8
1
  10
464.311230
  20
-101.722032
  0
VERTEX
  8
1
  10
466.230584
  20
-105.831340
  0
VERTEX
  8
1
  10
468.392663
  20
-109.805709
  0
VERTEX
  8
1
  10
470.463475
  20
-113.074921
  0
VERTEX
  8
1
  10
472.756557
  20
-116.191012
  0
VERTEX
  8
1
  10
475.230519
  20
-119.067590
  0
VERTEX
  8
1
  10
477.983829
  20
-121.810102
  0
VERTEX
  8
1
  10
480.941012
  20
-124.330782
  0
VERTEX
  8
1
  10
484.078850
  20
-126.607746
  0
VERTEX
  8
1
  10
487.617685
  20
-128.757033
  0
VERTEX
  8
1
  10
491.485545
  20
-130.721385
  0
VERTEX
  8
1
  10
495.986871
  20
-132.650524
  0
VERTEX
  8
1
  10
500.786081
  20
-134.351320
  0
VERTEX
  8
1
  10
497.803949
  20
-149.681303
  0
VERTEX
  8
1
  10
494.950409
  20
-164.650099
  0
VERTEX
  8
1
  10
492.172561
  20
-179.556689
  0
VERTEX
  8
1
  10
489.493042
  20
-194.333525
  0
VERTEX
  8
1
  10
486.742962
  20
-209.617004
  0
VERTEX
  8
1
  10
484.055497
  20
-224.209958
  0
VERTEX
  8
1
  10
481.045416
  20
-240.198921
  0
VERTEX
  8
1
  10
480.629362
  20
-242.486763
  0
VERTEX
  8
1
  10
479.023047
  20
-251.856500
  0
VERTEX
  8
1
  10
477.661546
  20
-261.095363
  0
VERTEX
  8
1
  10
476.722070
  20
-269.183382
  0
VERTEX
  8
1
  10
476.128205
  20
-276.557921
  0
VERTEX
  8
1
  10
475.868218
  20
-282.471622
  0
VERTEX
  8
1
  10
475.839160
  20
-289.858581
  0
VERTEX
  8
1
  10
476.099119
  20
-297.245123
  0
VERTEX
  8
1
  10
476.652191
  20
-305.366807
  0
VERTEX
  8
1
  10
477.646726
  20
-315.692984
  0
VERTEX
  8
1
  10
479.417521
  20
-330.967279
  0
VERTEX
  8
1
  10
481.244607
  20
-345.752055
  0
VERTEX
  8
1
  10
481.323918
  20
-346.377944
  0
VERTEX
  8
1
  10
483.275014
  20
-361.419962
  0
VERTEX
  8
1
  10
485.320124
  20
-376.812208
  0
VERTEX
  8
1
  10
487.316576
  20
-392.214574
  0
VERTEX
  8
1
  10
489.161169
  20
-407.635960
  0
VERTEX
  8
1
  10
490.764635
  20
-423.067709
  0
VERTEX
  8
1
  10
492.124566
  20
-438.539298
  0
VERTEX
  8
1
  10
493.260672
  20
-454.029745
  0
VERTEX
  8
1
  10
494.194458
  20
-469.533851
  0
VERTEX
  8
1
  10
494.950773
  20
-485.110100
  0
VERTEX
  8
1
  10
495.545827
  20
-500.128852
  0
VERTEX
  8
1
  10
496.036325
  20
-514.996767
  0
VERTEX
  8
1
  10
482.241219
  20
-514.899443
  0
VERTEX
  8
1
  10
466.801929
  20
-514.790519
  0
VERTEX
  8
1
  10
451.447656
  20
-514.682196
  0
VERTEX
  8
1
  10
434.091488
  20
-514.559749
  0
VERTEX
  8
1
  10
415.349393
  20
-514.427524
  0
VERTEX
  8
1
  10
395.837339
  20
-514.289867
  0
VERTEX
  8
1
  10
376.171293
  20
-514.151124
  0
VERTEX
  8
1
  10
356.967222
  20
-514.015640
  0
VERTEX
  8
1
  10
338.841095
  20
-513.887761
  0
VERTEX
  8
1
  10
322.408878
  20
-513.771832
  0
VERTEX
  8
1
  10
305.189057
  20
-513.650347
  0
VERTEX
  8
1
  10
285.786081
  20
-513.513460
  0
VERTEX
  8
1
  10
266.383104
  20
-513.650347
  0
VERTEX
  8
1
  10
249.163283
  20
-513.771832
  0
VERTEX
  8
1
  10
232.731066
  20
-513.887761
  0
VERTEX
  8
1
  10
214.604939
  20
-514.015640
  0
VERTEX
  8
1
  10
195.400869
  20
-514.151124
  0
VERTEX
  8
1
  10
175.734823
  20
-514.289867
  0
VERTEX
  8
1
  10
156.222768
  20
-514.427524
  0
VERTEX
  8
1
  10
137.480674
  20
-514.559749
  0
VERTEX
  8
1
  10
120.124506
  20
-514.682196
  0
VERTEX
  8
1
  10
104.770232
  20
-514.790519
  0
VERTEX
  8
1
  10
89.330942
  20
-514.899443
  0
SEQEND
  8
1
  0
POINT
  8
2
 10
75.535836
 20
-514.996767
  0
TEXT
  8
2
 10
75.535836
 20
-514.996767
 40
0.000000
 50
0.000000
  1
# 18
  0
POINT
  8
2
 10
70.786081
 20
-134.351320
  0
TEXT
  8
2
 10
70.786081
 20
-134.351320
 40
0.000000
 50
0.000000
  1
# 19
  0
POINT
  8
2
 10
98.155465
 20
58.451796
  0
TEXT
  8
2
 10
98.155465
 20
58.451796
 40
0.000000
 50
0.000000
  1
# 20
  0
POINT
  8
2
 10
182.873483
 20
86.430464
  0
TEXT
  8
2
 10
182.873483
 20
86.430464
 40
0.000000
 50
0.000000
  1
# 21
  0
POINT
  8
2
 10
285.748544
 20
52.486677
  0
TEXT
  8
2
 10
285.748544
 20
52.486677
 40
0.000000
 50
0.000000
  1
# 22
  0
POINT
  8
2
 10
388.694711
 20
86.431761
  0
TEXT
  8
2
 10
388.694711
 20
86.431761
 40
0.000000
 50
0.000000
  1
# 23
  0
POINT
  8
2
 10
473.416696
 20
58.451796
  0
TEXT
  8
2
 10
473.416696
 20
58.451796
 40
0.000000
 50
0.000000
  1
# 24
  0
POINT
  8
2
 10
500.786081
 20
-134.351320
  0
TEXT
  8
2
 10
500.786081
 20
-134.351320
 40
0.000000
 50
0.000000
  1
# 25
  0
POINT
  8
2
 10
496.036325
 20
-514.996767
  0
TEXT
  8
2
 10
496.036325
 20
-514.996767
 40
0.000000
 50
0.000000
  1
# 26
  0
POINT
  8
2
 10
285.786081
 20
-513.513460
  0
TEXT
  8
2
 10
285.786081
 20
-513.513460
 40
0.000000
 50
0.000000
  1
# 27
  0
POINT
  8
3
 10
76.026334
 20
-500.128852
  0
POINT
  8
3
 10
76.621388
 20
-485.110100
  0
POINT
  8
3
 10
77.377703
 20
-469.533851
  0
POINT
  8
3
 10
78.311490
 20
-454.029745
  0
POINT
  8
3
 10
79.447596
 20
-438.539298
  0
POINT
  8
3
 10
80.807526
 20
-423.067709
  0
POINT
  8
3
 10
82.410992
 20
-407.635960
  0
POINT
  8
3
 10
84.255585
 20
-392.214574
  0
POINT
  8
3
 10
86.252037
 20
-376.812208
  0
POINT
  8
3
 10
88.297147
 20
-361.419962
  0
POINT
  8
3
 10
90.248243
 20
-346.377944
  0
POINT
  8
3
 10
90.327554
 20
-345.752055
  0
POINT
  8
3
 10
92.154641
 20
-330.967279
  0
POINT
  8
3
 10
93.925436
 20
-315.692984
  0
POINT
  8
3
 10
94.919970
 20
-305.366807
  0
POINT
  8
3
 10
95.473042
 20
-297.245123
  0
POINT
  8
3
 10
95.733001
 20
-289.858581
  0
POINT
  8
3
 10
95.703943
 20
-282.471622
  0
POINT
  8
3
 10
95.443957
 20
-276.557921
  0
POINT
  8
3
 10
94.850092
 20
-269.183382
  0
POINT
  8
3
 10
93.910615
 20
-261.095363
  0
POINT
  8
3
 10
92.549114
 20
-251.856500
  0
POINT
  8
3
 10
90.942799
 20
-242.486763
  0
POINT
  8
3
 10
90.526745
 20
-240.198921
  0
POINT
  8
3
 10
87.516664
 20
-224.209958
  0
POINT
  8
3
 10
84.829199
 20
-209.617004
  0
POINT
  8
3
 10
82.079120
 20
-194.333525
  0
POINT
  8
3
 10
79.399601
 20
-179.556689
  0
POINT
  8
3
 10
76.621752
 20
-164.650099
  0
POINT
  8
3
 10
73.768212
 20
-149.681303
  0
POINT
  8
3
 10
75.585290
 20
-132.650524
  0
POINT
  8
3
 10
80.086617
 20
-130.721385
  0
POINT
  8
3
 10
83.954476
 20
-128.757033
  0
POINT
  8
3
 10
87.493311
 20
-126.607746
  0
POINT
  8
3
 10
90.631150
 20
-124.330782
  0
POINT
  8
3
 10
93.588332
 20
-121.810102
  0
POINT
  8
3
 10
96.341642
 20
-119.067590
  0
POINT
  8
3
 10
98.815605
 20
-116.191012
  0
POINT
  8
3
 10
101.108686
 20
-113.074921
  0
POINT
  8
3
 10
103.179498
 20
-109.805709
  0
POINT
  8
3
 10
105.341577
 20
-105.831340
  0
POINT
  8
3
 10
107.260931
 20
-101.722032
  0
POINT
  8
3
 10
109.100216
 20
-97.173062
  0
POINT
  8
3
 10
111.014778
 20
-91.675193
  0
POINT
  8
3
 10
112.655233
 20
-86.100230
  0
POINT
  8
3
 10
114.037921
 20
-80.458028
  0
POINT
  8
3
 10
115.291799
 20
-74.122043
  0
POINT
  8
3
 10
116.270037
 20
-67.728737
  0
POINT
  8
3
 10
116.995052
 20
-61.291628
  0
POINT
  8
3
 10
117.526849
 20
-54.176355
  0
POINT
  8
3
 10
117.549156
 20
-53.773880
  0
POINT
  8
3
 10
117.823535
 20
-46.393597
  0
POINT
  8
3
 10
117.856725
 20
-38.188307
  0
POINT
  8
3
 10
117.615113
 20
-29.777886
  0
POINT
  8
3
 10
117.094115
 20
-21.395481
  0
POINT
  8
3
 10
116.364238
 20
-13.689506
  0
POINT
  8
3
 10
115.394446
 20
-6.020221
  0
POINT
  8
3
 10
114.183848
 20
1.606222
  0
POINT
  8
3
 10
112.731552
 20
9.183671
  0
POINT
  8
3
 10
110.966746
 20
17.013727
  0
POINT
  8
3
 10
108.775656
 20
25.530879
  0
POINT
  8
3
 10
106.158288
 20
34.657430
  0
POINT
  8
3
 10
103.160536
 20
44.182930
  0
POINT
  8
3
 10
100.044642
 20
53.298791
  0
POINT
  8
3
 10
113.440788
 20
63.036467
  0
POINT
  8
3
 10
127.925946
 20
67.577306
  0
POINT
  8
3
 10
142.606126
 20
72.432054
  0
POINT
  8
3
 10
157.131795
 20
77.417692
  0
POINT
  8
3
 10
171.478705
 20
82.422434
  0
POINT
  8
3
 10
187.600650
 20
80.260961
  0
POINT
  8
3
 10
191.249815
 20
75.881670
  0
POINT
  8
3
 10
194.291407
 20
72.589128
  0
POINT
  8
3
 10
197.313108
 20
69.679606
  0
POINT
  8
3
 10
200.337584
 20
67.111292
  0
POINT
  8
3
 10
203.447734
 20
64.795754
  0
POINT
  8
3
 10
206.632637
 20
62.740178
  0
POINT
  8
3
 10
209.777843
 20
61.003723
  0
POINT
  8
3
 10
213.137299
 20
59.439077
  0
POINT
  8
3
 10
216.692495
 20
58.061639
  0
POINT
  8
3
 10
220.629121
 20
56.813558
  0
POINT
  8
3
 10
224.893876
 20
55.731673
  0
POINT
  8
3
 10
229.650752
 20
54.789485
  0
POINT
  8
3
 10
234.816720
 20
54.023718
  0
POINT
  8
3
 10
240.665342
 20
53.415837
  0
POINT
  8
3
 10
247.629973
 20
52.961104
  0
POINT
  8
3
 10
256.295594
 20
52.675514
  0
POINT
  8
3
 10
271.322792
 20
52.510919
  0
POINT
  8
3
 10
285.786081
 20
52.486740
  0
POINT
  8
3
 10
300.249369
 20
52.510919
  0
POINT
  8
3
 10
315.276567
 20
52.675514
  0
POINT
  8
3
 10
323.942189
 20
52.961104
  0
POINT
  8
3
 10
330.906819
 20
53.415837
  0
POINT
  8
3
 10
336.755441
 20
54.023718
  0
POINT
  8
3
 10
341.921409
 20
54.789485
  0
POINT
  8
3
 10
346.678285
 20
55.731673
  0
POINT
  8
3
 10
350.943040
 20
56.813558
  0
POINT
  8
3
 10
354.879666
 20
58.061639
  0
POINT
  8
3
 10
358.434863
 20
59.439077
  0
POINT
  8
3
 10
361.794318
 20
61.003723
  0
POINT
  8
3
 10
364.939525
 20
62.740178
  0
POINT
  8
3
 10
368.124428
 20
64.795754
  0
POINT
  8
3
 10
371.234577
 20
67.111292
  0
POINT
  8
3
 10
374.259053
 20
69.679606
  0
POINT
  8
3
 10
377.280754
 20
72.589128
  0
POINT
  8
3
 10
380.322346
 20
75.881670
  0
POINT
  8
3
 10
383.971512
 20
80.260961
  0
POINT
  8
3
 10
400.093456
 20
82.422434
  0
POINT
  8
3
 10
414.440366
 20
77.417692
  0
POINT
  8
3
 10
428.966036
 20
72.432054
  0
POINT
  8
3
 10
443.646215
 20
67.577306
  0
POINT
  8
3
 10
458.131373
 20
63.036467
  0
POINT
  8
3
 10
471.527520
 20
53.298791
  0
POINT
  8
3
 10
468.411625
 20
44.182930
  0
POINT
  8
3
 10
465.413873
 20
34.657430
  0
POINT
  8
3
 10
462.796506
 20
25.530879
  0
POINT
  8
3
 10
460.605415
 20
17.013727
  0
POINT
  8
3
 10
458.840609
 20
9.183671
  0
POINT
  8
3
 10
457.388313
 20
1.606222
  0
POINT
  8
3
 10
456.177715
 20
-6.020221
  0
POINT
  8
3
 10
455.207924
 20
-13.689506
  0
POINT
  8
3
 10
454.478047
 20
-21.395481
  0
POINT
  8
3
 10
453.957049
 20
-29.777886
  0
POINT
  8
3
 10
453.715436
 20
-38.188307
  0
POINT
  8
3
 10
453.748626
 20
-46.393597
  0
POINT
  8
3
 10
454.023005
 20
-53.773880
  0
POINT
  8
3
 10
454.045312
 20
-54.176355
  0
POINT
  8
3
 10
454.577109
 20
-61.291628
  0
POINT
  8
3
 10
455.302124
 20
-67.728737
  0
POINT
  8
3
 10
456.280363
 20
-74.122043
  0
POINT
  8
3
 10
457.534240
 20
-80.458028
  0
POINT
  8
3
 10
458.916929
 20
-86.100230
  0
POINT
  8
3
 10
460.557383
 20
-91.675193
  0
POINT
  8
3
 10
462.471945
 20
-97.173062
  0
POINT
  8
3
 10
464.311230
 20
-101.722032
  0
POINT
  8
3
 10
466.230584
 20
-105.831340
  0
POINT
  8
3
 10
468.392663
 20
-109.805709
  0
POINT
  8
3
 10
470.463475
 20
-113.074921
  0
POINT
  8
3
 10
472.756557
 20
-116.191012
  0
POINT
  8
3
 10
475.230519
 20
-119.067590
  0
POINT
  8
3
 10
477.983829
 20
-121.810102
  0
POINT
  8
3
 10
480.941012
 20
-124.330782
  0
POINT
  8
3
 10
484.078850
 20
-126.607746
  0
POINT
  8
3
 10
487.617685
 20
-128.757033
  0
POINT
  8
3
 10
491.485545
 20
-130.721385
  0
POINT
  8
3
 10
495.986871
 20
-132.650524
  0
POINT
  8
3
 10
497.803949
 20
-149.681303
  0
POINT
  8
3
 10
494.950409
 20
-164.650099
  0
POINT
  8
3
 10
492.172561
 20
-179.556689
  0
POINT
  8
3
 10
489.493042
 20
-194.333525
  0
POINT
  8
3
 10
486.742962
 20
-209.617004
  0
POINT
  8
3
 10
484.055497
 20
-224.209958
  0
POINT
  8
3
 10
481.045416
 20
-240.198921
  0
POINT
  8
3
 10
480.629362
 20
-242.486763
  0
POINT
  8
3
 10
479.023047
 20
-251.856500
  0
POINT
  8
3
 10
477.661546
 20
-261.095363
  0
POINT
  8
3
 10
476.722070
 20
-269.183382
  0
POINT
  8
3
 10
476.128205
 20
-276.557921
  0
POINT
  8
3
 10
475.868218
 20
-282.471622
  0
POINT
  8
3
 10
475.839160
 20
-289.858581
  0
POINT
  8
3
 10
476.099119
 20
-297.245123
  0
POINT
  8
3
 10
476.652191
 20
-305.366807
  0
POINT
  8
3
 10
477.646726
 20
-315.692984
  0
POINT
  8
3
 10
479.417521
 20
-330.967279
  0
POINT
  8
3
 10
481.244607
 20
-345.752055
  0
POINT
  8
3
 10
481.323918
 20
-346.377944
  0
POINT
  8
3
 10
483.275014
 20
-361.419962
  0
POINT
  8
3
 10
485.320124
 20
-376.812208
  0
POINT
  8
3
 10
487.316576
 20
-392.214574
  0
POINT
  8
3
 10
489.161169
 20
-407.635960
  0
POINT
  8
3
 10
490.764635
 20
-423.067709
  0
POINT
  8
3
 10
492.124566
 20
-438.539298
  0
POINT
  8
3
 10
493.260672
 20
-454.029745
  0
POINT
  8
3
 10
494.194458
 20
-469.533851
  0
POINT
  8
3
 10
494.950773
 20
-485.110100
  0
POINT
  8
3
 10
495.545827
 20
-500.128852
  0
POINT
  8
3
 10
482.241219
 20
-514.899443
  0
POINT
  8
3
 10
466.801929
 20
-514.790519
  0
POINT
  8
3
 10
451.447656
 20
-514.682196
  0
POINT
  8
3
 10
434.091488
 20
-514.559749
  0
POINT
  8
3
 10
415.349393
 20
-514.427524
  0
POINT
  8
3
 10
395.837339
 20
-514.289867
  0
POINT
  8
3
 10
376.171293
 20
-514.151124
  0
POINT
  8
3
 10
356.967222
 20
-514.015640
  0
POINT
  8
3
 10
338.841095
 20
-513.887761
  0
POINT
  8
3
 10
322.408878
 20
-513.771832
  0
POINT
  8
3
 10
305.189057
 20
-513.650347
  0
POINT
  8
3
 10
266.383104
 20
-513.650347
  0
POINT
  8
3
 10
249.163283
 20
-513.771832
  0
POINT
  8
3
 10
232.731066
 20
-513.887761
  0
POINT
  8
3
 10
214.604939
 20
-514.015640
  0
POINT
  8
3
 10
195.400869
 20
-514.151124
  0
POINT
  8
3
 10
175.734823
 20
-514.289867
  0
POINT
  8
3
 10
156.222768
 20
-514.427524
  0
POINT
  8
3
 10
137.480674
 20
-514.559749
  0
POINT
  8
3
 10
120.124506
 20
-514.682196
  0
POINT
  8
3
 10
104.770232
 20
-514.790519
  0
POINT
  8
3
 10
89.330942
 20
-514.899443
  0
POINT
  8
4
 10
90.327554
 20
-345.752055
  0
TEXT
  8
4
 10
90.327554
 20
-345.752055
 40
0.000000
 50
0.000000
  1
# 28
  0
POINT
  8
4
 10
90.942799
 20
-242.486763
  0
TEXT
  8
4
 10
90.942799
 20
-242.486763
 40
0.000000
 50
0.000000
  1
# 29
  0
POINT
  8
4
 10
117.549156
 20
-53.773880
  0
TEXT
  8
4
 10
117.549156
 20
-53.773880
 40
0.000000
 50
0.000000
  1
# 30
  0
POINT
  8
4
 10
285.786081
 20
52.486740
  0
TEXT
  8
4
 10
285.786081
 20
52.486740
 40
0.000000
 50
0.000000
  1
# 31
  0
POINT
  8
4
 10
454.023005
 20
-53.773880
  0
TEXT
  8
4
 10
454.023005
 20
-53.773880
 40
0.000000
 50
0.000000
  1
# 32
  0
POINT
  8
4
 10
480.629362
 20
-242.486763
  0
TEXT
  8
4
 10
480.629362
 20
-242.486763
 40
0.000000
 50
0.000000
  1
# 33
  0
POINT
  8
4
 10
481.244607
 20
-345.752055
  0
TEXT
  8
4
 10
481.244607
 20
-345.752055
 40
0.000000
 50
0.000000
  1
# 34
 0
LINE
 8
7
 10
234.451242
 20
-406.650057
 11
234.451242
 21
-69.706316
  0
TEXT
  8
1
 10
109.196115
 20
-271.300173
 40
10.000000
 50
357.954591
  1
扒开0.8
  0
TEXT
  8
1
 10
429.397226
 20
-272.477999
 40
10.000000
 50
2.045409
  1
扒开0.8
  0
TEXT
  8
1
 10
285.786081
 20
-220.166178
 40
10.000000
 50
0.000000
  1
Piece Name: 后片
  0
TEXT
  8
1
 10
285.786081
 20
-205.166178
 40
10.000000
 50
0.000000
  1
Size: M
  0
TEXT
  8
1
 10
285.786081
 20
-190.166178
 40
10.000000
 50
0.000000
  1
Annotation: 
  0
TEXT
  8
1
 10
285.786081
 20
-175.166178
 40
10.000000
 50
0.000000
  1
Quantity: 1
  0
TEXT
  8
1
 10
285.786081
 20
-160.166178
 40
10.000000
 50
0.000000
  1
Category: 1
0
ENDBLK
0
BLOCK
  8
1
  2
后包条-M
 70
0
 10
0.0
 20
0.0
  0
POLYLINE
  8
1
  66
1
  70
1
  0
VERTEX
  8
1
  10
-24.942374
  20
166.369810
  0
VERTEX
  8
1
  10
-24.942374
  20
176.369810
  0
VERTEX
  8
1
  10
175.057626
  20
176.369810
  0
VERTEX
  8
1
  10
175.057626
  20
166.369810
  0
SEQEND
  8
1
  0
POINT
  8
2
 10
-24.942374
 20
166.369810
  0
TEXT
  8
2
 10
-24.942374
 20
166.369810
 40
0.000000
 50
0.000000
  1
# 35
  0
POINT
  8
2
 10
-24.942374
 20
176.369810
  0
TEXT
  8
2
 10
-24.942374
 20
176.369810
 40
0.000000
 50
0.000000
  1
# 36
  0
POINT
  8
2
 10
175.057626
 20
176.369810
  0
TEXT
  8
2
 10
175.057626
 20
176.369810
 40
0.000000
 50
0.000000
  1
# 37
  0
POINT
  8
2
 10
175.057626
 20
166.369810
  0
TEXT
  8
2
 10
175.057626
 20
166.369810
 40
0.000000
 50
0.000000
  1
# 38
 0
LINE
 8
7
 10
84.119516
 20
165.495787
 11
84.119516
 21
175.236845
  0
TEXT
  8
1
 10
75.057779
 20
171.369772
 40
10.000000
 50
0.000000
  1
Piece Name: 后包条
  0
TEXT
  8
1
 10
75.057779
 20
186.369772
 40
10.000000
 50
0.000000
  1
Size: M
  0
TEXT
  8
1
 10
75.057779
 20
201.369772
 40
10.000000
 50
0.000000
  1
Annotation: 
  0
TEXT
  8
1
 10
75.057779
 20
216.369772
 40
10.000000
 50
0.000000
  1
Quantity: 1
  0
TEXT
  8
1
 10
75.057779
 20
231.369772
 40
10.000000
 50
0.000000
  1
Category: 2
0
ENDBLK
0
BLOCK
  8
1
  2
袖-M
 70
0
 10
0.0
 20
0.0
  0
POLYLINE
  8
1
  66
1
  70
1
  0
VERTEX
  8
1
  10
534.464364
  20
187.485151
  0
VERTEX
  8
1
  10
522.272897
  20
246.233473
  0
VERTEX
  8
1
  10
527.536033
  20
248.121055
  0
VERTEX
  8
1
  10
531.392312
  20
249.788671
  0
VERTEX
  8
1
  10
535.518266
  20
251.858238
  0
VERTEX
  8
1
  10
539.652054
  20
254.220335
  0
VERTEX
  8
1
  10
543.637648
  20
256.780978
  0
VERTEX
  8
1
  10
547.785790
  20
259.764436
  0
VERTEX
  8
1
  10
552.911626
  20
263.802388
  0
VERTEX
  8
1
  10
561.715992
  20
271.140732
  0
VERTEX
  8
1
  10
569.957981
  20
278.317526
  0
VERTEX
  8
1
  10
577.641633
  20
285.322018
  0
VERTEX
  8
1
  10
585.491650
  20
292.822299
  0
VERTEX
  8
1
  10
595.173644
  20
302.455057
  0
VERTEX
  8
1
  10
600.191106
  20
307.556296
  0
VERTEX
  8
1
  10
605.780533
  20
313.284105
  0
VERTEX
  8
1
  10
616.375198
  20
324.068113
  0
VERTEX
  8
1
  10
622.820964
  20
330.333652
  0
VERTEX
  8
1
  10
628.412684
  20
335.447122
  0
VERTEX
  8
1
  10
633.512681
  20
339.790659
  0
VERTEX
  8
1
  10
638.426931
  20
343.655343
  0
VERTEX
  8
1
  10
643.145291
  20
347.058771
  0
VERTEX
  8
1
  10
647.840572
  20
350.144626
  0
VERTEX
  8
1
  10
652.538065
  20
352.938536
  0
VERTEX
  8
1
  10
657.207552
  20
355.433454
  0
VERTEX
  8
1
  10
661.825046
  20
357.629131
  0
VERTEX
  8
1
  10
666.559238
  20
359.603721
  0
VERTEX
  8
1
  10
671.142652
  20
361.252809
  0
VERTEX
  8
1
  10
675.808140
  20
362.670647
  0
VERTEX
  8
1
  10
680.539615
  20
363.842973
  0
VERTEX
  8
1
  10
685.149377
  20
364.725944
  0
VERTEX
  8
1
  10
689.793246
  20
365.359293
  0
VERTEX
  8
1
  10
694.052040
  20
365.685789
  0
VERTEX
  8
1
  10
699.353891
  20
365.818510
  0
VERTEX
  8
1
  10
699.353891
  20
365.818510
  0
VERTEX
  8
1
  10
706.076030
  20
365.515702
  0
VERTEX
  8
1
  10
711.330417
  20
365.044460
  0
VERTEX
  8
1
  10
716.343208
  20
364.340966
  0
VERTEX
  8
1
  10
721.008437
  20
363.451342
  0
VERTEX
  8
1
  10
725.227753
  20
362.403280
  0
VERTEX
  8
1
  10
729.139412
  20
361.185561
  0
VERTEX
  8
1
  10
732.876227
  20
359.764184
  0
VERTEX
  8
1
  10
736.433861
  20
358.158628
  0
VERTEX
  8
1
  10
740.148248
  20
356.204538
  0
VERTEX
  8
1
  10
743.665493
  20
354.072138
  0
VERTEX
  8
1
  10
747.052238
  20
351.733983
  0
VERTEX
  8
1
  10
750.373530
  20
349.137028
  0
VERTEX
  8
1
  10
753.614100
  20
346.288303
  0
VERTEX
  8
1
  10
756.869394
  20
343.096140
  0
VERTEX
  8
1
  10
760.125293
  20
339.556588
  0
VERTEX
  8
1
  10
763.469739
  20
335.545387
  0
VERTEX
  8
1
  10
766.833110
  20
331.118729
  0
VERTEX
  8
1
  10
770.284009
  20
326.160670
  0
VERTEX
  8
1
  10
773.912928
  20
320.499160
  0
VERTEX
  8
1
  10
777.996546
  20
313.636511
  0
VERTEX
  8
1
  10
783.839057
  20
303.200928
  0
VERTEX
  8
1
  10
786.258282
  20
298.799966
  0
VERTEX
  8
1
  10
791.096713
  20
290.142044
  0
VERTEX
  8
1
  10
795.358986
  20
282.910543
  0
VERTEX
  8
1
  10
799.115134
  20
276.985973
  0
VERTEX
  8
1
  10
802.454803
  20
272.132232
  0
VERTEX
  8
1
  10
805.465128
  20
268.164431
  0
VERTEX
  8
1
  10
808.320838
  20
264.796510
  0
VERTEX
  8
1
  10
811.087664
  20
261.906197
  0
VERTEX
  8
1
  10
813.799371
  20
259.418829
  0
VERTEX
  8
1
  10
816.535845
  20
257.234743
  0
VERTEX
  8
1
  10
819.532416
  20
255.165080
  0
VERTEX
  8
1
  10
822.756391
  20
253.245531
  0
VERTEX
  8
1
  10
826.201326
  20
251.489546
  0
VERTEX
  8
1
  10
829.738414
  20
249.962611
  0
VERTEX
  8
1
  10
833.592802
  20
248.574765
  0
VERTEX
  8
1
  10
837.913979
  20
247.297054
  0
VERTEX
  8
1
  10
842.272897
  20
246.233473
  0
VERTEX
  8
1
  10
830.081735
  20
187.484999
  0
VERTEX
  8
1
  10
815.186071
  20
189.433323
  0
VERTEX
  8
1
  10
799.137768
  20
191.292469
  0
VERTEX
  8
1
  10
784.175379
  20
192.840853
  0
VERTEX
  8
1
  10
767.186540
  20
194.387497
  0
VERTEX
  8
1
  10
751.793951
  20
195.588188
  0
VERTEX
  8
1
  10
735.546038
  20
196.634404
  0
VERTEX
  8
1
  10
718.693678
  20
197.456479
  0
VERTEX
  8
1
  10
701.487749
  20
197.984746
  0
VERTEX
  8
1
  10
686.619446
  20
198.152919
  0
VERTEX
  8
1
  10
669.387690
  20
198.012122
  0
VERTEX
  8
1
  10
652.417184
  20
197.559221
  0
VERTEX
  8
1
  10
635.888622
  20
196.848535
  0
VERTEX
  8
1
  10
619.982699
  20
195.934381
  0
VERTEX
  8
1
  10
601.971890
  20
194.645300
  0
VERTEX
  8
1
  10
585.430118
  20
193.235306
  0
VERTEX
  8
1
  10
568.404644
  20
191.562716
  0
VERTEX
  8
1
  10
552.551794
  20
189.797299
  0
SEQEND
  8
1
  0
POINT
  8
2
 10
534.464364
 20
187.485151
  0
TEXT
  8
2
 10
534.464364
 20
187.485151
 40
0.000000
 50
0.000000
  1
# 39
  0
POINT
  8
2
 10
522.272897
 20
246.233473
  0
TEXT
  8
2
 10
522.272897
 20
246.233473
 40
0.000000
 50
0.000000
  1
# 40
  0
POINT
  8
2
 10
699.353891
 20
365.818510
  0
TEXT
  8
2
 10
699.353891
 20
365.818510
 40
0.000000
 50
0.000000
  1
# 41
  0
POINT
  8
2
 10
842.272897
 20
246.233473
  0
TEXT
  8
2
 10
842.272897
 20
246.233473
 40
0.000000
 50
0.000000
  1
# 42
  0
POINT
  8
2
 10
830.081735
 20
187.484999
  0
TEXT
  8
2
 10
830.081735
 20
187.484999
 40
0.000000
 50
0.000000
  1
# 43
  0
POINT
  8
3
 10
527.536033
 20
248.121055
  0
POINT
  8
3
 10
531.392312
 20
249.788671
  0
POINT
  8
3
 10
535.518266
 20
251.858238
  0
POINT
  8
3
 10
539.652054
 20
254.220335
  0
POINT
  8
3
 10
543.637648
 20
256.780978
  0
POINT
  8
3
 10
547.785790
 20
259.764436
  0
POINT
  8
3
 10
552.911626
 20
263.802388
  0
POINT
  8
3
 10
561.715992
 20
271.140732
  0
POINT
  8
3
 10
569.957981
 20
278.317526
  0
POINT
  8
3
 10
577.641633
 20
285.322018
  0
POINT
  8
3
 10
585.491650
 20
292.822299
  0
POINT
  8
3
 10
595.173644
 20
302.455057
  0
POINT
  8
3
 10
600.191106
 20
307.556296
  0
POINT
  8
3
 10
605.780533
 20
313.284105
  0
POINT
  8
3
 10
616.375198
 20
324.068113
  0
POINT
  8
3
 10
622.820964
 20
330.333652
  0
POINT
  8
3
 10
628.412684
 20
335.447122
  0
POINT
  8
3
 10
633.512681
 20
339.790659
  0
POINT
  8
3
 10
638.426931
 20
343.655343
  0
POINT
  8
3
 10
643.145291
 20
347.058771
  0
POINT
  8
3
 10
647.840572
 20
350.144626
  0
POINT
  8
3
 10
652.538065
 20
352.938536
  0
POINT
  8
3
 10
657.207552
 20
355.433454
  0
POINT
  8
3
 10
661.825046
 20
357.629131
  0
POINT
  8
3
 10
666.559238
 20
359.603721
  0
POINT
  8
3
 10
671.142652
 20
361.252809
  0
POINT
  8
3
 10
675.808140
 20
362.670647
  0
POINT
  8
3
 10
680.539615
 20
363.842973
  0
POINT
  8
3
 10
685.149377
 20
364.725944
  0
POINT
  8
3
 10
689.793246
 20
365.359293
  0
POINT
  8
3
 10
694.052040
 20
365.685789
  0
POINT
  8
3
 10
699.353891
 20
365.818510
  0
POINT
  8
3
 10
706.076030
 20
365.515702
  0
POINT
  8
3
 10
711.330417
 20
365.044460
  0
POINT
  8
3
 10
716.343208
 20
364.340966
  0
POINT
  8
3
 10
721.008437
 20
363.451342
  0
POINT
  8
3
 10
725.227753
 20
362.403280
  0
POINT
  8
3
 10
729.139412
 20
361.185561
  0
POINT
  8
3
 10
732.876227
 20
359.764184
  0
POINT
  8
3
 10
736.433861
 20
358.158628
  0
POINT
  8
3
 10
740.148248
 20
356.204538
  0
POINT
  8
3
 10
743.665493
 20
354.072138
  0
POINT
  8
3
 10
747.052238
 20
351.733983
  0
POINT
  8
3
 10
750.373530
 20
349.137028
  0
POINT
  8
3
 10
753.614100
 20
346.288303
  0
POINT
  8
3
 10
756.869394
 20
343.096140
  0
POINT
  8
3
 10
760.125293
 20
339.556588
  0
POINT
  8
3
 10
763.469739
 20
335.545387
  0
POINT
  8
3
 10
766.833110
 20
331.118729
  0
POINT
  8
3
 10
770.284009
 20
326.160670
  0
POINT
  8
3
 10
773.912928
 20
320.499160
  0
POINT
  8
3
 10
777.996546
 20
313.636511
  0
POINT
  8
3
 10
783.839057
 20
303.200928
  0
POINT
  8
3
 10
786.258282
 20
298.799966
  0
POINT
  8
3
 10
791.096713
 20
290.142044
  0
POINT
  8
3
 10
795.358986
 20
282.910543
  0
POINT
  8
3
 10
799.115134
 20
276.985973
  0
POINT
  8
3
 10
802.454803
 20
272.132232
  0
POINT
  8
3
 10
805.465128
 20
268.164431
  0
POINT
  8
3
 10
808.320838
 20
264.796510
  0
POINT
  8
3
 10
811.087664
 20
261.906197
  0
POINT
  8
3
 10
813.799371
 20
259.418829
  0
POINT
  8
3
 10
816.535845
 20
257.234743
  0
POINT
  8
3
 10
819.532416
 20
255.165080
  0
POINT
  8
3
 10
822.756391
 20
253.245531
  0
POINT
  8
3
 10
826.201326
 20
251.489546
  0
POINT
  8
3
 10
829.738414
 20
249.962611
  0
POINT
  8
3
 10
833.592802
 20
248.574765
  0
POINT
  8
3
 10
837.913979
 20
247.297054
  0
POINT
  8
3
 10
815.186071
 20
189.433323
  0
POINT
  8
3
 10
799.137768
 20
191.292469
  0
POINT
  8
3
 10
784.175379
 20
192.840853
  0
POINT
  8
3
 10
767.186540
 20
194.387497
  0
POINT
  8
3
 10
751.793951
 20
195.588188
  0
POINT
  8
3
 10
735.546038
 20
196.634404
  0
POINT
  8
3
 10
718.693678
 20
197.456479
  0
POINT
  8
3
 10
701.487749
 20
197.984746
  0
POINT
  8
3
 10
686.619446
 20
198.152919
  0
POINT
  8
3
 10
669.387690
 20
198.012122
  0
POINT
  8
3
 10
652.417184
 20
197.559221
  0
POINT
  8
3
 10
635.888622
 20
196.848535
  0
POINT
  8
3
 10
619.982699
 20
195.934381
  0
POINT
  8
3
 10
601.971890
 20
194.645300
  0
POINT
  8
3
 10
585.430118
 20
193.235306
  0
POINT
  8
3
 10
568.404644
 20
191.562716
  0
POINT
  8
3
 10
552.551794
 20
189.797299
  0
POINT
  8
4
 10
600.191106
 20
307.556296
  0
TEXT
  8
4
 10
600.191106
 20
307.556296
 40
0.000000
 50
0.000000
  1
# 44
  0
POINT
  8
4
 10
699.353891
 20
365.818510
  0
TEXT
  8
4
 10
699.353891
 20
365.818510
 40
0.000000
 50
0.000000
  1
# 45
  0
POINT
  8
4
 10
786.258282
 20
298.799966
  0
TEXT
  8
4
 10
786.258282
 20
298.799966
 40
0.000000
 50
0.000000
  1
# 46
 0
LINE
 8
7
 10
685.092111
 20
227.247420
 11
685.092111
 21
330.529509
  0
TEXT
  8
1
 10
682.339273
 20
269.519110
 40
10.000000
 50
0.000000
  1
Piece Name: 袖
  0
TEXT
  8
1
 10
682.339273
 20
284.519110
 40
10.000000
 50
0.000000
  1
Size: M
  0
TEXT
  8
1
 10
682.339273
 20
299.519110
 40
10.000000
 50
0.000000
  1
Annotation: 
  0
TEXT
  8
1
 10
682.339273
 20
314.519110
 40
10.000000
 50
0.000000
  1
Quantity: 1
  0
TEXT
  8
1
 10
682.339273
 20
329.519110
 40
10.000000
 50
0.000000
  1
Category: 3
0
ENDBLK
0
BLOCK
  8
1
  2
罗纹领-M
 70
0
 10
0.0
 20
0.0
  0
POLYLINE
  8
1
  66
1
  70
1
  0
VERTEX
  8
1
  10
217.470956
  20
257.329970
  0
VERTEX
  8
1
  10
217.470956
  20
257.329970
  0
VERTEX
  8
1
  10
208.338800
  20
257.329970
  0
VERTEX
  8
1
  10
193.140235
  20
257.329970
  0
VERTEX
  8
1
  10
177.941680
  20
257.329970
  0
VERTEX
  8
1
  10
162.626850
  20
257.329970
  0
VERTEX
  8
1
  10
147.349969
  20
257.329970
  0
VERTEX
  8
1
  10
132.151358
  20
257.329970
  0
VERTEX
  8
1
  10
116.952738
  20
257.329970
  0
VERTEX
  8
1
  10
101.654400
  20
257.329970
  0
VERTEX
  8
1
  10
86.070810
  20
257.329970
  0
VERTEX
  8
1
  10
86.070810
  20
257.329970
  0
VERTEX
  8
1
  10
77.844743
  20
257.329970
  0
VERTEX
  8
1
  10
62.690507
  20
257.329970
  0
VERTEX
  8
1
  10
47.219690
  20
257.329970
  0
VERTEX
  8
1
  10
32.002359
  20
257.329970
  0
VERTEX
  8
1
  10
16.531464
  20
257.329970
  0
VERTEX
  8
1
  10
1.076628
  20
257.329970
  0
VERTEX
  8
1
  10
-14.394296
  20
257.329970
  0
VERTEX
  8
1
  10
-29.710896
  20
257.329970
  0
VERTEX
  8
1
  10
-45.329184
  20
257.329970
  0
VERTEX
  8
1
  10
-45.329184
  20
257.329970
  0
VERTEX
  8
1
  10
-60.251636
  20
257.329970
  0
VERTEX
  8
1
  10
-75.317634
  20
257.329970
  0
VERTEX
  8
1
  10
-90.560791
  20
257.329970
  0
VERTEX
  8
1
  10
-106.127292
  20
257.329970
  0
VERTEX
  8
1
  10
-121.355222
  20
257.329970
  0
VERTEX
  8
1
  10
-136.929221
  20
257.329970
  0
VERTEX
  8
1
  10
-136.929221
  20
257.329970
  0
VERTEX
  8
1
  10
-142.201972
  20
257.329970
  0
VERTEX
  8
1
  10
-157.262603
  20
257.329970
  0
VERTEX
  8
1
  10
-172.136247
  20
257.329970
  0
VERTEX
  8
1
  10
-187.204240
  20
257.329970
  0
VERTEX
  8
1
  10
-202.640732
  20
257.329970
  0
VERTEX
  8
1
  10
-218.529258
  20
257.329970
  0
VERTEX
  8
1
  10
-218.529258
  20
272.329970
  0
VERTEX
  8
1
  10
-218.529258
  20
287.329970
  0
VERTEX
  8
1
  10
-203.017958
  20
287.329970
  0
VERTEX
  8
1
  10
-187.793446
  20
287.329970
  0
VERTEX
  8
1
  10
-172.773421
  20
287.329970
  0
VERTEX
  8
1
  10
-157.302977
  20
287.329970
  0
VERTEX
  8
1
  10
-142.002862
  20
287.329970
  0
VERTEX
  8
1
  10
-126.532398
  20
287.329970
  0
VERTEX
  8
1
  10
-111.050834
  20
287.329970
  0
VERTEX
  8
1
  10
-95.580390
  20
287.329970
  0
VERTEX
  8
1
  10
-80.557268
  20
287.329970
  0
VERTEX
  8
1
  10
-65.086846
  20
287.329970
  0
VERTEX
  8
1
  10
-49.904834
  20
287.329970
  0
VERTEX
  8
1
  10
-34.434337
  20
287.329970
  0
VERTEX
  8
1
  10
-18.963843
  20
287.329970
  0
VERTEX
  8
1
  10
-3.481596
  20
287.329970
  0
VERTEX
  8
1
  10
11.988835
  20
287.329970
  0
VERTEX
  8
1
  10
26.997122
  20
287.329970
  0
VERTEX
  8
1
  10
42.467600
  20
287.329970
  0
VERTEX
  8
1
  10
57.896749
  20
287.329970
  0
VERTEX
  8
1
  10
73.367200
  20
287.329970
  0
VERTEX
  8
1
  10
88.712617
  20
287.329970
  0
VERTEX
  8
1
  10
104.183052
  20
287.329970
  0
VERTEX
  8
1
  10
119.402559
  20
287.329970
  0
VERTEX
  8
1
  10
134.872970
  20
287.329970
  0
VERTEX
  8
1
  10
150.226430
  20
287.329970
  0
VERTEX
  8
1
  10
165.383892
  20
287.329970
  0
VERTEX
  8
1
  10
180.854339
  20
287.329970
  0
VERTEX
  8
1
  10
195.923715
  20
287.329970
  0
VERTEX
  8
1
  10
211.317455
  20
287.329970
  0
VERTEX
  8
1
  10
226.075193
  20
287.329970
  0
VERTEX
  8
1
  10
227.470956
  20
287.329970
  0
VERTEX
  8
1
  10
227.470956
  20
272.329970
  0
VERTEX
  8
1
  10
227.470956
  20
257.329970
  0
SEQEND
  8
1
  0
POINT
  8
2
 10
217.470956
 20
257.329970
  0
TEXT
  8
2
 10
217.470956
 20
257.329970
 40
0.000000
 50
0.000000
  1
# 47
  0
POINT
  8
2
 10
86.070810
 20
257.329970
  0
TEXT
  8
2
 10
86.070810
 20
257.329970
 40
0.000000
 50
0.000000
  1
# 48
  0
POINT
  8
2
 10
-45.329184
 20
257.329970
  0
TEXT
  8
2
 10
-45.329184
 20
257.329970
 40
0.000000
 50
0.000000
  1
# 49
  0
POINT
  8
2
 10
-136.929221
 20
257.329970
  0
TEXT
  8
2
 10
-136.929221
 20
257.329970
 40
0.000000
 50
0.000000
  1
# 50
  0
POINT
  8
2
 10
-218.529258
 20
257.329970
  0
TEXT
  8
2
 10
-218.529258
 20
257.329970
 40
0.000000
 50
0.000000
  1
# 51
  0
POINT
  8
2
 10
-218.529258
 20
272.329970
  0
TEXT
  8
2
 10
-218.529258
 20
272.329970
 40
0.000000
 50
0.000000
  1
# 52
  0
POINT
  8
2
 10
-218.529258
 20
287.329970
  0
TEXT
  8
2
 10
-218.529258
 20
287.329970
 40
0.000000
 50
0.000000
  1
# 53
  0
POINT
  8
2
 10
227.470956
 20
287.329970
  0
TEXT
  8
2
 10
227.470956
 20
287.329970
 40
0.000000
 50
0.000000
  1
# 54
  0
POINT
  8
2
 10
227.470956
 20
272.329970
  0
TEXT
  8
2
 10
227.470956
 20
272.329970
 40
0.000000
 50
0.000000
  1
# 55
  0
POINT
  8
2
 10
227.470956
 20
257.329970
  0
TEXT
  8
2
 10
227.470956
 20
257.329970
 40
0.000000
 50
0.000000
  1
# 56
  0
POINT
  8
3
 10
217.470956
 20
257.329970
  0
POINT
  8
3
 10
208.338800
 20
257.329970
  0
POINT
  8
3
 10
193.140235
 20
257.329970
  0
POINT
  8
3
 10
177.941680
 20
257.329970
  0
POINT
  8
3
 10
162.626850
 20
257.329970
  0
POINT
  8
3
 10
147.349969
 20
257.329970
  0
POINT
  8
3
 10
132.151358
 20
257.329970
  0
POINT
  8
3
 10
116.952738
 20
257.329970
  0
POINT
  8
3
 10
101.654400
 20
257.329970
  0
POINT
  8
3
 10
86.070810
 20
257.329970
  0
POINT
  8
3
 10
77.844743
 20
257.329970
  0
POINT
  8
3
 10
62.690507
 20
257.329970
  0
POINT
  8
3
 10
47.219690
 20
257.329970
  0
POINT
  8
3
 10
32.002359
 20
257.329970
  0
POINT
  8
3
 10
16.531464
 20
257.329970
  0
POINT
  8
3
 10
1.076628
 20
257.329970
  0
POINT
  8
3
 10
-14.394296
 20
257.329970
  0
POINT
  8
3
 10
-29.710896
 20
257.329970
  0
POINT
  8
3
 10
-45.329184
 20
257.329970
  0
POINT
  8
3
 10
-60.251636
 20
257.329970
  0
POINT
  8
3
 10
-75.317634
 20
257.329970
  0
POINT
  8
3
 10
-90.560791
 20
257.329970
  0
POINT
  8
3
 10
-106.127292
 20
257.329970
  0
POINT
  8
3
 10
-121.355222
 20
257.329970
  0
POINT
  8
3
 10
-136.929221
 20
257.329970
  0
POINT
  8
3
 10
-142.201972
 20
257.329970
  0
POINT
  8
3
 10
-157.262603
 20
257.329970
  0
POINT
  8
3
 10
-172.136247
 20
257.329970
  0
POINT
  8
3
 10
-187.204240
 20
257.329970
  0
POINT
  8
3
 10
-202.640732
 20
257.329970
  0
POINT
  8
3
 10
-203.017958
 20
287.329970
  0
POINT
  8
3
 10
-187.793446
 20
287.329970
  0
POINT
  8
3
 10
-172.773421
 20
287.329970
  0
POINT
  8
3
 10
-157.302977
 20
287.329970
  0
POINT
  8
3
 10
-142.002862
 20
287.329970
  0
POINT
  8
3
 10
-126.532398
 20
287.329970
  0
POINT
  8
3
 10
-111.050834
 20
287.329970
  0
POINT
  8
3
 10
-95.580390
 20
287.329970
  0
POINT
  8
3
 10
-80.557268
 20
287.329970
  0
POINT
  8
3
 10
-65.086846
 20
287.329970
  0
POINT
  8
3
 10
-49.904834
 20
287.329970
  0
POINT
  8
3
 10
-34.434337
 20
287.329970
  0
POINT
  8
3
 10
-18.963843
 20
287.329970
  0
POINT
  8
3
 10
-3.481596
 20
287.329970
  0
POINT
  8
3
 10
11.988835
 20
287.329970
  0
POINT
  8
3
 10
26.997122
 20
287.329970
  0
POINT
  8
3
 10
42.467600
 20
287.329970
  0
POINT
  8
3
 10
57.896749
 20
287.329970
  0
POINT
  8
3
 10
73.367200
 20
287.329970
  0
POINT
  8
3
 10
88.712617
 20
287.329970
  0
POINT
  8
3
 10
104.183052
 20
287.329970
  0
POINT
  8
3
 10
119.402559
 20
287.329970
  0
POINT
  8
3
 10
134.872970
 20
287.329970
  0
POINT
  8
3
 10
150.226430
 20
287.329970
  0
POINT
  8
3
 10
165.383892
 20
287.329970
  0
POINT
  8
3
 10
180.854339
 20
287.329970
  0
POINT
  8
3
 10
195.923715
 20
287.329970
  0
POINT
  8
3
 10
211.317455
 20
287.329970
  0
POINT
  8
3
 10
226.075193
 20
287.329970
  0
POINT
  8
4
 10
217.470956
 20
257.329970
  0
TEXT
  8
4
 10
217.470956
 20
257.329970
 40
0.000000
 50
0.000000
  1
# 57
  0
POINT
  8
4
 10
86.070810
 20
257.329970
  0
TEXT
  8
4
 10
86.070810
 20
257.329970
 40
0.000000
 50
0.000000
  1
# 58
  0
POINT
  8
4
 10
-45.329184
 20
257.329970
  0
TEXT
  8
4
 10
-45.329184
 20
257.329970
 40
0.000000
 50
0.000000
  1
# 59
  0
POINT
  8
4
 10
-136.929221
 20
257.329970
  0
TEXT
  8
4
 10
-136.929221
 20
257.329970
 40
0.000000
 50
0.000000
  1
# 60
 0
LINE
 8
7
 10
9.813180
 20
258.529692
 11
9.813180
 21
279.682341
  0
TEXT
  8
1
 10
204.928537
 20
263.877135
 40
10.000000
 50
1.507436
  1
左肩
  0
TEXT
  8
1
 10
81.549936
 20
265.507002
 40
10.000000
 50
358.025066
  1
前中
  0
TEXT
  8
1
 10
-50.385489
 20
267.136946
 40
10.000000
 50
2.489553
  1
右肩
  0
TEXT
  8
1
 10
-143.262686
 20
262.627363
 40
10.000000
 50
358.667780
  1
后中
  0
TEXT
  8
1
 10
4.470926
 20
272.329970
 40
10.000000
 50
0.000000
  1
Piece Name: 罗纹领
  0
TEXT
  8
1
 10
4.470926
 20
287.329970
 40
10.000000
 50
0.000000
  1
Size: M
  0
TEXT
  8
1
 10
4.470926
 20
302.329970
 40
10.000000
 50
0.000000
  1
Annotation: 
  0
TEXT
  8
1
 10
4.470926
 20
317.329970
 40
10.000000
 50
0.000000
  1
Quantity: 1
  0
TEXT
  8
1
 10
4.470926
 20
332.329970
 40
10.000000
 50
0.000000
  1
Category: 4
0
ENDBLK
  0
ENDSEC
  0
SECTION
  2
ENTITIES
  0
INSERT
  8
1
  2
前片-M
  10
-259.063773
  20
-174.181778
  0
INSERT
  8
1
  2
后片-M
  10
285.786081
  20
-148.522703
  0
INSERT
  8
1
  2
后包条-M
  10
75.057626
  20
171.369810
  0
INSERT
  8
1
  2
袖-M
  10
685.843747
  20
248.504159
  0
INSERT
  8
1
  2
罗纹领-M
  10
14.810860
  20
266.329970
  0
TEXT
  8
1
 10
184.491983
 20
-543.301210
 40
10.000000
 50
0.000000
  1
Style Name: 女修身款圆领T恤
  0
TEXT
  8
1
 10
184.491983
 20
-558.301210
 40
10.000000
 50
0.000000
  1
Creation Date: 
  0
TEXT
  8
1
 10
184.491983
 20
-573.301210
 40
10.000000
 50
0.000000
  1
Author: ET2005
  0
TEXT
  8
1
 10
184.491983
 20
-588.301210
 40
10.000000
 50
0.000000
  1
Sample Size: M
  0
TEXT
  8
1
 10
184.491983
 20
-603.301210
 40
10.000000
 50
0.000000
  1
Grading Rule Table: 女士修身T恤
  0
TEXT
  8
1
 10
184.491983
 20
-618.301210
 40
10.000000
 50
0.000000
  1
Units: METRIC
  0
ENDSEC
  0
EOF
