999
ANSI/AAMA
  0
SECTION
  2
BLOCKS
0
BLOCK
  8
1
  2
前片-M
 70
0
 10
0.0
 20
0.0
  0
POLYLINE
  8
1
  66
1
  70
1
  0
VERTEX
  8
1
  10
-481.780549
  20
-803.966558
  0
VERTEX
  8
1
  10
-497.864972
  20
-804.000086
  0
VERTEX
  8
1
  10
-513.204720
  20
-803.806312
  0
VERTEX
  8
1
  10
-527.062770
  20
-803.383443
  0
VERTEX
  8
1
  10
-542.593089
  20
-802.654808
  0
VERTEX
  8
1
  10
-558.118782
  20
-801.763167
  0
VERTEX
  8
1
  10
-573.573898
  20
-800.814623
  0
VERTEX
  8
1
  10
-589.088954
  20
-799.768808
  0
VERTEX
  8
1
  10
-603.878879
  20
-798.557809
  0
VERTEX
  8
1
  10
-616.991260
  20
-797.221337
  0
VERTEX
  8
1
  10
-631.497774
  20
-795.499835
  0
VERTEX
  8
1
  10
-632.641259
  20
-795.353658
  0
VERTEX
  8
1
  10
-631.473917
  20
-783.956169
  0
VERTEX
  8
1
  10
-629.852255
  20
-768.317115
  0
VERTEX
  8
1
  10
-628.267074
  20
-752.854228
  0
VERTEX
  8
1
  10
-626.773001
  20
-737.292174
  0
VERTEX
  8
1
  10
-625.357618
  20
-721.819871
  0
VERTEX
  8
1
  10
-623.889642
  20
-706.350999
  0
VERTEX
  8
1
  10
-622.244579
  20
-690.892822
  0
VERTEX
  8
1
  10
-620.630428
  20
-677.889044
  0
VERTEX
  8
1
  10
-618.504323
  20
-663.255672
  0
VERTEX
  8
1
  10
-616.149314
  20
-647.845447
  0
VERTEX
  8
1
  10
-614.453106
  20
-635.677882
  0
VERTEX
  8
1
  10
-613.337938
  20
-625.937029
  0
VERTEX
  8
1
  10
-612.648318
  20
-617.811874
  0
VERTEX
  8
1
  10
-612.341740
  20
-611.827153
  0
VERTEX
  8
1
  10
-612.242408
  20
-609.888082
  0
VERTEX
  8
1
  10
-612.126629
  20
-601.743787
  0
VERTEX
  8
1
  10
-612.297172
  20
-593.592662
  0
VERTEX
  8
1
  10
-612.730574
  20
-585.438127
  0
VERTEX
  8
1
  10
-613.482915
  20
-576.468279
  0
VERTEX
  8
1
  10
-614.597323
  20
-566.688349
  0
VERTEX
  8
1
  10
-616.104653
  20
-556.106400
  0
VERTEX
  8
1
  10
-618.019274
  20
-544.733947
  0
VERTEX
  8
1
  10
-620.496656
  20
-531.778450
  0
VERTEX
  8
1
  10
-623.711851
  20
-516.469985
  0
VERTEX
  8
1
  10
-627.122462
  20
-501.109934
  0
VERTEX
  8
1
  10
-630.666236
  20
-485.989015
  0
VERTEX
  8
1
  10
-634.383698
  20
-471.197866
  0
VERTEX
  8
1
  10
-638.216510
  20
-456.975947
  0
VERTEX
  8
1
  10
-642.403917
  20
-442.399156
  0
VERTEX
  8
1
  10
-646.883563
  20
-427.554937
  0
VERTEX
  8
1
  10
-651.690026
  20
-412.248776
  0
VERTEX
  8
1
  10
-650.949403
  20
-411.331868
  0
VERTEX
  8
1
  10
-648.953770
  20
-408.642210
  0
VERTEX
  8
1
  10
-647.031533
  20
-405.610403
  0
VERTEX
  8
1
  10
-645.315822
  20
-402.447260
  0
VERTEX
  8
1
  10
-643.691323
  20
-398.900705
  0
VERTEX
  8
1
  10
-642.145340
  20
-394.900754
  0
VERTEX
  8
1
  10
-640.650677
  20
-390.293957
  0
VERTEX
  8
1
  10
-639.393178
  20
-385.619713
  0
VERTEX
  8
1
  10
-638.336591
  20
-380.731042
  0
VERTEX
  8
1
  10
-637.517079
  20
-375.778862
  0
VERTEX
  8
1
  10
-636.916335
  20
-370.629128
  0
VERTEX
  8
1
  10
-636.546855
  20
-365.298780
  0
VERTEX
  8
1
  10
-636.401111
  20
-359.471786
  0
VERTEX
  8
1
  10
-636.504065
  20
-353.024200
  0
VERTEX
  8
1
  10
-636.898903
  20
-345.424841
  0
VERTEX
  8
1
  10
-637.643322
  20
-336.252334
  0
VERTEX
  8
1
  10
-638.764221
  20
-325.684626
  0
VERTEX
  8
1
  10
-639.941540
  20
-316.696367
  0
VERTEX
  8
1
  10
-641.234055
  20
-308.632903
  0
VERTEX
  8
1
  10
-642.753754
  20
-300.682361
  0
VERTEX
  8
1
  10
-644.527923
  20
-292.732608
  0
VERTEX
  8
1
  10
-646.642316
  20
-284.416832
  0
VERTEX
  8
1
  10
-649.289647
  20
-275.091657
  0
VERTEX
  8
1
  10
-653.012696
  20
-263.070128
  0
VERTEX
  8
1
  10
-638.153602
  20
-256.957977
  0
VERTEX
  8
1
  10
-624.737148
  20
-251.190456
  0
VERTEX
  8
1
  10
-610.911788
  20
-245.127551
  0
VERTEX
  8
1
  10
-598.549312
  20
-239.878730
  0
VERTEX
  8
1
  10
-585.898870
  20
-234.811601
  0
VERTEX
  8
1
  10
-573.631897
  20
-230.125778
  0
VERTEX
  8
1
  10
-573.274129
  20
-231.705371
  0
VERTEX
  8
1
  10
-571.610994
  20
-238.360905
  0
VERTEX
  8
1
  10
-569.994963
  20
-243.868161
  0
VERTEX
  8
1
  10
-567.892295
  20
-250.078912
  0
VERTEX
  8
1
  10
-565.131868
  20
-257.408048
  0
VERTEX
  8
1
  10
-562.318755
  20
-264.209475
  0
VERTEX
  8
1
  10
-559.495609
  20
-270.429960
  0
VERTEX
  8
1
  10
-556.868556
  20
-275.674849
  0
VERTEX
  8
1
  10
-554.294764
  20
-280.297966
  0
VERTEX
  8
1
  10
-551.687113
  20
-284.501618
  0
VERTEX
  8
1
  10
-548.993670
  20
-288.393901
  0
VERTEX
  8
1
  10
-546.139149
  20
-292.088433
  0
VERTEX
  8
1
  10
-543.160891
  20
-295.540234
  0
VERTEX
  8
1
  10
-540.070406
  20
-298.744560
  0
VERTEX
  8
1
  10
-536.892259
  20
-301.686848
  0
VERTEX
  8
1
  10
-533.528166
  20
-304.461099
  0
VERTEX
  8
1
  10
-530.005837
  20
-307.045075
  0
VERTEX
  8
1
  10
-526.342058
  20
-309.430824
  0
VERTEX
  8
1
  10
-522.452331
  20
-311.664864
  0
VERTEX
  8
1
  10
-518.448645
  20
-313.673722
  0
VERTEX
  8
1
  10
-514.348266
  20
-315.449497
  0
VERTEX
  8
1
  10
-510.277523
  20
-316.947936
  0
VERTEX
  8
1
  10
-506.143668
  20
-318.211654
  0
VERTEX
  8
1
  10
-501.784302
  20
-319.274378
  0
VERTEX
  8
1
  10
-497.036657
  20
-320.162804
  0
VERTEX
  8
1
  10
-491.956855
  20
-320.865435
  0
VERTEX
  8
1
  10
-486.463293
  20
-321.349539
  0
VERTEX
  8
1
  10
-479.629822
  20
-321.654246
  0
VERTEX
  8
1
  10
-479.629822
  20
-321.654246
  0
VERTEX
  8
1
  10
-472.793900
  20
-321.410493
  0
VERTEX
  8
1
  10
-467.296217
  20
-320.975400
  0
VERTEX
  8
1
  10
-462.210357
  20
-320.318100
  0
VERTEX
  8
1
  10
-457.454974
  20
-319.472048
  0
VERTEX
  8
1
  10
-453.086327
  20
-318.448249
  0
VERTEX
  8
1
  10
-448.941366
  20
-317.221448
  0
VERTEX
  8
1
  10
-444.857431
  20
-315.759369
  0
VERTEX
  8
1
  10
-440.741374
  20
-314.020230
  0
VERTEX
  8
1
  10
-436.719940
  20
-312.047168
  0
VERTEX
  8
1
  10
-432.810429
  20
-309.847898
  0
VERTEX
  8
1
  10
-429.125523
  20
-307.494922
  0
VERTEX
  8
1
  10
-425.580282
  20
-304.942459
  0
VERTEX
  8
1
  10
-422.191596
  20
-302.198324
  0
VERTEX
  8
1
  10
-418.987336
  20
-299.284493
  0
VERTEX
  8
1
  10
-415.868389
  20
-296.107855
  0
VERTEX
  8
1
  10
-412.859464
  20
-292.682748
  0
VERTEX
  8
1
  10
-409.972115
  20
-289.013831
  0
VERTEX
  8
1
  10
-407.244051
  20
-285.145711
  0
VERTEX
  8
1
  10
-404.599014
  20
-280.965482
  0
VERTEX
  8
1
  10
-401.984101
  20
-276.365514
  0
VERTEX
  8
1
  10
-399.310373
  20
-271.144262
  0
VERTEX
  8
1
  10
-396.431858
  20
-264.949197
  0
VERTEX
  8
1
  10
-393.558200
  20
-258.173129
  0
VERTEX
  8
1
  10
-390.732525
  20
-250.868902
  0
VERTEX
  8
1
  10
-388.574558
  20
-244.677150
  0
VERTEX
  8
1
  10
-386.909480
  20
-239.184525
  0
VERTEX
  8
1
  10
-385.187058
  20
-232.544087
  0
VERTEX
  8
1
  10
-384.815217
  20
-230.967748
  0
VERTEX
  8
1
  10
-372.590524
  20
-235.762783
  0
VERTEX
  8
1
  10
-359.985774
  20
-240.942530
  0
VERTEX
  8
1
  10
-347.670610
  20
-246.301390
  0
VERTEX
  8
1
  10
-333.899865
  20
-252.487353
  0
VERTEX
  8
1
  10
-320.535358
  20
-258.374304
  0
VERTEX
  8
1
  10
-305.731373
  20
-264.618723
  0
VERTEX
  8
1
  10
-309.561485
  20
-276.606571
  0
VERTEX
  8
1
  10
-312.291880
  20
-285.907766
  0
VERTEX
  8
1
  10
-314.480357
  20
-294.204354
  0
VERTEX
  8
1
  10
-316.325360
  20
-302.137975
  0
VERTEX
  8
1
  10
-317.915904
  20
-310.074647
  0
VERTEX
  8
1
  10
-319.280273
  20
-318.126255
  0
VERTEX
  8
1
  10
-320.537693
  20
-327.103657
  0
VERTEX
  8
1
  10
-321.752789
  20
-337.660954
  0
VERTEX
  8
1
  10
-322.578987
  20
-346.826457
  0
VERTEX
  8
1
  10
-323.041587
  20
-354.421992
  0
VERTEX
  8
1
  10
-323.202043
  20
-360.868402
  0
VERTEX
  8
1
  10
-323.108273
  20
-366.696464
  0
VERTEX
  8
1
  10
-322.786342
  20
-372.029894
  0
VERTEX
  8
1
  10
-322.231539
  20
-377.184782
  0
VERTEX
  8
1
  10
-321.456217
  20
-382.144074
  0
VERTEX
  8
1
  10
-320.443271
  20
-387.041979
  0
VERTEX
  8
1
  10
-319.227522
  20
-391.727245
  0
VERTEX
  8
1
  10
-317.774004
  20
-396.347192
  0
VERTEX
  8
1
  10
-316.263748
  20
-400.360769
  0
VERTEX
  8
1
  10
-314.670949
  20
-403.921671
  0
VERTEX
  8
1
  10
-312.983519
  20
-407.099996
  0
VERTEX
  8
1
  10
-311.088403
  20
-410.148817
  0
VERTEX
  8
1
  10
-309.116834
  20
-412.856169
  0
VERTEX
  8
1
  10
-308.384266
  20
-413.779032
  0
VERTEX
  8
1
  10
-313.327168
  20
-429.042327
  0
VERTEX
  8
1
  10
-317.939026
  20
-443.845999
  0
VERTEX
  8
1
  10
-322.256276
  20
-458.384880
  0
VERTEX
  8
1
  10
-326.215774
  20
-472.572050
  0
VERTEX
  8
1
  10
-330.064997
  20
-487.329449
  0
VERTEX
  8
1
  10
-333.743479
  20
-502.418163
  0
VERTEX
  8
1
  10
-337.290936
  20
-517.747195
  0
VERTEX
  8
1
  10
-340.642524
  20
-533.026378
  0
VERTEX
  8
1
  10
-343.235347
  20
-545.959267
  0
VERTEX
  8
1
  10
-345.251312
  20
-557.314194
  0
VERTEX
  8
1
  10
-346.852955
  20
-567.882279
  0
VERTEX
  8
1
  10
-348.054537
  20
-577.651882
  0
VERTEX
  8
1
  10
-348.886843
  20
-586.614664
  0
VERTEX
  8
1
  10
-349.392951
  20
-594.765010
  0
VERTEX
  8
1
  10
-349.636180
  20
-602.914289
  0
VERTEX
  8
1
  10
-349.593038
  20
-611.059293
  0
VERTEX
  8
1
  10
-349.511003
  20
-612.999158
  0
VERTEX
  8
1
  10
-349.257809
  20
-618.986384
  0
VERTEX
  8
1
  10
-348.640677
  20
-627.117366
  0
VERTEX
  8
1
  10
-347.612424
  20
-636.867776
  0
VERTEX
  8
1
  10
-346.024795
  20
-649.049984
  0
VERTEX
  8
1
  10
-343.807311
  20
-664.480596
  0
VERTEX
  8
1
  10
-341.811798
  20
-679.132330
  0
VERTEX
  8
1
  10
-340.313685
  20
-692.149984
  0
VERTEX
  8
1
  10
-338.806551
  20
-707.622216
  0
VERTEX
  8
1
  10
-337.476594
  20
-723.103564
  0
VERTEX
  8
1
  10
-336.199256
  20
-738.587874
  0
VERTEX
  8
1
  10
-334.844026
  20
-754.162659
  0
VERTEX
  8
1
  10
-333.396807
  20
-769.639072
  0
VERTEX
  8
1
  10
-331.914675
  20
-785.291971
  0
VERTEX
  8
1
  10
-330.849019
  20
-796.699407
  0
VERTEX
  8
1
  10
-331.993764
  20
-796.835381
  0
VERTEX
  8
1
  10
-346.515063
  20
-798.427442
  0
VERTEX
  8
1
  10
-359.638858
  20
-799.646923
  0
VERTEX
  8
1
  10
-374.438993
  20
-800.725973
  0
VERTEX
  8
1
  10
-389.962755
  20
-801.633378
  0
VERTEX
  8
1
  10
-405.425703
  20
-802.444050
  0
VERTEX
  8
1
  10
-420.958729
  20
-803.197194
  0
VERTEX
  8
1
  10
-436.494928
  20
-803.787297
  0
VERTEX
  8
1
  10
-450.356190
  20
-804.086561
  0
VERTEX
  8
1
  10
-465.697059
  20
-804.143526
  0
SEQEND
  8
1
  0
POINT
  8
2
 10
-481.780549
 20
-803.966558
  0
TEXT
  8
2
 10
-481.780549
 20
-803.966558
 40
0.000000
 50
0.000000
  1
# 1
  0
POINT
  8
2
 10
-632.641259
 20
-795.353658
  0
TEXT
  8
2
 10
-632.641259
 20
-795.353658
 40
0.000000
 50
0.000000
  1
# 2
  0
POINT
  8
2
 10
-651.690026
 20
-412.248776
  0
TEXT
  8
2
 10
-651.690026
 20
-412.248776
 40
0.000000
 50
0.000000
  1
# 3
  0
POINT
  8
2
 10
-653.012696
 20
-263.070128
  0
TEXT
  8
2
 10
-653.012696
 20
-263.070128
 40
0.000000
 50
0.000000
  1
# 4
  0
POINT
  8
2
 10
-573.631897
 20
-230.125778
  0
TEXT
  8
2
 10
-573.631897
 20
-230.125778
 40
0.000000
 50
0.000000
  1
# 5
  0
POINT
  8
2
 10
-479.629822
 20
-321.654246
  0
TEXT
  8
2
 10
-479.629822
 20
-321.654246
 40
0.000000
 50
0.000000
  1
# 6
  0
POINT
  8
2
 10
-384.815217
 20
-230.967748
  0
TEXT
  8
2
 10
-384.815217
 20
-230.967748
 40
0.000000
 50
0.000000
  1
# 7
  0
POINT
  8
2
 10
-305.731373
 20
-264.618723
  0
TEXT
  8
2
 10
-305.731373
 20
-264.618723
 40
0.000000
 50
0.000000
  1
# 8
  0
POINT
  8
2
 10
-308.384266
 20
-413.779032
  0
TEXT
  8
2
 10
-308.384266
 20
-413.779032
 40
0.000000
 50
0.000000
  1
# 9
  0
POINT
  8
2
 10
-330.849019
 20
-796.699407
  0
TEXT
  8
2
 10
-330.849019
 20
-796.699407
 40
0.000000
 50
0.000000
  1
# 10
  0
POINT
  8
3
 10
-497.864972
 20
-804.000086
  0
POINT
  8
3
 10
-513.204720
 20
-803.806312
  0
POINT
  8
3
 10
-527.062770
 20
-803.383443
  0
POINT
  8
3
 10
-542.593089
 20
-802.654808
  0
POINT
  8
3
 10
-558.118782
 20
-801.763167
  0
POINT
  8
3
 10
-573.573898
 20
-800.814623
  0
POINT
  8
3
 10
-589.088954
 20
-799.768808
  0
POINT
  8
3
 10
-603.878879
 20
-798.557809
  0
POINT
  8
3
 10
-616.991260
 20
-797.221337
  0
POINT
  8
3
 10
-631.497774
 20
-795.499835
  0
POINT
  8
3
 10
-631.473917
 20
-783.956169
  0
POINT
  8
3
 10
-629.852255
 20
-768.317115
  0
POINT
  8
3
 10
-628.267074
 20
-752.854228
  0
POINT
  8
3
 10
-626.773001
 20
-737.292174
  0
POINT
  8
3
 10
-625.357618
 20
-721.819871
  0
POINT
  8
3
 10
-623.889642
 20
-706.350999
  0
POINT
  8
3
 10
-622.244579
 20
-690.892822
  0
POINT
  8
3
 10
-620.630428
 20
-677.889044
  0
POINT
  8
3
 10
-618.504323
 20
-663.255672
  0
POINT
  8
3
 10
-616.149314
 20
-647.845447
  0
POINT
  8
3
 10
-614.453106
 20
-635.677882
  0
POINT
  8
3
 10
-613.337938
 20
-625.937029
  0
POINT
  8
3
 10
-612.648318
 20
-617.811874
  0
POINT
  8
3
 10
-612.341740
 20
-611.827153
  0
POINT
  8
3
 10
-612.242408
 20
-609.888082
  0
POINT
  8
3
 10
-612.126629
 20
-601.743787
  0
POINT
  8
3
 10
-612.297172
 20
-593.592662
  0
POINT
  8
3
 10
-612.730574
 20
-585.438127
  0
POINT
  8
3
 10
-613.482915
 20
-576.468279
  0
POINT
  8
3
 10
-614.597323
 20
-566.688349
  0
POINT
  8
3
 10
-616.104653
 20
-556.106400
  0
POINT
  8
3
 10
-618.019274
 20
-544.733947
  0
POINT
  8
3
 10
-620.496656
 20
-531.778450
  0
POINT
  8
3
 10
-623.711851
 20
-516.469985
  0
POINT
  8
3
 10
-627.122462
 20
-501.109934
  0
POINT
  8
3
 10
-630.666236
 20
-485.989015
  0
POINT
  8
3
 10
-634.383698
 20
-471.197866
  0
POINT
  8
3
 10
-638.216510
 20
-456.975947
  0
POINT
  8
3
 10
-642.403917
 20
-442.399156
  0
POINT
  8
3
 10
-646.883563
 20
-427.554937
  0
POINT
  8
3
 10
-650.949403
 20
-411.331868
  0
POINT
  8
3
 10
-648.953770
 20
-408.642210
  0
POINT
  8
3
 10
-647.031533
 20
-405.610403
  0
POINT
  8
3
 10
-645.315822
 20
-402.447260
  0
POINT
  8
3
 10
-643.691323
 20
-398.900705
  0
POINT
  8
3
 10
-642.145340
 20
-394.900754
  0
POINT
  8
3
 10
-640.650677
 20
-390.293957
  0
POINT
  8
3
 10
-639.393178
 20
-385.619713
  0
POINT
  8
3
 10
-638.336591
 20
-380.731042
  0
POINT
  8
3
 10
-637.517079
 20
-375.778862
  0
POINT
  8
3
 10
-636.916335
 20
-370.629128
  0
POINT
  8
3
 10
-636.546855
 20
-365.298780
  0
POINT
  8
3
 10
-636.401111
 20
-359.471786
  0
POINT
  8
3
 10
-636.504065
 20
-353.024200
  0
POINT
  8
3
 10
-636.898903
 20
-345.424841
  0
POINT
  8
3
 10
-637.643322
 20
-336.252334
  0
POINT
  8
3
 10
-638.764221
 20
-325.684626
  0
POINT
  8
3
 10
-639.941540
 20
-316.696367
  0
POINT
  8
3
 10
-641.234055
 20
-308.632903
  0
POINT
  8
3
 10
-642.753754
 20
-300.682361
  0
POINT
  8
3
 10
-644.527923
 20
-292.732608
  0
POINT
  8
3
 10
-646.642316
 20
-284.416832
  0
POINT
  8
3
 10
-649.289647
 20
-275.091657
  0
POINT
  8
3
 10
-638.153602
 20
-256.957977
  0
POINT
  8
3
 10
-624.737148
 20
-251.190456
  0
POINT
  8
3
 10
-610.911788
 20
-245.127551
  0
POINT
  8
3
 10
-598.549312
 20
-239.878730
  0
POINT
  8
3
 10
-585.898870
 20
-234.811601
  0
POINT
  8
3
 10
-573.274129
 20
-231.705371
  0
POINT
  8
3
 10
-571.610994
 20
-238.360905
  0
POINT
  8
3
 10
-569.994963
 20
-243.868161
  0
POINT
  8
3
 10
-567.892295
 20
-250.078912
  0
POINT
  8
3
 10
-565.131868
 20
-257.408048
  0
POINT
  8
3
 10
-562.318755
 20
-264.209475
  0
POINT
  8
3
 10
-559.495609
 20
-270.429960
  0
POINT
  8
3
 10
-556.868556
 20
-275.674849
  0
POINT
  8
3
 10
-554.294764
 20
-280.297966
  0
POINT
  8
3
 10
-551.687113
 20
-284.501618
  0
POINT
  8
3
 10
-548.993670
 20
-288.393901
  0
POINT
  8
3
 10
-546.139149
 20
-292.088433
  0
POINT
  8
3
 10
-543.160891
 20
-295.540234
  0
POINT
  8
3
 10
-540.070406
 20
-298.744560
  0
POINT
  8
3
 10
-536.892259
 20
-301.686848
  0
POINT
  8
3
 10
-533.528166
 20
-304.461099
  0
POINT
  8
3
 10
-530.005837
 20
-307.045075
  0
POINT
  8
3
 10
-526.342058
 20
-309.430824
  0
POINT
  8
3
 10
-522.452331
 20
-311.664864
  0
POINT
  8
3
 10
-518.448645
 20
-313.673722
  0
POINT
  8
3
 10
-514.348266
 20
-315.449497
  0
POINT
  8
3
 10
-510.277523
 20
-316.947936
  0
POINT
  8
3
 10
-506.143668
 20
-318.211654
  0
POINT
  8
3
 10
-501.784302
 20
-319.274378
  0
POINT
  8
3
 10
-497.036657
 20
-320.162804
  0
POINT
  8
3
 10
-491.956855
 20
-320.865435
  0
POINT
  8
3
 10
-486.463293
 20
-321.349539
  0
POINT
  8
3
 10
-479.629822
 20
-321.654246
  0
POINT
  8
3
 10
-472.793900
 20
-321.410493
  0
POINT
  8
3
 10
-467.296217
 20
-320.975400
  0
POINT
  8
3
 10
-462.210357
 20
-320.318100
  0
POINT
  8
3
 10
-457.454974
 20
-319.472048
  0
POINT
  8
3
 10
-453.086327
 20
-318.448249
  0
POINT
  8
3
 10
-448.941366
 20
-317.221448
  0
POINT
  8
3
 10
-444.857431
 20
-315.759369
  0
POINT
  8
3
 10
-440.741374
 20
-314.020230
  0
POINT
  8
3
 10
-436.719940
 20
-312.047168
  0
POINT
  8
3
 10
-432.810429
 20
-309.847898
  0
POINT
  8
3
 10
-429.125523
 20
-307.494922
  0
POINT
  8
3
 10
-425.580282
 20
-304.942459
  0
POINT
  8
3
 10
-422.191596
 20
-302.198324
  0
POINT
  8
3
 10
-418.987336
 20
-299.284493
  0
POINT
  8
3
 10
-415.868389
 20
-296.107855
  0
POINT
  8
3
 10
-412.859464
 20
-292.682748
  0
POINT
  8
3
 10
-409.972115
 20
-289.013831
  0
POINT
  8
3
 10
-407.244051
 20
-285.145711
  0
POINT
  8
3
 10
-404.599014
 20
-280.965482
  0
POINT
  8
3
 10
-401.984101
 20
-276.365514
  0
POINT
  8
3
 10
-399.310373
 20
-271.144262
  0
POINT
  8
3
 10
-396.431858
 20
-264.949197
  0
POINT
  8
3
 10
-393.558200
 20
-258.173129
  0
POINT
  8
3
 10
-390.732525
 20
-250.868902
  0
POINT
  8
3
 10
-388.574558
 20
-244.677150
  0
POINT
  8
3
 10
-386.909480
 20
-239.184525
  0
POINT
  8
3
 10
-385.187058
 20
-232.544087
  0
POINT
  8
3
 10
-372.590524
 20
-235.762783
  0
POINT
  8
3
 10
-359.985774
 20
-240.942530
  0
POINT
  8
3
 10
-347.670610
 20
-246.301390
  0
POINT
  8
3
 10
-333.899865
 20
-252.487353
  0
POINT
  8
3
 10
-320.535358
 20
-258.374304
  0
POINT
  8
3
 10
-309.561485
 20
-276.606571
  0
POINT
  8
3
 10
-312.291880
 20
-285.907766
  0
POINT
  8
3
 10
-314.480357
 20
-294.204354
  0
POINT
  8
3
 10
-316.325360
 20
-302.137975
  0
POINT
  8
3
 10
-317.915904
 20
-310.074647
  0
POINT
  8
3
 10
-319.280273
 20
-318.126255
  0
POINT
  8
3
 10
-320.537693
 20
-327.103657
  0
POINT
  8
3
 10
-321.752789
 20
-337.660954
  0
POINT
  8
3
 10
-322.578987
 20
-346.826457
  0
POINT
  8
3
 10
-323.041587
 20
-354.421992
  0
POINT
  8
3
 10
-323.202043
 20
-360.868402
  0
POINT
  8
3
 10
-323.108273
 20
-366.696464
  0
POINT
  8
3
 10
-322.786342
 20
-372.029894
  0
POINT
  8
3
 10
-322.231539
 20
-377.184782
  0
POINT
  8
3
 10
-321.456217
 20
-382.144074
  0
POINT
  8
3
 10
-320.443271
 20
-387.041979
  0
POINT
  8
3
 10
-319.227522
 20
-391.727245
  0
POINT
  8
3
 10
-317.774004
 20
-396.347192
  0
POINT
  8
3
 10
-316.263748
 20
-400.360769
  0
POINT
  8
3
 10
-314.670949
 20
-403.921671
  0
POINT
  8
3
 10
-312.983519
 20
-407.099996
  0
POINT
  8
3
 10
-311.088403
 20
-410.148817
  0
POINT
  8
3
 10
-309.116834
 20
-412.856169
  0
POINT
  8
3
 10
-313.327168
 20
-429.042327
  0
POINT
  8
3
 10
-317.939026
 20
-443.845999
  0
POINT
  8
3
 10
-322.256276
 20
-458.384880
  0
POINT
  8
3
 10
-326.215774
 20
-472.572050
  0
POINT
  8
3
 10
-330.064997
 20
-487.329449
  0
POINT
  8
3
 10
-333.743479
 20
-502.418163
  0
POINT
  8
3
 10
-337.290936
 20
-517.747195
  0
POINT
  8
3
 10
-340.642524
 20
-533.026378
  0
POINT
  8
3
 10
-343.235347
 20
-545.959267
  0
POINT
  8
3
 10
-345.251312
 20
-557.314194
  0
POINT
  8
3
 10
-346.852955
 20
-567.882279
  0
POINT
  8
3
 10
-348.054537
 20
-577.651882
  0
POINT
  8
3
 10
-348.886843
 20
-586.614664
  0
POINT
  8
3
 10
-349.392951
 20
-594.765010
  0
POINT
  8
3
 10
-349.636180
 20
-602.914289
  0
POINT
  8
3
 10
-349.593038
 20
-611.059293
  0
POINT
  8
3
 10
-349.511003
 20
-612.999158
  0
POINT
  8
3
 10
-349.257809
 20
-618.986384
  0
POINT
  8
3
 10
-348.640677
 20
-627.117366
  0
POINT
  8
3
 10
-347.612424
 20
-636.867776
  0
POINT
  8
3
 10
-346.024795
 20
-649.049984
  0
POINT
  8
3
 10
-343.807311
 20
-664.480596
  0
POINT
  8
3
 10
-341.811798
 20
-679.132330
  0
POINT
  8
3
 10
-340.313685
 20
-692.149984
  0
POINT
  8
3
 10
-338.806551
 20
-707.622216
  0
POINT
  8
3
 10
-337.476594
 20
-723.103564
  0
POINT
  8
3
 10
-336.199256
 20
-738.587874
  0
POINT
  8
3
 10
-334.844026
 20
-754.162659
  0
POINT
  8
3
 10
-333.396807
 20
-769.639072
  0
POINT
  8
3
 10
-331.914675
 20
-785.291971
  0
POINT
  8
3
 10
-331.993764
 20
-796.835381
  0
POINT
  8
3
 10
-346.515063
 20
-798.427442
  0
POINT
  8
3
 10
-359.638858
 20
-799.646923
  0
POINT
  8
3
 10
-374.438993
 20
-800.725973
  0
POINT
  8
3
 10
-389.962755
 20
-801.633378
  0
POINT
  8
3
 10
-405.425703
 20
-802.444050
  0
POINT
  8
3
 10
-420.958729
 20
-803.197194
  0
POINT
  8
3
 10
-436.494928
 20
-803.787297
  0
POINT
  8
3
 10
-450.356190
 20
-804.086561
  0
POINT
  8
3
 10
-465.697059
 20
-804.143526
  0
POINT
  8
4
 10
-612.341740
 20
-611.827153
  0
TEXT
  8
4
 10
-612.341740
 20
-611.827153
 40
0.000000
 50
0.000000
  1
# 11
  0
POINT
  8
4
 10
-479.629822
 20
-321.654246
  0
TEXT
  8
4
 10
-479.629822
 20
-321.654246
 40
0.000000
 50
0.000000
  1
# 12
  0
POINT
  8
4
 10
-349.511003
 20
-612.999158
  0
TEXT
  8
4
 10
-349.511003
 20
-612.999158
 40
0.000000
 50
0.000000
  1
# 13
 0
LINE
 8
7
 10
-420.675965
 20
-733.437383
 11
-420.675965
 21
-360.110972
  0
TEXT
  8
1
 10
-479.359007
 20
-522.865220
 40
10.000000
 50
0.000000
  1
Piece Name: 前片
  0
TEXT
  8
1
 10
-479.359007
 20
-507.865220
 40
10.000000
 50
0.000000
  1
Size: M
  0
TEXT
  8
1
 10
-479.359007
 20
-492.865220
 40
10.000000
 50
0.000000
  1
Annotation: 
  0
TEXT
  8
1
 10
-479.359007
 20
-477.865220
 40
10.000000
 50
0.000000
  1
Quantity: 1
  0
TEXT
  8
1
 10
-479.359007
 20
-462.865220
 40
10.000000
 50
0.000000
  1
Category: 0
0
ENDBLK
0
BLOCK
  8
1
  2
后片-M
 70
0
 10
0.0
 20
0.0
  0
POLYLINE
  8
1
  66
1
  70
1
  0
VERTEX
  8
1
  10
-81.313363
  20
-799.381597
  0
VERTEX
  8
1
  10
-80.841888
  20
-792.065649
  0
VERTEX
  8
1
  10
-79.803356
  20
-777.303924
  0
VERTEX
  8
1
  10
-78.613798
  20
-761.859740
  0
VERTEX
  8
1
  10
-77.342126
  20
-746.712375
  0
VERTEX
  8
1
  10
-75.937430
  20
-731.399616
  0
VERTEX
  8
1
  10
-74.367254
  20
-715.878402
  0
VERTEX
  8
1
  10
-72.619753
  20
-700.103879
  0
VERTEX
  8
1
  10
-70.806293
  20
-684.334375
  0
VERTEX
  8
1
  10
-69.026349
  20
-668.557846
  0
VERTEX
  8
1
  10
-67.451993
  20
-653.477716
  0
VERTEX
  8
1
  10
-66.290956
  20
-640.451941
  0
VERTEX
  8
1
  10
-65.524260
  20
-629.272333
  0
VERTEX
  8
1
  10
-65.121679
  20
-620.147895
  0
VERTEX
  8
1
  10
-65.054182
  20
-618.618083
  0
VERTEX
  8
1
  10
-64.879336
  20
-608.346206
  0
VERTEX
  8
1
  10
-64.970164
  20
-598.070232
  0
VERTEX
  8
1
  10
-65.312141
  20
-587.797763
  0
VERTEX
  8
1
  10
-65.954572
  20
-576.604365
  0
VERTEX
  8
1
  10
-66.907796
  20
-564.888128
  0
VERTEX
  8
1
  10
-68.254862
  20
-551.884015
  0
VERTEX
  8
1
  10
-70.083461
  20
-537.053718
  0
VERTEX
  8
1
  10
-72.250462
  20
-521.468077
  0
VERTEX
  8
1
  10
-74.659395
  20
-505.774053
  0
VERTEX
  8
1
  10
-77.292362
  20
-490.116201
  0
VERTEX
  8
1
  10
-80.150152
  20
-474.498186
  0
VERTEX
  8
1
  10
-83.233549
  20
-458.923673
  0
VERTEX
  8
1
  10
-86.541051
  20
-443.407730
  0
VERTEX
  8
1
  10
-90.079932
  20
-427.931929
  0
VERTEX
  8
1
  10
-93.783494
  20
-412.779092
  0
VERTEX
  8
1
  10
-97.598143
  20
-398.036960
  0
VERTEX
  8
1
  10
-101.839638
  20
-382.297094
  0
VERTEX
  8
1
  10
-101.068168
  20
-375.516305
  0
VERTEX
  8
1
  10
-100.393511
  20
-367.932421
  0
VERTEX
  8
1
  10
-99.953634
  20
-360.084269
  0
VERTEX
  8
1
  10
-99.752403
  20
-351.656711
  0
VERTEX
  8
1
  10
-99.808292
  20
-343.302885
  0
VERTEX
  8
1
  10
-100.129646
  20
-334.461631
  0
VERTEX
  8
1
  10
-100.706459
  20
-325.631111
  0
VERTEX
  8
1
  10
-101.576460
  20
-316.329136
  0
VERTEX
  8
1
  10
-102.701707
  20
-307.026900
  0
VERTEX
  8
1
  10
-104.067576
  20
-297.788591
  0
VERTEX
  8
1
  10
-105.596860
  20
-289.078813
  0
VERTEX
  8
1
  10
-107.367945
  20
-280.416547
  0
VERTEX
  8
1
  10
-109.567893
  20
-271.015317
  0
VERTEX
  8
1
  10
-112.395529
  20
-260.149071
  0
VERTEX
  8
1
  10
-115.657540
  20
-248.736761
  0
VERTEX
  8
1
  10
-104.396229
  20
-245.757733
  0
VERTEX
  8
1
  10
-91.657693
  20
-242.132660
  0
VERTEX
  8
1
  10
-79.035658
  20
-238.282990
  0
VERTEX
  8
1
  10
-67.366173
  20
-234.460079
  0
VERTEX
  8
1
  10
-56.962254
  20
-230.787131
  0
VERTEX
  8
1
  10
-44.756490
  20
-226.145684
  0
VERTEX
  8
1
  10
-30.276070
  20
-220.276067
  0
VERTEX
  8
1
  10
-26.743769
  20
-225.730334
  0
VERTEX
  8
1
  10
-23.942051
  20
-229.612839
  0
VERTEX
  8
1
  10
-21.071242
  20
-233.169276
  0
VERTEX
  8
1
  10
-18.058172
  20
-236.513819
  0
VERTEX
  8
1
  10
-14.869065
  20
-239.689922
  0
VERTEX
  8
1
  10
-11.755070
  20
-242.458122
  0
VERTEX
  8
1
  10
-8.722145
  20
-244.836044
  0
VERTEX
  8
1
  10
-5.762066
  20
-246.854524
  0
VERTEX
  8
1
  10
-2.742716
  20
-248.618940
  0
VERTEX
  8
1
  10
0.574792
  20
-250.264390
  0
VERTEX
  8
1
  10
4.351877
  20
-251.852448
  0
VERTEX
  8
1
  10
8.017075
  20
-253.133291
  0
VERTEX
  8
1
  10
11.978850
  20
-254.241920
  0
VERTEX
  8
1
  10
16.783043
  20
-255.304562
  0
VERTEX
  8
1
  10
22.966954
  20
-256.402120
  0
VERTEX
  8
1
  10
29.631133
  20
-257.329871
  0
VERTEX
  8
1
  10
36.736525
  20
-258.066683
  0
VERTEX
  8
1
  10
44.610449
  20
-258.625523
  0
VERTEX
  8
1
  10
53.512577
  20
-258.994408
  0
VERTEX
  8
1
  10
64.462436
  20
-259.184180
  0
VERTEX
  8
1
  10
68.061180
  20
-259.191930
  0
VERTEX
  8
1
  10
68.061180
  20
-259.191930
  0
VERTEX
  8
1
  10
71.659923
  20
-259.184180
  0
VERTEX
  8
1
  10
82.609782
  20
-258.994408
  0
VERTEX
  8
1
  10
91.511908
  20
-258.625523
  0
VERTEX
  8
1
  10
99.385832
  20
-258.066684
  0
VERTEX
  8
1
  10
106.491235
  20
-257.329871
  0
VERTEX
  8
1
  10
113.155414
  20
-256.402119
  0
VERTEX
  8
1
  10
119.339322
  20
-255.304561
  0
VERTEX
  8
1
  10
124.143510
  20
-254.241919
  0
VERTEX
  8
1
  10
128.105273
  20
-253.133292
  0
VERTEX
  8
1
  10
131.770473
  20
-251.852449
  0
VERTEX
  8
1
  10
135.547563
  20
-250.264391
  0
VERTEX
  8
1
  10
138.865075
  20
-248.618940
  0
VERTEX
  8
1
  10
141.884422
  20
-246.854524
  0
VERTEX
  8
1
  10
144.844499
  20
-244.836044
  0
VERTEX
  8
1
  10
147.877430
  20
-242.458122
  0
VERTEX
  8
1
  10
150.991421
  20
-239.689922
  0
VERTEX
  8
1
  10
154.180534
  20
-236.513819
  0
VERTEX
  8
1
  10
157.193602
  20
-233.169276
  0
VERTEX
  8
1
  10
160.064413
  20
-229.612839
  0
VERTEX
  8
1
  10
162.866131
  20
-225.730334
  0
VERTEX
  8
1
  10
166.398429
  20
-220.275915
  0
VERTEX
  8
1
  10
180.878850
  20
-226.145684
  0
VERTEX
  8
1
  10
193.084613
  20
-230.787131
  0
VERTEX
  8
1
  10
203.488532
  20
-234.460079
  0
VERTEX
  8
1
  10
215.158017
  20
-238.282990
  0
VERTEX
  8
1
  10
227.780052
  20
-242.132660
  0
VERTEX
  8
1
  10
240.518588
  20
-245.757733
  0
VERTEX
  8
1
  10
251.779899
  20
-248.736761
  0
VERTEX
  8
1
  10
248.517888
  20
-260.149071
  0
VERTEX
  8
1
  10
245.690253
  20
-271.015317
  0
VERTEX
  8
1
  10
243.490304
  20
-280.416547
  0
VERTEX
  8
1
  10
241.719219
  20
-289.078813
  0
VERTEX
  8
1
  10
240.189935
  20
-297.788591
  0
VERTEX
  8
1
  10
238.824067
  20
-307.026900
  0
VERTEX
  8
1
  10
237.698819
  20
-316.329136
  0
VERTEX
  8
1
  10
236.828818
  20
-325.631111
  0
VERTEX
  8
1
  10
236.252005
  20
-334.461631
  0
VERTEX
  8
1
  10
235.930651
  20
-343.302885
  0
VERTEX
  8
1
  10
235.874762
  20
-351.656711
  0
VERTEX
  8
1
  10
236.075993
  20
-360.084269
  0
VERTEX
  8
1
  10
236.515870
  20
-367.932421
  0
VERTEX
  8
1
  10
237.190527
  20
-375.516305
  0
VERTEX
  8
1
  10
237.962760
  20
-382.296941
  0
VERTEX
  8
1
  10
233.720503
  20
-398.036960
  0
VERTEX
  8
1
  10
229.905853
  20
-412.779092
  0
VERTEX
  8
1
  10
226.202291
  20
-427.931929
  0
VERTEX
  8
1
  10
222.663410
  20
-443.407730
  0
VERTEX
  8
1
  10
219.355908
  20
-458.923673
  0
VERTEX
  8
1
  10
216.272511
  20
-474.498186
  0
VERTEX
  8
1
  10
213.414722
  20
-490.116201
  0
VERTEX
  8
1
  10
210.781754
  20
-505.774053
  0
VERTEX
  8
1
  10
208.372821
  20
-521.468077
  0
VERTEX
  8
1
  10
206.205820
  20
-537.053718
  0
VERTEX
  8
1
  10
204.377221
  20
-551.884015
  0
VERTEX
  8
1
  10
203.030155
  20
-564.888128
  0
VERTEX
  8
1
  10
202.076931
  20
-576.604365
  0
VERTEX
  8
1
  10
201.434501
  20
-587.797763
  0
VERTEX
  8
1
  10
201.092524
  20
-598.070232
  0
VERTEX
  8
1
  10
201.001695
  20
-608.346206
  0
VERTEX
  8
1
  10
201.176541
  20
-618.618083
  0
VERTEX
  8
1
  10
201.244038
  20
-620.147895
  0
VERTEX
  8
1
  10
201.646619
  20
-629.272333
  0
VERTEX
  8
1
  10
202.413315
  20
-640.451941
  0
VERTEX
  8
1
  10
203.574353
  20
-653.477716
  0
VERTEX
  8
1
  10
205.148708
  20
-668.557846
  0
VERTEX
  8
1
  10
206.928652
  20
-684.334375
  0
VERTEX
  8
1
  10
208.742112
  20
-700.103879
  0
VERTEX
  8
1
  10
210.489614
  20
-715.878402
  0
VERTEX
  8
1
  10
212.059789
  20
-731.399616
  0
VERTEX
  8
1
  10
213.464485
  20
-746.712375
  0
VERTEX
  8
1
  10
214.736157
  20
-761.859740
  0
VERTEX
  8
1
  10
215.925715
  20
-777.303924
  0
VERTEX
  8
1
  10
216.964248
  20
-792.065649
  0
VERTEX
  8
1
  10
217.431449
  20
-799.381902
  0
VERTEX
  8
1
  10
201.420970
  20
-800.166176
  0
VERTEX
  8
1
  10
185.872604
  20
-800.809255
  0
VERTEX
  8
1
  10
170.200799
  20
-801.302051
  0
VERTEX
  8
1
  10
154.527809
  20
-801.656818
  0
VERTEX
  8
1
  10
138.852387
  20
-801.923429
  0
VERTEX
  8
1
  10
123.154743
  20
-802.141006
  0
VERTEX
  8
1
  10
107.478641
  20
-802.281200
  0
VERTEX
  8
1
  10
91.872335
  20
-802.295581
  0
VERTEX
  8
1
  10
76.575958
  20
-802.196295
  0
VERTEX
  8
1
  10
68.061180
  20
-802.101018
  0
VERTEX
  8
1
  10
59.546401
  20
-802.196295
  0
VERTEX
  8
1
  10
44.250024
  20
-802.295581
  0
VERTEX
  8
1
  10
28.643718
  20
-802.281200
  0
VERTEX
  8
1
  10
12.967616
  20
-802.141006
  0
VERTEX
  8
1
  10
-2.730028
  20
-801.923429
  0
VERTEX
  8
1
  10
-18.405450
  20
-801.656818
  0
VERTEX
  8
1
  10
-34.078440
  20
-801.302051
  0
VERTEX
  8
1
  10
-49.750245
  20
-800.809255
  0
VERTEX
  8
1
  10
-65.298611
  20
-800.166176
  0
SEQEND
  8
1
  0
POINT
  8
2
 10
-81.313363
 20
-799.381597
  0
TEXT
  8
2
 10
-81.313363
 20
-799.381597
 40
0.000000
 50
0.000000
  1
# 14
  0
POINT
  8
2
 10
-101.839638
 20
-382.297094
  0
TEXT
  8
2
 10
-101.839638
 20
-382.297094
 40
0.000000
 50
0.000000
  1
# 15
  0
POINT
  8
2
 10
-115.657540
 20
-248.736761
  0
TEXT
  8
2
 10
-115.657540
 20
-248.736761
 40
0.000000
 50
0.000000
  1
# 16
  0
POINT
  8
2
 10
-30.276070
 20
-220.276067
  0
TEXT
  8
2
 10
-30.276070
 20
-220.276067
 40
0.000000
 50
0.000000
  1
# 17
  0
POINT
  8
2
 10
68.061180
 20
-259.191930
  0
TEXT
  8
2
 10
68.061180
 20
-259.191930
 40
0.000000
 50
0.000000
  1
# 18
  0
POINT
  8
2
 10
166.398429
 20
-220.275915
  0
TEXT
  8
2
 10
166.398429
 20
-220.275915
 40
0.000000
 50
0.000000
  1
# 19
  0
POINT
  8
2
 10
251.779899
 20
-248.736761
  0
TEXT
  8
2
 10
251.779899
 20
-248.736761
 40
0.000000
 50
0.000000
  1
# 20
  0
POINT
  8
2
 10
237.962760
 20
-382.296941
  0
TEXT
  8
2
 10
237.962760
 20
-382.296941
 40
0.000000
 50
0.000000
  1
# 21
  0
POINT
  8
2
 10
217.431449
 20
-799.381902
  0
TEXT
  8
2
 10
217.431449
 20
-799.381902
 40
0.000000
 50
0.000000
  1
# 22
  0
POINT
  8
2
 10
68.061180
 20
-802.101018
  0
TEXT
  8
2
 10
68.061180
 20
-802.101018
 40
0.000000
 50
0.000000
  1
# 23
  0
POINT
  8
3
 10
-80.841888
 20
-792.065649
  0
POINT
  8
3
 10
-79.803356
 20
-777.303924
  0
POINT
  8
3
 10
-78.613798
 20
-761.859740
  0
POINT
  8
3
 10
-77.342126
 20
-746.712375
  0
POINT
  8
3
 10
-75.937430
 20
-731.399616
  0
POINT
  8
3
 10
-74.367254
 20
-715.878402
  0
POINT
  8
3
 10
-72.619753
 20
-700.103879
  0
POINT
  8
3
 10
-70.806293
 20
-684.334375
  0
POINT
  8
3
 10
-69.026349
 20
-668.557846
  0
POINT
  8
3
 10
-67.451993
 20
-653.477716
  0
POINT
  8
3
 10
-66.290956
 20
-640.451941
  0
POINT
  8
3
 10
-65.524260
 20
-629.272333
  0
POINT
  8
3
 10
-65.121679
 20
-620.147895
  0
POINT
  8
3
 10
-65.054182
 20
-618.618083
  0
POINT
  8
3
 10
-64.879336
 20
-608.346206
  0
POINT
  8
3
 10
-64.970164
 20
-598.070232
  0
POINT
  8
3
 10
-65.312141
 20
-587.797763
  0
POINT
  8
3
 10
-65.954572
 20
-576.604365
  0
POINT
  8
3
 10
-66.907796
 20
-564.888128
  0
POINT
  8
3
 10
-68.254862
 20
-551.884015
  0
POINT
  8
3
 10
-70.083461
 20
-537.053718
  0
POINT
  8
3
 10
-72.250462
 20
-521.468077
  0
POINT
  8
3
 10
-74.659395
 20
-505.774053
  0
POINT
  8
3
 10
-77.292362
 20
-490.116201
  0
POINT
  8
3
 10
-80.150152
 20
-474.498186
  0
POINT
  8
3
 10
-83.233549
 20
-458.923673
  0
POINT
  8
3
 10
-86.541051
 20
-443.407730
  0
POINT
  8
3
 10
-90.079932
 20
-427.931929
  0
POINT
  8
3
 10
-93.783494
 20
-412.779092
  0
POINT
  8
3
 10
-97.598143
 20
-398.036960
  0
POINT
  8
3
 10
-101.068168
 20
-375.516305
  0
POINT
  8
3
 10
-100.393511
 20
-367.932421
  0
POINT
  8
3
 10
-99.953634
 20
-360.084269
  0
POINT
  8
3
 10
-99.752403
 20
-351.656711
  0
POINT
  8
3
 10
-99.808292
 20
-343.302885
  0
POINT
  8
3
 10
-100.129646
 20
-334.461631
  0
POINT
  8
3
 10
-100.706459
 20
-325.631111
  0
POINT
  8
3
 10
-101.576460
 20
-316.329136
  0
POINT
  8
3
 10
-102.701707
 20
-307.026900
  0
POINT
  8
3
 10
-104.067576
 20
-297.788591
  0
POINT
  8
3
 10
-105.596860
 20
-289.078813
  0
POINT
  8
3
 10
-107.367945
 20
-280.416547
  0
POINT
  8
3
 10
-109.567893
 20
-271.015317
  0
POINT
  8
3
 10
-112.395529
 20
-260.149071
  0
POINT
  8
3
 10
-104.396229
 20
-245.757733
  0
POINT
  8
3
 10
-91.657693
 20
-242.132660
  0
POINT
  8
3
 10
-79.035658
 20
-238.282990
  0
POINT
  8
3
 10
-67.366173
 20
-234.460079
  0
POINT
  8
3
 10
-56.962254
 20
-230.787131
  0
POINT
  8
3
 10
-44.756490
 20
-226.145684
  0
POINT
  8
3
 10
-26.743769
 20
-225.730334
  0
POINT
  8
3
 10
-23.942051
 20
-229.612839
  0
POINT
  8
3
 10
-21.071242
 20
-233.169276
  0
POINT
  8
3
 10
-18.058172
 20
-236.513819
  0
POINT
  8
3
 10
-14.869065
 20
-239.689922
  0
POINT
  8
3
 10
-11.755070
 20
-242.458122
  0
POINT
  8
3
 10
-8.722145
 20
-244.836044
  0
POINT
  8
3
 10
-5.762066
 20
-246.854524
  0
POINT
  8
3
 10
-2.742716
 20
-248.618940
  0
POINT
  8
3
 10
0.574792
 20
-250.264390
  0
POINT
  8
3
 10
4.351877
 20
-251.852448
  0
POINT
  8
3
 10
8.017075
 20
-253.133291
  0
POINT
  8
3
 10
11.978850
 20
-254.241920
  0
POINT
  8
3
 10
16.783043
 20
-255.304562
  0
POINT
  8
3
 10
22.966954
 20
-256.402120
  0
POINT
  8
3
 10
29.631133
 20
-257.329871
  0
POINT
  8
3
 10
36.736525
 20
-258.066683
  0
POINT
  8
3
 10
44.610449
 20
-258.625523
  0
POINT
  8
3
 10
53.512577
 20
-258.994408
  0
POINT
  8
3
 10
64.462436
 20
-259.184180
  0
POINT
  8
3
 10
68.061180
 20
-259.191930
  0
POINT
  8
3
 10
71.659923
 20
-259.184180
  0
POINT
  8
3
 10
82.609782
 20
-258.994408
  0
POINT
  8
3
 10
91.511908
 20
-258.625523
  0
POINT
  8
3
 10
99.385832
 20
-258.066684
  0
POINT
  8
3
 10
106.491235
 20
-257.329871
  0
POINT
  8
3
 10
113.155414
 20
-256.402119
  0
POINT
  8
3
 10
119.339322
 20
-255.304561
  0
POINT
  8
3
 10
124.143510
 20
-254.241919
  0
POINT
  8
3
 10
128.105273
 20
-253.133292
  0
POINT
  8
3
 10
131.770473
 20
-251.852449
  0
POINT
  8
3
 10
135.547563
 20
-250.264391
  0
POINT
  8
3
 10
138.865075
 20
-248.618940
  0
POINT
  8
3
 10
141.884422
 20
-246.854524
  0
POINT
  8
3
 10
144.844499
 20
-244.836044
  0
POINT
  8
3
 10
147.877430
 20
-242.458122
  0
POINT
  8
3
 10
150.991421
 20
-239.689922
  0
POINT
  8
3
 10
154.180534
 20
-236.513819
  0
POINT
  8
3
 10
157.193602
 20
-233.169276
  0
POINT
  8
3
 10
160.064413
 20
-229.612839
  0
POINT
  8
3
 10
162.866131
 20
-225.730334
  0
POINT
  8
3
 10
180.878850
 20
-226.145684
  0
POINT
  8
3
 10
193.084613
 20
-230.787131
  0
POINT
  8
3
 10
203.488532
 20
-234.460079
  0
POINT
  8
3
 10
215.158017
 20
-238.282990
  0
POINT
  8
3
 10
227.780052
 20
-242.132660
  0
POINT
  8
3
 10
240.518588
 20
-245.757733
  0
POINT
  8
3
 10
248.517888
 20
-260.149071
  0
POINT
  8
3
 10
245.690253
 20
-271.015317
  0
POINT
  8
3
 10
243.490304
 20
-280.416547
  0
POINT
  8
3
 10
241.719219
 20
-289.078813
  0
POINT
  8
3
 10
240.189935
 20
-297.788591
  0
POINT
  8
3
 10
238.824067
 20
-307.026900
  0
POINT
  8
3
 10
237.698819
 20
-316.329136
  0
POINT
  8
3
 10
236.828818
 20
-325.631111
  0
POINT
  8
3
 10
236.252005
 20
-334.461631
  0
POINT
  8
3
 10
235.930651
 20
-343.302885
  0
POINT
  8
3
 10
235.874762
 20
-351.656711
  0
POINT
  8
3
 10
236.075993
 20
-360.084269
  0
POINT
  8
3
 10
236.515870
 20
-367.932421
  0
POINT
  8
3
 10
237.190527
 20
-375.516305
  0
POINT
  8
3
 10
233.720503
 20
-398.036960
  0
POINT
  8
3
 10
229.905853
 20
-412.779092
  0
POINT
  8
3
 10
226.202291
 20
-427.931929
  0
POINT
  8
3
 10
222.663410
 20
-443.407730
  0
POINT
  8
3
 10
219.355908
 20
-458.923673
  0
POINT
  8
3
 10
216.272511
 20
-474.498186
  0
POINT
  8
3
 10
213.414722
 20
-490.116201
  0
POINT
  8
3
 10
210.781754
 20
-505.774053
  0
POINT
  8
3
 10
208.372821
 20
-521.468077
  0
POINT
  8
3
 10
206.205820
 20
-537.053718
  0
POINT
  8
3
 10
204.377221
 20
-551.884015
  0
POINT
  8
3
 10
203.030155
 20
-564.888128
  0
POINT
  8
3
 10
202.076931
 20
-576.604365
  0
POINT
  8
3
 10
201.434501
 20
-587.797763
  0
POINT
  8
3
 10
201.092524
 20
-598.070232
  0
POINT
  8
3
 10
201.001695
 20
-608.346206
  0
POINT
  8
3
 10
201.176541
 20
-618.618083
  0
POINT
  8
3
 10
201.244038
 20
-620.147895
  0
POINT
  8
3
 10
201.646619
 20
-629.272333
  0
POINT
  8
3
 10
202.413315
 20
-640.451941
  0
POINT
  8
3
 10
203.574353
 20
-653.477716
  0
POINT
  8
3
 10
205.148708
 20
-668.557846
  0
POINT
  8
3
 10
206.928652
 20
-684.334375
  0
POINT
  8
3
 10
208.742112
 20
-700.103879
  0
POINT
  8
3
 10
210.489614
 20
-715.878402
  0
POINT
  8
3
 10
212.059789
 20
-731.399616
  0
POINT
  8
3
 10
213.464485
 20
-746.712375
  0
POINT
  8
3
 10
214.736157
 20
-761.859740
  0
POINT
  8
3
 10
215.925715
 20
-777.303924
  0
POINT
  8
3
 10
216.964248
 20
-792.065649
  0
POINT
  8
3
 10
201.420970
 20
-800.166176
  0
POINT
  8
3
 10
185.872604
 20
-800.809255
  0
POINT
  8
3
 10
170.200799
 20
-801.302051
  0
POINT
  8
3
 10
154.527809
 20
-801.656818
  0
POINT
  8
3
 10
138.852387
 20
-801.923429
  0
POINT
  8
3
 10
123.154743
 20
-802.141006
  0
POINT
  8
3
 10
107.478641
 20
-802.281200
  0
POINT
  8
3
 10
91.872335
 20
-802.295581
  0
POINT
  8
3
 10
76.575958
 20
-802.196295
  0
POINT
  8
3
 10
59.546401
 20
-802.196295
  0
POINT
  8
3
 10
44.250024
 20
-802.295581
  0
POINT
  8
3
 10
28.643718
 20
-802.281200
  0
POINT
  8
3
 10
12.967616
 20
-802.141006
  0
POINT
  8
3
 10
-2.730028
 20
-801.923429
  0
POINT
  8
3
 10
-18.405450
 20
-801.656818
  0
POINT
  8
3
 10
-34.078440
 20
-801.302051
  0
POINT
  8
3
 10
-49.750245
 20
-800.809255
  0
POINT
  8
3
 10
-65.298611
 20
-800.166176
  0
POINT
  8
4
 10
-65.121679
 20
-620.147895
  0
TEXT
  8
4
 10
-65.121679
 20
-620.147895
 40
0.000000
 50
0.000000
  1
# 24
  0
POINT
  8
4
 10
68.061180
 20
-259.191930
  0
TEXT
  8
4
 10
68.061180
 20
-259.191930
 40
0.000000
 50
0.000000
  1
# 25
  0
POINT
  8
4
 10
201.244038
 20
-620.147895
  0
TEXT
  8
4
 10
201.244038
 20
-620.147895
 40
0.000000
 50
0.000000
  1
# 26
 0
LINE
 8
7
 10
1.956748
 20
-736.507146
 11
1.956748
 21
-365.470006
  0
TEXT
  8
1
 10
68.061177
 20
-517.388181
 40
10.000000
 50
0.000000
  1
Piece Name: 后片
  0
TEXT
  8
1
 10
68.061177
 20
-502.388181
 40
10.000000
 50
0.000000
  1
Size: M
  0
TEXT
  8
1
 10
68.061177
 20
-487.388181
 40
10.000000
 50
0.000000
  1
Annotation: 
  0
TEXT
  8
1
 10
68.061177
 20
-472.388181
 40
10.000000
 50
0.000000
  1
Quantity: 1
  0
TEXT
  8
1
 10
68.061177
 20
-457.388181
 40
10.000000
 50
0.000000
  1
Category: 1
0
ENDBLK
0
BLOCK
  8
1
  2
侧片-M
 70
0
 10
0.0
 20
0.0
  0
POLYLINE
  8
1
  66
1
  70
1
  0
VERTEX
  8
1
  10
-268.949013
  20
-800.318181
  0
VERTEX
  8
1
  10
-268.418274
  20
-793.266340
  0
VERTEX
  8
1
  10
-267.282097
  20
-777.777098
  0
VERTEX
  8
1
  10
-266.160782
  20
-762.418602
  0
VERTEX
  8
1
  10
-264.910299
  20
-747.350738
  0
VERTEX
  8
1
  10
-263.382827
  20
-732.014956
  0
VERTEX
  8
1
  10
-261.658667
  20
-716.691377
  0
VERTEX
  8
1
  10
-259.817491
  20
-701.376897
  0
VERTEX
  8
1
  10
-257.938967
  20
-686.068413
  0
VERTEX
  8
1
  10
-256.102767
  20
-670.762820
  0
VERTEX
  8
1
  10
-254.388562
  20
-655.457015
  0
VERTEX
  8
1
  10
-252.876021
  20
-640.147894
  0
VERTEX
  8
1
  10
-251.772466
  20
-626.634616
  0
VERTEX
  8
1
  10
-251.153414
  20
-616.672253
  0
VERTEX
  8
1
  10
-250.987757
  20
-614.006341
  0
VERTEX
  8
1
  10
-250.462954
  20
-601.379587
  0
VERTEX
  8
1
  10
-250.142406
  20
-586.936955
  0
VERTEX
  8
1
  10
-250.070583
  20
-571.574685
  0
VERTEX
  8
1
  10
-250.212543
  20
-556.191768
  0
VERTEX
  8
1
  10
-250.503902
  20
-540.784981
  0
VERTEX
  8
1
  10
-250.880277
  20
-525.351103
  0
VERTEX
  8
1
  10
-251.277285
  20
-509.886910
  0
VERTEX
  8
1
  10
-251.630059
  20
-494.293416
  0
VERTEX
  8
1
  10
-251.695870
  20
-485.178287
  0
VERTEX
  8
1
  10
-251.510887
  20
-477.915361
  0
VERTEX
  8
1
  10
-251.078783
  20
-471.598824
  0
VERTEX
  8
1
  10
-250.447146
  20
-466.224030
  0
VERTEX
  8
1
  10
-249.504106
  20
-460.785332
  0
VERTEX
  8
1
  10
-248.072901
  20
-454.624657
  0
VERTEX
  8
1
  10
-246.098794
  20
-447.642478
  0
VERTEX
  8
1
  10
-241.316606
  20
-432.731948
  0
VERTEX
  8
1
  10
-236.315041
  20
-417.317846
  0
VERTEX
  8
1
  10
-232.146624
  20
-422.121782
  0
VERTEX
  8
1
  10
-228.927110
  20
-425.443643
  0
VERTEX
  8
1
  10
-225.873581
  20
-428.247203
  0
VERTEX
  8
1
  10
-222.899996
  20
-430.650681
  0
VERTEX
  8
1
  10
-219.861582
  20
-432.781527
  0
VERTEX
  8
1
  10
-216.855241
  20
-434.591454
  0
VERTEX
  8
1
  10
-213.729469
  20
-436.187130
  0
VERTEX
  8
1
  10
-210.514572
  20
-437.545450
  0
VERTEX
  8
1
  10
-207.340572
  20
-438.612148
  0
VERTEX
  8
1
  10
-204.405601
  20
-439.332308
  0
VERTEX
  8
1
  10
-201.400193
  20
-439.799050
  0
VERTEX
  8
1
  10
-198.112221
  20
-440.083654
  0
VERTEX
  8
1
  10
-198.109780
  20
-440.069616
  0
VERTEX
  8
1
  10
-196.025352
  20
-439.943355
  0
VERTEX
  8
1
  10
-192.921797
  20
-439.596880
  0
VERTEX
  8
1
  10
-190.015893
  20
-439.030085
  0
VERTEX
  8
1
  10
-187.110948
  20
-438.196756
  0
VERTEX
  8
1
  10
-183.715511
  20
-436.935617
  0
VERTEX
  8
1
  10
-179.791065
  20
-435.207666
  0
VERTEX
  8
1
  10
-176.914828
  20
-433.690013
  0
VERTEX
  8
1
  10
-174.006185
  20
-431.875998
  0
VERTEX
  8
1
  10
-171.271752
  20
-429.886169
  0
VERTEX
  8
1
  10
-168.692572
  20
-427.705672
  0
VERTEX
  8
1
  10
-166.345994
  20
-425.406273
  0
VERTEX
  8
1
  10
-164.183484
  20
-422.944357
  0
VERTEX
  8
1
  10
-162.133534
  20
-420.227961
  0
VERTEX
  8
1
  10
-160.161822
  20
-417.192323
  0
VERTEX
  8
1
  10
-158.287393
  20
-413.841908
  0
VERTEX
  8
1
  10
-156.464009
  20
-410.057373
  0
VERTEX
  8
1
  10
-154.700048
  20
-405.802208
  0
VERTEX
  8
1
  10
-153.081933
  20
-401.254706
  0
VERTEX
  8
1
  10
-151.618886
  20
-396.396994
  0
VERTEX
  8
1
  10
-150.358760
  20
-391.373858
  0
VERTEX
  8
1
  10
-149.232031
  20
-385.774333
  0
VERTEX
  8
1
  10
-148.131447
  20
-378.864019
  0
VERTEX
  8
1
  10
-144.044866
  20
-394.186862
  0
VERTEX
  8
1
  10
-140.105552
  20
-408.864982
  0
VERTEX
  8
1
  10
-136.653009
  20
-422.277055
  0
VERTEX
  8
1
  10
-134.376291
  20
-432.091155
  0
VERTEX
  8
1
  10
-132.903971
  20
-439.483468
  0
VERTEX
  8
1
  10
-131.632115
  20
-447.401865
  0
VERTEX
  8
1
  10
-130.821922
  20
-454.013666
  0
VERTEX
  8
1
  10
-130.142918
  20
-462.000236
  0
VERTEX
  8
1
  10
-129.755477
  20
-470.008741
  0
VERTEX
  8
1
  10
-129.617507
  20
-478.761916
  0
VERTEX
  8
1
  10
-129.743636
  20
-488.253627
  0
VERTEX
  8
1
  10
-130.149948
  20
-498.957682
  0
VERTEX
  8
1
  10
-130.882563
  20
-511.358289
  0
VERTEX
  8
1
  10
-132.048211
  20
-526.664441
  0
VERTEX
  8
1
  10
-133.345012
  20
-541.958988
  0
VERTEX
  8
1
  10
-134.605390
  20
-557.243989
  0
VERTEX
  8
1
  10
-135.618564
  20
-571.794142
  0
VERTEX
  8
1
  10
-136.198600
  20
-583.430571
  0
VERTEX
  8
1
  10
-136.484781
  20
-594.337619
  0
VERTEX
  8
1
  10
-136.482854
  20
-603.789342
  0
VERTEX
  8
1
  10
-136.238881
  20
-612.513586
  0
VERTEX
  8
1
  10
-136.004643
  20
-616.599315
  0
VERTEX
  8
1
  10
-135.759382
  20
-620.877300
  0
VERTEX
  8
1
  10
-134.893872
  20
-631.048159
  0
VERTEX
  8
1
  10
-133.454350
  20
-644.541258
  0
VERTEX
  8
1
  10
-131.604813
  20
-659.735229
  0
VERTEX
  8
1
  10
-129.680508
  20
-674.883724
  0
VERTEX
  8
1
  10
-127.766502
  20
-690.072322
  0
VERTEX
  8
1
  10
-125.926713
  20
-705.269183
  0
VERTEX
  8
1
  10
-124.220110
  20
-720.479593
  0
VERTEX
  8
1
  10
-122.723084
  20
-735.444905
  0
VERTEX
  8
1
  10
-121.355977
  20
-750.889446
  0
VERTEX
  8
1
  10
-120.134726
  20
-766.362392
  0
VERTEX
  8
1
  10
-119.074510
  20
-781.389907
  0
VERTEX
  8
1
  10
-118.169594
  20
-795.996587
  0
VERTEX
  8
1
  10
-131.991424
  20
-797.229698
  0
VERTEX
  8
1
  10
-147.272143
  20
-798.460120
  0
VERTEX
  8
1
  10
-162.357648
  20
-799.480394
  0
VERTEX
  8
1
  10
-177.436467
  20
-800.277657
  0
VERTEX
  8
1
  10
-192.545902
  20
-800.839681
  0
VERTEX
  8
1
  10
-207.555041
  20
-801.170290
  0
VERTEX
  8
1
  10
-222.674844
  20
-801.280209
  0
VERTEX
  8
1
  10
-237.785198
  20
-801.163060
  0
VERTEX
  8
1
  10
-253.323873
  20
-800.823518
  0
SEQEND
  8
1
  0
POINT
  8
2
 10
-268.949013
 20
-800.318181
  0
TEXT
  8
2
 10
-268.949013
 20
-800.318181
 40
0.000000
 50
0.000000
  1
# 27
  0
POINT
  8
2
 10
-236.315041
 20
-417.317846
  0
TEXT
  8
2
 10
-236.315041
 20
-417.317846
 40
0.000000
 50
0.000000
  1
# 28
  0
POINT
  8
2
 10
-198.109780
 20
-440.069616
  0
TEXT
  8
2
 10
-198.109780
 20
-440.069616
 40
0.000000
 50
0.000000
  1
# 29
  0
POINT
  8
2
 10
-148.131447
 20
-378.864019
  0
TEXT
  8
2
 10
-148.131447
 20
-378.864019
 40
0.000000
 50
0.000000
  1
# 30
  0
POINT
  8
2
 10
-118.169594
 20
-795.996587
  0
TEXT
  8
2
 10
-118.169594
 20
-795.996587
 40
0.000000
 50
0.000000
  1
# 31
  0
POINT
  8
3
 10
-268.418274
 20
-793.266340
  0
POINT
  8
3
 10
-267.282097
 20
-777.777098
  0
POINT
  8
3
 10
-266.160782
 20
-762.418602
  0
POINT
  8
3
 10
-264.910299
 20
-747.350738
  0
POINT
  8
3
 10
-263.382827
 20
-732.014956
  0
POINT
  8
3
 10
-261.658667
 20
-716.691377
  0
POINT
  8
3
 10
-259.817491
 20
-701.376897
  0
POINT
  8
3
 10
-257.938967
 20
-686.068413
  0
POINT
  8
3
 10
-256.102767
 20
-670.762820
  0
POINT
  8
3
 10
-254.388562
 20
-655.457015
  0
POINT
  8
3
 10
-252.876021
 20
-640.147894
  0
POINT
  8
3
 10
-251.772466
 20
-626.634616
  0
POINT
  8
3
 10
-251.153414
 20
-616.672253
  0
POINT
  8
3
 10
-250.987757
 20
-614.006341
  0
POINT
  8
3
 10
-250.462954
 20
-601.379587
  0
POINT
  8
3
 10
-250.142406
 20
-586.936955
  0
POINT
  8
3
 10
-250.070583
 20
-571.574685
  0
POINT
  8
3
 10
-250.212543
 20
-556.191768
  0
POINT
  8
3
 10
-250.503902
 20
-540.784981
  0
POINT
  8
3
 10
-250.880277
 20
-525.351103
  0
POINT
  8
3
 10
-251.277285
 20
-509.886910
  0
POINT
  8
3
 10
-251.630059
 20
-494.293416
  0
POINT
  8
3
 10
-251.695870
 20
-485.178287
  0
POINT
  8
3
 10
-251.510887
 20
-477.915361
  0
POINT
  8
3
 10
-251.078783
 20
-471.598824
  0
POINT
  8
3
 10
-250.447146
 20
-466.224030
  0
POINT
  8
3
 10
-249.504106
 20
-460.785332
  0
POINT
  8
3
 10
-248.072901
 20
-454.624657
  0
POINT
  8
3
 10
-246.098794
 20
-447.642478
  0
POINT
  8
3
 10
-241.316606
 20
-432.731948
  0
POINT
  8
3
 10
-232.146624
 20
-422.121782
  0
POINT
  8
3
 10
-228.927110
 20
-425.443643
  0
POINT
  8
3
 10
-225.873581
 20
-428.247203
  0
POINT
  8
3
 10
-222.899996
 20
-430.650681
  0
POINT
  8
3
 10
-219.861582
 20
-432.781527
  0
POINT
  8
3
 10
-216.855241
 20
-434.591454
  0
POINT
  8
3
 10
-213.729469
 20
-436.187130
  0
POINT
  8
3
 10
-210.514572
 20
-437.545450
  0
POINT
  8
3
 10
-207.340572
 20
-438.612148
  0
POINT
  8
3
 10
-204.405601
 20
-439.332308
  0
POINT
  8
3
 10
-201.400193
 20
-439.799050
  0
POINT
  8
3
 10
-198.112221
 20
-440.083654
  0
POINT
  8
3
 10
-196.025352
 20
-439.943355
  0
POINT
  8
3
 10
-192.921797
 20
-439.596880
  0
POINT
  8
3
 10
-190.015893
 20
-439.030085
  0
POINT
  8
3
 10
-187.110948
 20
-438.196756
  0
POINT
  8
3
 10
-183.715511
 20
-436.935617
  0
POINT
  8
3
 10
-179.791065
 20
-435.207666
  0
POINT
  8
3
 10
-176.914828
 20
-433.690013
  0
POINT
  8
3
 10
-174.006185
 20
-431.875998
  0
POINT
  8
3
 10
-171.271752
 20
-429.886169
  0
POINT
  8
3
 10
-168.692572
 20
-427.705672
  0
POINT
  8
3
 10
-166.345994
 20
-425.406273
  0
POINT
  8
3
 10
-164.183484
 20
-422.944357
  0
POINT
  8
3
 10
-162.133534
 20
-420.227961
  0
POINT
  8
3
 10
-160.161822
 20
-417.192323
  0
POINT
  8
3
 10
-158.287393
 20
-413.841908
  0
POINT
  8
3
 10
-156.464009
 20
-410.057373
  0
POINT
  8
3
 10
-154.700048
 20
-405.802208
  0
POINT
  8
3
 10
-153.081933
 20
-401.254706
  0
POINT
  8
3
 10
-151.618886
 20
-396.396994
  0
POINT
  8
3
 10
-150.358760
 20
-391.373858
  0
POINT
  8
3
 10
-149.232031
 20
-385.774333
  0
POINT
  8
3
 10
-144.044866
 20
-394.186862
  0
POINT
  8
3
 10
-140.105552
 20
-408.864982
  0
POINT
  8
3
 10
-136.653009
 20
-422.277055
  0
POINT
  8
3
 10
-134.376291
 20
-432.091155
  0
POINT
  8
3
 10
-132.903971
 20
-439.483468
  0
POINT
  8
3
 10
-131.632115
 20
-447.401865
  0
POINT
  8
3
 10
-130.821922
 20
-454.013666
  0
POINT
  8
3
 10
-130.142918
 20
-462.000236
  0
POINT
  8
3
 10
-129.755477
 20
-470.008741
  0
POINT
  8
3
 10
-129.617507
 20
-478.761916
  0
POINT
  8
3
 10
-129.743636
 20
-488.253627
  0
POINT
  8
3
 10
-130.149948
 20
-498.957682
  0
POINT
  8
3
 10
-130.882563
 20
-511.358289
  0
POINT
  8
3
 10
-132.048211
 20
-526.664441
  0
POINT
  8
3
 10
-133.345012
 20
-541.958988
  0
POINT
  8
3
 10
-134.605390
 20
-557.243989
  0
POINT
  8
3
 10
-135.618564
 20
-571.794142
  0
POINT
  8
3
 10
-136.198600
 20
-583.430571
  0
POINT
  8
3
 10
-136.484781
 20
-594.337619
  0
POINT
  8
3
 10
-136.482854
 20
-603.789342
  0
POINT
  8
3
 10
-136.238881
 20
-612.513586
  0
POINT
  8
3
 10
-136.004643
 20
-616.599315
  0
POINT
  8
3
 10
-135.759382
 20
-620.877300
  0
POINT
  8
3
 10
-134.893872
 20
-631.048159
  0
POINT
  8
3
 10
-133.454350
 20
-644.541258
  0
POINT
  8
3
 10
-131.604813
 20
-659.735229
  0
POINT
  8
3
 10
-129.680508
 20
-674.883724
  0
POINT
  8
3
 10
-127.766502
 20
-690.072322
  0
POINT
  8
3
 10
-125.926713
 20
-705.269183
  0
POINT
  8
3
 10
-124.220110
 20
-720.479593
  0
POINT
  8
3
 10
-122.723084
 20
-735.444905
  0
POINT
  8
3
 10
-121.355977
 20
-750.889446
  0
POINT
  8
3
 10
-120.134726
 20
-766.362392
  0
POINT
  8
3
 10
-119.074510
 20
-781.389907
  0
POINT
  8
3
 10
-131.991424
 20
-797.229698
  0
POINT
  8
3
 10
-147.272143
 20
-798.460120
  0
POINT
  8
3
 10
-162.357648
 20
-799.480394
  0
POINT
  8
3
 10
-177.436467
 20
-800.277657
  0
POINT
  8
3
 10
-192.545902
 20
-800.839681
  0
POINT
  8
3
 10
-207.555041
 20
-801.170290
  0
POINT
  8
3
 10
-222.674844
 20
-801.280209
  0
POINT
  8
3
 10
-237.785198
 20
-801.163060
  0
POINT
  8
3
 10
-253.323873
 20
-800.823518
  0
POINT
  8
4
 10
-251.153414
 20
-616.672253
  0
TEXT
  8
4
 10
-251.153414
 20
-616.672253
 40
0.000000
 50
0.000000
  1
# 32
  0
POINT
  8
4
 10
-198.112221
 20
-440.083654
  0
TEXT
  8
4
 10
-198.112221
 20
-440.083654
 40
0.000000
 50
0.000000
  1
# 33
  0
POINT
  8
4
 10
-136.004643
 20
-616.599315
  0
TEXT
  8
4
 10
-136.004643
 20
-616.599315
 40
0.000000
 50
0.000000
  1
# 34
 0
LINE
 8
7
 10
-192.463570
 20
-747.696721
 11
-192.463570
 21
-494.496038
  0
TEXT
  8
1
 10
-193.708246
 20
-584.423627
 40
10.000000
 50
0.000000
  1
Piece Name: 侧片
  0
TEXT
  8
1
 10
-193.708246
 20
-569.423627
 40
10.000000
 50
0.000000
  1
Size: M
  0
TEXT
  8
1
 10
-193.708246
 20
-554.423627
 40
10.000000
 50
0.000000
  1
Annotation: 
  0
TEXT
  8
1
 10
-193.708246
 20
-539.423627
 40
10.000000
 50
0.000000
  1
Quantity: 1
  0
TEXT
  8
1
 10
-193.708246
 20
-524.423627
 40
10.000000
 50
0.000000
  1
Category: 2
0
ENDBLK
0
BLOCK
  8
1
  2
后领包条-M
 70
0
 10
0.0
 20
0.0
  0
POLYLINE
  8
1
  66
1
  70
1
  0
VERTEX
  8
1
  10
-56.151569
  20
-148.378465
  0
VERTEX
  8
1
  10
-56.151569
  20
-133.378465
  0
VERTEX
  8
1
  10
123.848438
  20
-133.378465
  0
VERTEX
  8
1
  10
123.848438
  20
-148.378465
  0
SEQEND
  8
1
  0
POINT
  8
2
 10
-56.151569
 20
-148.378465
  0
TEXT
  8
2
 10
-56.151569
 20
-148.378465
 40
0.000000
 50
0.000000
  1
# 35
  0
POINT
  8
2
 10
-56.151569
 20
-133.378465
  0
TEXT
  8
2
 10
-56.151569
 20
-133.378465
 40
0.000000
 50
0.000000
  1
# 36
  0
POINT
  8
2
 10
123.848438
 20
-133.378465
  0
TEXT
  8
2
 10
123.848438
 20
-133.378465
 40
0.000000
 50
0.000000
  1
# 37
  0
POINT
  8
2
 10
123.848438
 20
-148.378465
  0
TEXT
  8
2
 10
123.848438
 20
-148.378465
 40
0.000000
 50
0.000000
  1
# 38
 0
LINE
 8
7
 10
25.282549
 20
-143.248155
 11
25.282549
 21
-136.149328
  0
TEXT
  8
1
 10
33.848437
 20
-140.878465
 40
10.000000
 50
0.000000
  1
Piece Name: 后领包条
  0
TEXT
  8
1
 10
33.848437
 20
-125.878465
 40
10.000000
 50
0.000000
  1
Size: M
  0
TEXT
  8
1
 10
33.848437
 20
-110.878465
 40
10.000000
 50
0.000000
  1
Annotation: 
  0
TEXT
  8
1
 10
33.848437
 20
-95.878465
 40
10.000000
 50
0.000000
  1
Quantity: 1
  0
TEXT
  8
1
 10
33.848437
 20
-80.878465
 40
10.000000
 50
0.000000
  1
Category: 3
0
ENDBLK
0
BLOCK
  8
1
  2
袖子-M
 70
0
 10
0.0
 20
0.0
  0
POLYLINE
  8
1
  66
1
  70
1
  0
VERTEX
  8
1
  10
-324.491921
  20
-62.859991
  0
VERTEX
  8
1
  10
-341.194802
  20
5.013392
  0
VERTEX
  8
1
  10
-336.209633
  20
5.976437
  0
VERTEX
  8
1
  10
-332.178972
  20
7.002109
  0
VERTEX
  8
1
  10
-328.665780
  20
8.155600
  0
VERTEX
  8
1
  10
-325.392819
  20
9.489096
  0
VERTEX
  8
1
  10
-322.224577
  20
11.049107
  0
VERTEX
  8
1
  10
-319.230823
  20
12.806891
  0
VERTEX
  8
1
  10
-316.334322
  20
14.804173
  0
VERTEX
  8
1
  10
-313.040812
  20
17.400010
  0
VERTEX
  8
1
  10
-308.785441
  20
21.129269
  0
VERTEX
  8
1
  10
-303.528802
  20
26.066451
  0
VERTEX
  8
1
  10
-298.608427
  20
31.017078
  0
VERTEX
  8
1
  10
-293.826086
  20
36.179641
  0
VERTEX
  8
1
  10
-288.887017
  20
41.884377
  0
VERTEX
  8
1
  10
-283.811709
  20
48.137256
  0
VERTEX
  8
1
  10
-278.526469
  20
55.055256
  0
VERTEX
  8
1
  10
-275.100899
  20
59.741078
  0
VERTEX
  8
1
  10
-272.337769
  20
63.612337
  0
VERTEX
  8
1
  10
-263.704792
  20
75.979513
  0
VERTEX
  8
1
  10
-255.816989
  20
87.149217
  0
VERTEX
  8
1
  10
-252.047817
  20
92.181877
  0
VERTEX
  8
1
  10
-248.324297
  20
96.713637
  0
VERTEX
  8
1
  10
-243.535231
  20
102.104521
  0
VERTEX
  8
1
  10
-238.158607
  20
107.804857
  0
VERTEX
  8
1
  10
-233.903527
  20
111.993792
  0
VERTEX
  8
1
  10
-229.793486
  20
115.696690
  0
VERTEX
  8
1
  10
-225.645492
  20
119.098538
  0
VERTEX
  8
1
  10
-221.681270
  20
122.048717
  0
VERTEX
  8
1
  10
-217.594624
  20
124.784010
  0
VERTEX
  8
1
  10
-213.448439
  20
127.251309
  0
VERTEX
  8
1
  10
-209.560844
  20
129.292838
  0
VERTEX
  8
1
  10
-205.426926
  20
131.190579
  0
VERTEX
  8
1
  10
-201.200708
  20
132.862368
  0
VERTEX
  8
1
  10
-196.706617
  20
134.365171
  0
VERTEX
  8
1
  10
-192.277687
  20
135.585253
  0
VERTEX
  8
1
  10
-187.772309
  20
136.572719
  0
VERTEX
  8
1
  10
-183.039443
  20
137.342045
  0
VERTEX
  8
1
  10
-178.868160
  20
137.800252
  0
VERTEX
  8
1
  10
-174.196474
  20
138.037594
  0
VERTEX
  8
1
  10
-169.147835
  20
138.044856
  0
VERTEX
  8
1
  10
-169.147835
  20
138.044856
  0
VERTEX
  8
1
  10
-163.577689
  20
137.669081
  0
VERTEX
  8
1
  10
-159.195632
  20
137.097412
  0
VERTEX
  8
1
  10
-154.859872
  20
136.287030
  0
VERTEX
  8
1
  10
-150.731685
  20
135.273695
  0
VERTEX
  8
1
  10
-146.599450
  20
134.006420
  0
VERTEX
  8
1
  10
-142.627982
  20
132.528973
  0
VERTEX
  8
1
  10
-138.765885
  20
130.821756
  0
VERTEX
  8
1
  10
-135.126428
  20
128.938966
  0
VERTEX
  8
1
  10
-131.620168
  20
126.837887
  0
VERTEX
  8
1
  10
-128.277974
  20
124.542896
  0
VERTEX
  8
1
  10
-124.938903
  20
121.945825
  0
VERTEX
  8
1
  10
-121.665199
  20
119.084511
  0
VERTEX
  8
1
  10
-118.437009
  20
115.933762
  0
VERTEX
  8
1
  10
-115.167215
  20
112.384395
  0
VERTEX
  8
1
  10
-112.022788
  20
108.599817
  0
VERTEX
  8
1
  10
-108.924747
  20
104.478293
  0
VERTEX
  8
1
  10
-105.816205
  20
99.921758
  0
VERTEX
  8
1
  10
-102.665973
  20
94.855376
  0
VERTEX
  8
1
  10
-99.347959
  20
89.031571
  0
VERTEX
  8
1
  10
-95.599059
  20
81.906970
  0
VERTEX
  8
1
  10
-89.987060
  20
70.528844
  0
VERTEX
  8
1
  10
-83.336783
  20
57.015592
  0
VERTEX
  8
1
  10
-78.341817
  20
47.353079
  0
VERTEX
  8
1
  10
-74.348608
  20
40.076801
  0
VERTEX
  8
1
  10
-71.432522
  20
35.220835
  0
VERTEX
  8
1
  10
-68.737849
  20
31.191574
  0
VERTEX
  8
1
  10
-66.814729
  20
28.574281
  0
VERTEX
  8
1
  10
-65.969919
  20
27.485789
  0
VERTEX
  8
1
  10
-63.105002
  20
24.047198
  0
VERTEX
  8
1
  10
-60.141461
  20
20.861700
  0
VERTEX
  8
1
  10
-57.124296
  20
17.974976
  0
VERTEX
  8
1
  10
-54.160284
  20
15.469392
  0
VERTEX
  8
1
  10
-51.146507
  20
13.236166
  0
VERTEX
  8
1
  10
-48.112098
  20
11.285880
  0
VERTEX
  8
1
  10
-44.946984
  20
9.549512
  0
VERTEX
  8
1
  10
-41.806252
  20
8.114104
  0
VERTEX
  8
1
  10
-38.717109
  20
6.975280
  0
VERTEX
  8
1
  10
-35.702648
  20
6.123465
  0
VERTEX
  8
1
  10
-32.336856
  20
5.455666
  0
VERTEX
  8
1
  10
-29.105721
  20
5.013545
  0
VERTEX
  8
1
  10
-44.736978
  20
-63.114965
  0
VERTEX
  8
1
  10
-46.362751
  20
-62.918038
  0
VERTEX
  8
1
  10
-60.936916
  20
-61.238438
  0
VERTEX
  8
1
  10
-76.607706
  20
-59.639451
  0
VERTEX
  8
1
  10
-92.112135
  20
-58.250302
  0
VERTEX
  8
1
  10
-107.767334
  20
-56.972722
  0
VERTEX
  8
1
  10
-123.294755
  20
-55.880840
  0
VERTEX
  8
1
  10
-137.934149
  20
-55.087964
  0
VERTEX
  8
1
  10
-153.490599
  20
-54.508084
  0
VERTEX
  8
1
  10
-169.056092
  20
-54.184484
  0
VERTEX
  8
1
  10
-184.310112
  20
-54.102778
  0
VERTEX
  8
1
  10
-199.880018
  20
-54.249217
  0
VERTEX
  8
1
  10
-215.446785
  20
-54.621356
  0
VERTEX
  8
1
  10
-231.007132
  20
-55.212914
  0
VERTEX
  8
1
  10
-246.557778
  20
-56.017609
  0
VERTEX
  8
1
  10
-262.095442
  20
-57.029160
  0
VERTEX
  8
1
  10
-277.812537
  20
-58.257811
  0
VERTEX
  8
1
  10
-292.989677
  20
-59.621602
  0
VERTEX
  8
1
  10
-308.494340
  20
-61.151886
  0
SEQEND
  8
1
  0
POINT
  8
2
 10
-324.491921
 20
-62.859991
  0
TEXT
  8
2
 10
-324.491921
 20
-62.859991
 40
0.000000
 50
0.000000
  1
# 39
  0
POINT
  8
2
 10
-341.194802
 20
5.013392
  0
TEXT
  8
2
 10
-341.194802
 20
5.013392
 40
0.000000
 50
0.000000
  1
# 40
  0
POINT
  8
2
 10
-169.147835
 20
138.044856
  0
TEXT
  8
2
 10
-169.147835
 20
138.044856
 40
0.000000
 50
0.000000
  1
# 41
  0
POINT
  8
2
 10
-29.105721
 20
5.013545
  0
TEXT
  8
2
 10
-29.105721
 20
5.013545
 40
0.000000
 50
0.000000
  1
# 42
  0
POINT
  8
2
 10
-44.736978
 20
-63.114965
  0
TEXT
  8
2
 10
-44.736978
 20
-63.114965
 40
0.000000
 50
0.000000
  1
# 43
  0
POINT
  8
3
 10
-336.209633
 20
5.976437
  0
POINT
  8
3
 10
-332.178972
 20
7.002109
  0
POINT
  8
3
 10
-328.665780
 20
8.155600
  0
POINT
  8
3
 10
-325.392819
 20
9.489096
  0
POINT
  8
3
 10
-322.224577
 20
11.049107
  0
POINT
  8
3
 10
-319.230823
 20
12.806891
  0
POINT
  8
3
 10
-316.334322
 20
14.804173
  0
POINT
  8
3
 10
-313.040812
 20
17.400010
  0
POINT
  8
3
 10
-308.785441
 20
21.129269
  0
POINT
  8
3
 10
-303.528802
 20
26.066451
  0
POINT
  8
3
 10
-298.608427
 20
31.017078
  0
POINT
  8
3
 10
-293.826086
 20
36.179641
  0
POINT
  8
3
 10
-288.887017
 20
41.884377
  0
POINT
  8
3
 10
-283.811709
 20
48.137256
  0
POINT
  8
3
 10
-278.526469
 20
55.055256
  0
POINT
  8
3
 10
-275.100899
 20
59.741078
  0
POINT
  8
3
 10
-272.337769
 20
63.612337
  0
POINT
  8
3
 10
-263.704792
 20
75.979513
  0
POINT
  8
3
 10
-255.816989
 20
87.149217
  0
POINT
  8
3
 10
-252.047817
 20
92.181877
  0
POINT
  8
3
 10
-248.324297
 20
96.713637
  0
POINT
  8
3
 10
-243.535231
 20
102.104521
  0
POINT
  8
3
 10
-238.158607
 20
107.804857
  0
POINT
  8
3
 10
-233.903527
 20
111.993792
  0
POINT
  8
3
 10
-229.793486
 20
115.696690
  0
POINT
  8
3
 10
-225.645492
 20
119.098538
  0
POINT
  8
3
 10
-221.681270
 20
122.048717
  0
POINT
  8
3
 10
-217.594624
 20
124.784010
  0
POINT
  8
3
 10
-213.448439
 20
127.251309
  0
POINT
  8
3
 10
-209.560844
 20
129.292838
  0
POINT
  8
3
 10
-205.426926
 20
131.190579
  0
POINT
  8
3
 10
-201.200708
 20
132.862368
  0
POINT
  8
3
 10
-196.706617
 20
134.365171
  0
POINT
  8
3
 10
-192.277687
 20
135.585253
  0
POINT
  8
3
 10
-187.772309
 20
136.572719
  0
POINT
  8
3
 10
-183.039443
 20
137.342045
  0
POINT
  8
3
 10
-178.868160
 20
137.800252
  0
POINT
  8
3
 10
-174.196474
 20
138.037594
  0
POINT
  8
3
 10
-169.147835
 20
138.044856
  0
POINT
  8
3
 10
-163.577689
 20
137.669081
  0
POINT
  8
3
 10
-159.195632
 20
137.097412
  0
POINT
  8
3
 10
-154.859872
 20
136.287030
  0
POINT
  8
3
 10
-150.731685
 20
135.273695
  0
POINT
  8
3
 10
-146.599450
 20
134.006420
  0
POINT
  8
3
 10
-142.627982
 20
132.528973
  0
POINT
  8
3
 10
-138.765885
 20
130.821756
  0
POINT
  8
3
 10
-135.126428
 20
128.938966
  0
POINT
  8
3
 10
-131.620168
 20
126.837887
  0
POINT
  8
3
 10
-128.277974
 20
124.542896
  0
POINT
  8
3
 10
-124.938903
 20
121.945825
  0
POINT
  8
3
 10
-121.665199
 20
119.084511
  0
POINT
  8
3
 10
-118.437009
 20
115.933762
  0
POINT
  8
3
 10
-115.167215
 20
112.384395
  0
POINT
  8
3
 10
-112.022788
 20
108.599817
  0
POINT
  8
3
 10
-108.924747
 20
104.478293
  0
POINT
  8
3
 10
-105.816205
 20
99.921758
  0
POINT
  8
3
 10
-102.665973
 20
94.855376
  0
POINT
  8
3
 10
-99.347959
 20
89.031571
  0
POINT
  8
3
 10
-95.599059
 20
81.906970
  0
POINT
  8
3
 10
-89.987060
 20
70.528844
  0
POINT
  8
3
 10
-83.336783
 20
57.015592
  0
POINT
  8
3
 10
-78.341817
 20
47.353079
  0
POINT
  8
3
 10
-74.348608
 20
40.076801
  0
POINT
  8
3
 10
-71.432522
 20
35.220835
  0
POINT
  8
3
 10
-68.737849
 20
31.191574
  0
POINT
  8
3
 10
-66.814729
 20
28.574281
  0
POINT
  8
3
 10
-65.969919
 20
27.485789
  0
POINT
  8
3
 10
-63.105002
 20
24.047198
  0
POINT
  8
3
 10
-60.141461
 20
20.861700
  0
POINT
  8
3
 10
-57.124296
 20
17.974976
  0
POINT
  8
3
 10
-54.160284
 20
15.469392
  0
POINT
  8
3
 10
-51.146507
 20
13.236166
  0
POINT
  8
3
 10
-48.112098
 20
11.285880
  0
POINT
  8
3
 10
-44.946984
 20
9.549512
  0
POINT
  8
3
 10
-41.806252
 20
8.114104
  0
POINT
  8
3
 10
-38.717109
 20
6.975280
  0
POINT
  8
3
 10
-35.702648
 20
6.123465
  0
POINT
  8
3
 10
-32.336856
 20
5.455666
  0
POINT
  8
3
 10
-46.362751
 20
-62.918038
  0
POINT
  8
3
 10
-60.936916
 20
-61.238438
  0
POINT
  8
3
 10
-76.607706
 20
-59.639451
  0
POINT
  8
3
 10
-92.112135
 20
-58.250302
  0
POINT
  8
3
 10
-107.767334
 20
-56.972722
  0
POINT
  8
3
 10
-123.294755
 20
-55.880840
  0
POINT
  8
3
 10
-137.934149
 20
-55.087964
  0
POINT
  8
3
 10
-153.490599
 20
-54.508084
  0
POINT
  8
3
 10
-169.056092
 20
-54.184484
  0
POINT
  8
3
 10
-184.310112
 20
-54.102778
  0
POINT
  8
3
 10
-199.880018
 20
-54.249217
  0
POINT
  8
3
 10
-215.446785
 20
-54.621356
  0
POINT
  8
3
 10
-231.007132
 20
-55.212914
  0
POINT
  8
3
 10
-246.557778
 20
-56.017609
  0
POINT
  8
3
 10
-262.095442
 20
-57.029160
  0
POINT
  8
3
 10
-277.812537
 20
-58.257811
  0
POINT
  8
3
 10
-292.989677
 20
-59.621602
  0
POINT
  8
3
 10
-308.494340
 20
-61.151886
  0
POINT
  8
4
 10
-275.100899
 20
59.741078
  0
TEXT
  8
4
 10
-275.100899
 20
59.741078
 40
0.000000
 50
0.000000
  1
# 44
  0
POINT
  8
4
 10
-169.147835
 20
138.044856
  0
TEXT
  8
4
 10
-169.147835
 20
138.044856
 40
0.000000
 50
0.000000
  1
# 45
  0
POINT
  8
4
 10
-66.814729
 20
28.574281
  0
TEXT
  8
4
 10
-66.814729
 20
28.574281
 40
0.000000
 50
0.000000
  1
# 46
 0
LINE
 8
7
 10
-168.685494
 20
-23.166692
 11
-168.685494
 21
111.371119
  0
TEXT
  8
1
 10
-185.155610
 20
30.359104
 40
10.000000
 50
0.000000
  1
Piece Name: 袖子
  0
TEXT
  8
1
 10
-185.155610
 20
45.359104
 40
10.000000
 50
0.000000
  1
Size: M
  0
TEXT
  8
1
 10
-185.155610
 20
60.359104
 40
10.000000
 50
0.000000
  1
Annotation: 
  0
TEXT
  8
1
 10
-185.155610
 20
75.359104
 40
10.000000
 50
0.000000
  1
Quantity: 1
  0
TEXT
  8
1
 10
-185.155610
 20
90.359104
 40
10.000000
 50
0.000000
  1
Category: 4
0
ENDBLK
0
BLOCK
  8
1
  2
领条-M
 70
0
 10
0.0
 20
0.0
  0
POLYLINE
  8
1
  66
1
  70
1
  0
VERTEX
  8
1
  10
-309.670144
  20
219.618037
  0
VERTEX
  8
1
  10
-309.670144
  20
251.618159
  0
VERTEX
  8
1
  10
-219.709969
  20
251.618159
  0
VERTEX
  8
1
  10
-219.709969
  20
251.618159
  0
VERTEX
  8
1
  10
-129.750100
  20
251.618159
  0
VERTEX
  8
1
  10
-129.750100
  20
251.618159
  0
VERTEX
  8
1
  10
-14.749947
  20
251.618159
  0
VERTEX
  8
1
  10
-14.749947
  20
251.618159
  0
VERTEX
  8
1
  10
100.250053
  20
251.618159
  0
VERTEX
  8
1
  10
100.250053
  20
219.618037
  0
VERTEX
  8
1
  10
-14.749947
  20
219.618037
  0
VERTEX
  8
1
  10
-14.749947
  20
219.618037
  0
VERTEX
  8
1
  10
-129.750100
  20
219.618037
  0
VERTEX
  8
1
  10
-129.750100
  20
219.618037
  0
VERTEX
  8
1
  10
-219.709969
  20
219.618037
  0
VERTEX
  8
1
  10
-219.709969
  20
219.618037
  0
SEQEND
  8
1
  0
POINT
  8
2
 10
-309.670144
 20
219.618037
  0
TEXT
  8
2
 10
-309.670144
 20
219.618037
 40
0.000000
 50
0.000000
  1
# 47
  0
POINT
  8
2
 10
-309.670144
 20
251.618159
  0
TEXT
  8
2
 10
-309.670144
 20
251.618159
 40
0.000000
 50
0.000000
  1
# 48
  0
POINT
  8
2
 10
-219.709969
 20
251.618159
  0
TEXT
  8
2
 10
-219.709969
 20
251.618159
 40
0.000000
 50
0.000000
  1
# 49
  0
POINT
  8
2
 10
-129.750100
 20
251.618159
  0
TEXT
  8
2
 10
-129.750100
 20
251.618159
 40
0.000000
 50
0.000000
  1
# 50
  0
POINT
  8
2
 10
-14.749947
 20
251.618159
  0
TEXT
  8
2
 10
-14.749947
 20
251.618159
 40
0.000000
 50
0.000000
  1
# 51
  0
POINT
  8
2
 10
100.250053
 20
251.618159
  0
TEXT
  8
2
 10
100.250053
 20
251.618159
 40
0.000000
 50
0.000000
  1
# 52
  0
POINT
  8
2
 10
100.250053
 20
219.618037
  0
TEXT
  8
2
 10
100.250053
 20
219.618037
 40
0.000000
 50
0.000000
  1
# 53
  0
POINT
  8
2
 10
-14.749947
 20
219.618037
  0
TEXT
  8
2
 10
-14.749947
 20
219.618037
 40
0.000000
 50
0.000000
  1
# 54
  0
POINT
  8
2
 10
-129.750100
 20
219.618037
  0
TEXT
  8
2
 10
-129.750100
 20
219.618037
 40
0.000000
 50
0.000000
  1
# 55
  0
POINT
  8
2
 10
-219.709969
 20
219.618037
  0
TEXT
  8
2
 10
-219.709969
 20
219.618037
 40
0.000000
 50
0.000000
  1
# 56
  0
POINT
  8
3
 10
-219.709969
 20
251.618159
  0
POINT
  8
3
 10
-129.750100
 20
251.618159
  0
POINT
  8
3
 10
-14.749947
 20
251.618159
  0
POINT
  8
3
 10
-14.749947
 20
219.618037
  0
POINT
  8
3
 10
-129.750100
 20
219.618037
  0
POINT
  8
3
 10
-219.709969
 20
219.618037
  0
POINT
  8
4
 10
-219.709969
 20
251.618159
  0
TEXT
  8
4
 10
-219.709969
 20
251.618159
 40
0.000000
 50
0.000000
  1
# 57
  0
POINT
  8
4
 10
-129.750100
 20
251.618159
  0
TEXT
  8
4
 10
-129.750100
 20
251.618159
 40
0.000000
 50
0.000000
  1
# 58
  0
POINT
  8
4
 10
-14.749947
 20
251.618159
  0
TEXT
  8
4
 10
-14.749947
 20
251.618159
 40
0.000000
 50
0.000000
  1
# 59
  0
POINT
  8
4
 10
-14.749947
 20
219.618037
  0
TEXT
  8
4
 10
-14.749947
 20
219.618037
 40
0.000000
 50
0.000000
  1
# 60
  0
POINT
  8
4
 10
-129.750100
 20
219.618037
  0
TEXT
  8
4
 10
-129.750100
 20
219.618037
 40
0.000000
 50
0.000000
  1
# 61
  0
POINT
  8
4
 10
-219.709969
 20
219.618037
  0
TEXT
  8
4
 10
-219.709969
 20
219.618037
 40
0.000000
 50
0.000000
  1
# 62
 0
LINE
 8
7
 10
-108.541146
 20
224.403956
 11
-108.541146
 21
250.979426
  0
TEXT
  8
1
 10
85.539512
 20
224.524348
 40
6.000000
 50
0.000000
  1
左肩
  0
TEXT
  8
1
 10
-20.414773
 20
224.123499
 40
6.000000
 50
4.236395
  1
前中
  0
TEXT
  8
1
 10
-135.543557
 20
225.543940
 40
6.000000
 50
356.987212
  1
右肩
  0
TEXT
  8
1
 10
-225.389748
 20
226.244471
 40
6.000000
 50
0.000000
  1
后中
  0
TEXT
  8
1
 10
-104.710050
 20
235.618098
 40
10.000000
 50
0.000000
  1
Piece Name: 领条
  0
TEXT
  8
1
 10
-104.710050
 20
250.618098
 40
10.000000
 50
0.000000
  1
Size: M
  0
TEXT
  8
1
 10
-104.710050
 20
265.618098
 40
10.000000
 50
0.000000
  1
Annotation: 
  0
TEXT
  8
1
 10
-104.710050
 20
280.618098
 40
10.000000
 50
0.000000
  1
Quantity: 1
  0
TEXT
  8
1
 10
-104.710050
 20
295.618098
 40
10.000000
 50
0.000000
  1
Category: 5
0
ENDBLK
  0
ENDSEC
  0
SECTION
  2
ENTITIES
  0
INSERT
  8
1
  2
前片-M
  10
-480.222426
  20
-454.549049
  0
INSERT
  8
1
  2
后片-M
  10
68.061180
  20
-437.284106
  0
INSERT
  8
1
  2
侧片-M
  10
-193.413448
  20
-567.553643
  0
INSERT
  8
1
  2
后领包条-M
  10
33.848434
  20
-140.878465
  0
INSERT
  8
1
  2
袖子-M
  10
-181.738563
  20
6.033276
  0
INSERT
  8
1
  2
领条-M
  10
-114.726021
  20
235.618098
  0
TEXT
  8
1
 10
-200.534764
 20
-814.126180
 40
10.000000
 50
0.000000
  1
Style Name: 女运动型T恤
  0
TEXT
  8
1
 10
-200.534764
 20
-829.126180
 40
10.000000
 50
0.000000
  1
Creation Date: 
  0
TEXT
  8
1
 10
-200.534764
 20
-844.126180
 40
10.000000
 50
0.000000
  1
Author: ET2005
  0
TEXT
  8
1
 10
-200.534764
 20
-859.126180
 40
10.000000
 50
0.000000
  1
Sample Size: M
  0
TEXT
  8
1
 10
-200.534764
 20
-874.126180
 40
10.000000
 50
0.000000
  1
Grading Rule Table: 女运动超人T恤
  0
TEXT
  8
1
 10
-200.534764
 20
-889.126180
 40
10.000000
 50
0.000000
  1
Units: METRIC
  0
ENDSEC
  0
EOF
